<?xml version="1.0" standalone="no"?>
<!DOCTYPE svg PUBLIC "-//W3C//DTD SVG 1.0//EN" "http://www.w3.org/TR/2001/REC-SVG-20010904/DTD/svg10.dtd">
<svg xmlns="http://www.w3.org/2000/svg" xmlns:xlink="http://www.w3.org/1999/xlink" id="body_1" width="215" height="161">

<g transform="matrix(0.2099609 0 0 0.2096354 0 0)">
    <path transform="matrix(0.5688889 0 0 0.5688889 0 227.5556)"  d="M900 0.09C 1198.47 0.09 1496.94 0.1 1795.41 0C 1799.16 0 1800.01 0.84 1800 4.59C 1799.89 184.86 1799.89 365.13 1800 545.41C 1800 549.16 1799.16 550.0001 1795.41 550.0001C 1198.47 549.9001 601.5299 549.9001 4.599854 550.0001C 0.8498535 550.0001 -0.000146389 549.16 0.009853363 545.41C 0.11 365.14 0.11 184.86 0 4.59C 0 0.84 0.84 0 4.59 0C 303.06 0.1 601.53 0.09 900 0.09z" stroke="none" fill="#FDFDFD" fill-rule="nonzero" />
    <path transform="matrix(0.5688889 0 0 0.5688889 0 227.5556)"  d="M996.87 226.45C 998.09 226.9 998.87 227.18 999.64 227.48C 1015.54 233.7 1027.26 243.77 1029.04 261.8C 1031.08 282.46 1024.85 299.61 1005.98 310.51C 992.71 318.16 978 321 963 321.88C 942.52 323.08 922.04 322.47 902.1 316.91C 893.44 314.49 885.52 310.71 882.6 300.96C 881.81 298.33 881.8199 295.7 881.8199 293.06C 881.7999 249.77 881.7899 206.49 881.8099 163.2C 881.8099 154.53 884.1599 151.14 892.46 147.83C 904.7 142.94 917.6799 141.81 930.6 141.19C 950.21 140.25 969.91 139.84 988.95 146.09C 1003.58 150.89 1016.13 158.49 1020.97 174.19C 1027.88 196.59 1021.4 216.02 998.55 225.26C 998.12 225.42 997.77 225.79 996.87 226.45z" stroke="none" fill="#2F2F2F" fill-rule="nonzero" />
    <path transform="matrix(0.5688889 0 0 0.5688889 0 227.5556)"  d="M1562.6 218.41C 1562.6 191.6 1562.78 164.79 1562.44 137.99C 1562.38 133.15 1563.98 131.82 1568.24 131.26C 1577.34 130.08 1586.41 129.05 1595.54 130.84C 1604.07 132.52 1609.02 137.71 1610.07 146.27C 1611.29 156.23 1610.56 166.23 1610.6 176.21C 1610.62 179.62 1611.14 180.41 1614.74 179.28C 1630.68 174.23 1646.82 174.05 1662.86 178.8C 1683.88 185.03 1697.22 201.02 1697.79 222.91C 1698.59 253.53 1698.14 284.18 1698.3 314.82C 1698.31 317.12 1697.52 317.88 1695.27 318.29C 1685.21 320.11 1675.15 320.94 1665.02 319.08C 1656.98 317.6 1651.8 312.1 1650.81 303.8701C 1649.56 293.42 1650.34 282.9101 1650.23 272.4301C 1650.1 260.11 1649.92 247.7801 1650.26 235.4701C 1650.84 214.8301 1636.66 211.4301 1623.33 213.5201C 1610.89 215.4701 1610.67 216.0601 1610.67 228.5901C 1610.67 256.5601 1610.55 284.5401 1610.8 312.5101C 1610.84 316.8201 1609.49 318.3201 1605.49 318.7901C 1596.38 319.8501 1587.32 320.8901 1578.16 319.2201C 1568.65 317.4801 1563.05 311.6701 1562.86 301.8401C 1562.52 284.36 1562.65 266.8801 1562.6 249.3901C 1562.58 239.06 1562.6 228.74 1562.6 218.41z" stroke="none" fill="#2F2F2F" fill-rule="nonzero" />
    <path transform="matrix(0.5688889 0 0 0.5688889 0 227.5556)"  d="M616.78 180.53C 629.28 176.08 641.54 175.05 654.15 175.85C 684.2401 177.75 703.64 197.11 704.13 227.21C 704.6 256.18 704.3 285.15 704.41 314.13C 704.42 316.66 703.98 317.9 701.08 318.37C 691.34 319.98 681.63 320.92 671.81 319.17C 662.87 317.58 657.87 312.24 656.82 303.08C 655.79 294.11 656.4 285.11 656.33 276.13C 656.22 262.48 656.04 248.82 656.36 235.17C 656.83 215.14 643.1801 211.7 629.6201 213.41C 629.4601 213.43 629.3 213.49 629.1301 213.52C 616.7701 215.93 616.7701 215.93 616.7701 228.4C 616.7701 256.54 616.7201 284.68 616.8401 312.82C 616.8501 316.31 616.3201 318.16 612.2801 318.66C 602.8401 319.84 593.4601 320.91 583.9801 319.18C 575.1901 317.58 569.8101 311.91 568.9801 303.04C 568.7501 300.56 568.7201 298.05 568.7201 295.55C 568.7101 242.76 568.7301 189.98 568.6501 137.19C 568.6401 133.78 569.0601 132.07 573.1701 131.49C 582.7801 130.13 592.3101 129.04 601.9401 130.9C 610.1201 132.48 615.1001 137.8 616.1601 146.07C 617.3501 155.36 616.5601 164.7 616.7701 174.01C 616.81 175.98 616.78 177.95 616.78 180.53z" stroke="none" fill="#2F2F2F" fill-rule="nonzero" />
    <path transform="matrix(0.5688889 0 0 0.5688889 0 227.5556)"  d="M685.14 368.77C 710.12 368.83 735.1 368.95 760.08 368.95C 871.18 368.97 982.28 368.96 1093.38 368.95C 1095.21 368.95 1097.04 368.82 1098.86 368.75C 1099.92 370.39 1099.04 371.97 1098.59 373.5C 1095.56 383.79 1095.63 394.02 1098.85 404.25C 1099.33 405.78 1100.17 407.36 1098.97 408.96C 960.99 408.96 823 408.96 685.02 408.96C 683.92 407.56 684.5599 406.12 684.9899 404.72C 688.2899 394.18 688.3399 383.62 685.2599 373.03C 684.87 371.65 684.16 370.22 685.14 368.77z" stroke="none" fill="#2F2F2F" fill-rule="nonzero" />
    <path transform="matrix(0.5688889 0 0 0.5688889 0 227.5556)"  d="M1196.09 368.76C 1220.07 368.82 1244.05 368.94 1268.04 368.94C 1379.97 368.96 1491.9 368.95 1603.84 368.94C 1605.5 368.94 1607.16 368.81 1608.82 368.74C 1609.88 370.38 1609 371.96 1608.55 373.49C 1605.52 383.78 1605.59 394.01 1608.81 404.24C 1609.29 405.77 1610.13 407.35 1608.93 408.95C 1471.28 408.95 1333.63 408.95 1195.98 408.95C 1194.88 407.55 1195.52 406.11 1195.95 404.71C 1199.25 394.17 1199.3 383.61 1196.22 373.02C 1195.81 371.65 1195.1 370.22 1196.09 368.76z" stroke="none" fill="#2F2F2F" fill-rule="nonzero" />
    <path transform="matrix(0.5688889 0 0 0.5688889 0 227.5556)"  d="M1278.03 257.88C 1278.03 268.54 1277.87 279.21 1278.09 289.86C 1278.24 296.91 1275.62 302.41 1270.27 306.83C 1260.59 314.84 1249.15 318.58 1237 320.4C 1217.75 323.28 1198.51 323.65 1179.64 318.02C 1164.72 313.57 1152.36 305.43 1148.13 289.6C 1141.75 265.72 1148.98 241.71 1181.36 234.98C 1194.75 232.2 1208.42 231.64 1221.95 229.94C 1222.77 229.84 1223.66 229.99 1224.43 229.75C 1226.67 229.06 1230.15 230.32 1230.99 227.69C 1231.93 224.73 1230.94 221.39 1228.84 218.78C 1225.1 214.16 1219.74 212.9 1214.26 212.08C 1198.06 209.63 1182.41 212.28 1167.25 217.92C 1163.59 219.28 1161.81 218.29 1159.76 215.65C 1149.68 202.61 1154.25 186.64 1170.01 181.09C 1184.34 176.05 1199.29 175.25 1214.34 175.62C 1227.59 175.94 1240.5 177.92 1252.49 183.95C 1269.1 192.3 1277.26 206.13 1277.93 224.39C 1278.34 235.54 1278.01 246.71 1278.01 257.87C 1278.01 257.88 1278.02 257.88 1278.03 257.88z" stroke="none" fill="#2F2F2F" fill-rule="nonzero" />
    <path transform="matrix(0.5688889 0 0 0.5688889 0 227.5556)"  d="M1336.04 268.06C 1336.04 283.05 1335.89 298.04 1336.14 313.03C 1336.2 316.82 1335.04 318.19 1331.39 318.69C 1323.61 319.77 1315.83 320.57 1308 319.91C 1293.96 318.73 1287.96 312.08 1287.92 297.79C 1287.86 272.14 1287.9 246.49 1287.9 220.84C 1287.9 218.67 1288.03 216.5 1287.88 214.35C 1287.14 203.98 1291.8 196.49 1300.11 190.81C 1312.35 182.46 1326.07 178.15 1340.59 176.47C 1356.9 174.59 1373.17 174.81 1388.97 180.08C 1410.93 187.4 1423.6 204.12 1423.86 227.12C 1424.18 256.1 1423.92 285.08 1423.99 314.06C 1424 316.56 1423.61 317.83 1420.68 318.31C 1411.27 319.87 1401.88 320.92 1392.4 319.33C 1381.28 317.46 1375.95 311.35 1375.87 299.85C 1375.72 277.7 1375.8 255.55 1375.79 233.39C 1375.78 218.28 1370 212.7 1354.76 213.08C 1353.76 213.1 1352.76 213.11 1351.77 213.22C 1337.95 214.81 1336.05 216.92 1336.05 230.57C 1336.04 243.07 1336.04 255.57 1336.04 268.06z" stroke="none" fill="#2F2F2F" fill-rule="nonzero" />
    <path transform="matrix(0.5688889 0 0 0.5688889 0 227.5556)"  d="M792.53 322.25C 780.59 322.57 768.97 320.77 757.79 316.59C 730.36 306.31 713.8801 282.22 713.01 251.32C 712.65 238.39 713.95 225.73 719.44 213.82C 731.07 188.57 756.76 174.08 786.7 175.47C 807.56 176.44 825.78 182.97 839.4 199.55C 847.98 209.99 851.76 222.25 851.79 235.61C 851.8201 248.03 844.6801 254.99 830.7401 257.04C 808.54 260.31 786.3801 263.79 764.16 266.91C 760.51 267.42 761.03 268.69 762.2501 270.93C 767.7001 280.86 777.1201 284.39 787.42 285.82C 802.9901 287.98 817.91 285.16 831.92 278.14C 834.7601 276.72 836.3801 277.27 838.41 279.17C 849.77 289.78 847.79 306.59 834.14 313.95C 821.15 320.95 806.91 322.04 792.53 322.25z" stroke="none" fill="#2F2F2F" fill-rule="nonzero" />
    <path transform="matrix(0.5688889 0 0 0.5688889 0 227.5556)"  d="M403.05 145.05C 451.68 145.05 500.3 145.1 548.93 144.94C 552.74 144.93 554.53 146.14 555.8 149.59C 558.4 156.64 559.17 163.81 558.06 171.17C 556.8 179.52 550.48 184.87 541.72 184.99C 532.56 185.11 523.39 185.24 514.25 184.92C 510.17 184.78 508.98 185.79 509 190.03C 509.17 230.49 509.01 270.94 509.23 311.4C 509.25 315.83 507.88 317.47 503.75 317.9C 493.98 318.93 484.22 320.13 474.44 318.13C 465.45 316.29 460.52 310.88 459.98 301.61C 459.57 294.47 459.61 287.3 459.6 280.15C 459.56 250.18 459.51 220.21 459.67 190.25C 459.69 186.32 459.03 184.82 454.61 184.91C 437.47 185.27 420.32 185.16 403.17 185.23C 402.13 183.58 403.02 182.02 403.45 180.49C 406.35 170.22 406.29 159.99 403.2 149.77C 402.72 148.23 401.86 146.66 403.05 145.05z" stroke="none" fill="#2F2F2F" fill-rule="nonzero" />
    <path transform="matrix(0.5688889 0 0 0.5688889 0 227.5556)"  d="M385.11 209.01C 391.66 243.02 408.68 272.66 424.51 302.77C 433.72 320.29 444.15 337.08 457.38 351.94C 459.69 354.53 462.18 356.99 464.79 359.29C 471.98 365.63 479.83 369.26 490.02 369.09C 521.48 368.58 552.96 368.94 584.44 368.95C 585.6 368.95 586.76 368.82 587.93 368.75C 588.99 370.39 588.11 371.97 587.66 373.5C 584.6299 383.79 584.7 394.02 587.92 404.25C 588.4 405.78 589.24 407.36 588.04 408.96C 555.22 409.02 522.39 409.09 489.57 409.13C 473.75 409.15 460.9 401.46 448.62 392.76C 430.62 380.01 416.63 363.34 404.4 345.23C 386.09 318.11 371.25 289.14 359.84 258.46C 354.96 245.34 350.94 231.97 348.97 218.06C 350.51 216.38 352.59 216.69 354.53 216.64C 363.42 216.4 371.82 214.32 379.7 210.15C 381.33 209.28 382.93 207.62 385.11 209.01z" stroke="none" fill="#2F2F2F" fill-rule="nonzero" />
    <path transform="matrix(0.5688889 0 0 0.5688889 0 227.5556)"  d="M1511.9 322.1C 1495.31 322.08 1479.45 318.93 1465.28 309.95C 1439.95 293.9 1431 269.93 1433.29 241.07C 1435.09 218.45 1444.3 199.61 1464.14 187.47C 1484.58 174.97 1506.93 172.5 1529.96 178.13C 1540.34 180.67 1548.95 186.3 1551.31 198.03C 1552.91 205.96 1549.56 212.25 1544.82 218.15C 1543.16 220.22 1541.65 218.97 1539.99 218.33C 1530.76 214.78 1521.39 212.02 1511.33 213.7C 1492.54 216.83 1482.25 228.76 1481.76 247.92C 1481.27 267.31 1490.8 280.18 1508.86 283.5C 1519.03 285.37 1529.16 284.06 1538.57 279.59C 1541.91 278.01 1543.88 278.77 1546.32 281.05C 1557.86 291.87 1555.81 308.53 1541.9 316.12C 1534.5 320.15 1524.83 322.07 1511.9 322.1z" stroke="none" fill="#2F2F2F" fill-rule="nonzero" />
    <path transform="matrix(0.5688889 0 0 0.5688889 0 227.5556)"  d="M1038.93 255.51C 1038.93 241.03 1038.96 226.55 1038.92 212.06C 1038.9 203.84 1041.86 196.73 1048.67 192.31C 1070.42 178.22 1094.39 172.46 1119.94 177.24C 1139.34 180.87 1139.15 199.18 1133.75 210.97C 1132.63 213.41 1130.6 212.96 1128.66 213C 1116.46 213.26 1104.59 215.51 1092.84 218.68C 1089.25 219.65 1087.93 221.21 1087.95 225.12C 1088.14 254.58 1087.98 284.05 1088.15 313.51C 1088.17 316.89 1087.1 318.18 1083.98 318.71C 1075.06 320.21 1066.08 320.71 1057.12 319.8C 1045.28 318.59 1039.15 311.67 1038.99 299.45C 1038.8 284.8 1038.94 270.15 1038.94 255.51C 1038.95 255.51 1038.94 255.51 1038.93 255.51z" stroke="none" fill="#2F2F2F" fill-rule="nonzero" />
    <path transform="matrix(0.5688889 0 0 0.5688889 0 227.5556)"  d="M192.19 144.85C 215.66 144.92 239.14 145 262.61 145.04C 277.1 145.07 291.58 145.05 306.07 145.05C 307.15 146.46 306.53 147.9 306.08 149.29C 302.67 159.82 302.61 170.37 305.82 180.96C 306.24 182.34 306.93 183.78 305.96 185.23C 283.15 185.16 260.34 185.08 237.54 185.04C 222.39 185.01 207.24 185.03 192.08 185.02C 191 183.61 191.64 182.17 192.07 180.78C 195.36 170.25 195.41 159.7 192.33 149.11C 191.92 147.73 191.21 146.3 192.19 144.85z" stroke="none" fill="#2F2F2F" fill-rule="nonzero" />
    <path transform="matrix(0.5688889 0 0 0.5688889 0 227.5556)"  d="M1608.92 408.97C 1603.79 395.58 1603.22 382.18 1608.81 368.76C 1618.6 347.22 1635.41 336.02 1658.99 336.06C 1685.53 336.11 1708.14 358.36 1709.91 385.33C 1711.65 411.85 1691.66 436.09 1665.7 440.27C 1644.9 443.62 1619.98 433.33 1608.92 408.97z" stroke="none" fill="#000000" fill-rule="nonzero" />
    <path transform="matrix(0.5688889 0 0 0.5688889 0 227.5556)"  d="M305.95 185.23C 300.37 171.82 300.9 158.43 306.07 145.05C 313.46 129.77 324.75 119.04 341.56 114.87C 366.14 108.77 390.34 119.91 401.64 142.43C 402.08 143.32 402.58 144.18 403.05 145.05C 408.13 158.43 408.65 171.82 403.16 185.23C 399.6 195.02 392.31 201.98 385.11 209.01C 377.46 212.71 369.97 216.66 361.25 217.6C 357.13 218.04 353.05 217.74 348.96 218.07C 343.91 216.58 338.62 215.93 333.77 213.71C 320.8 207.8 311.47 198.39 305.95 185.23z" stroke="none" fill="#000000" fill-rule="nonzero" />
    <path transform="matrix(0.5688889 0 0 0.5688889 0 227.5556)"  d="M1196.09 368.76C 1201.56 382.17 1201.04 395.57 1195.98 408.96C 1188.9 423.78 1177.88 434.29 1161.93 438.87C 1137.35 445.94 1111.97 434.54 1100.41 411.57C 1099.96 410.68 1099.45 409.83 1098.98 408.9601C 1093.85 395.57 1093.28 382.17 1098.87 368.7501C 1108.31 347.8 1124.6 336.17 1147.48 336.1601C 1170.37 336.15 1186.64 347.82 1196.09 368.76z" stroke="none" fill="#000000" fill-rule="nonzero" />
    <path transform="matrix(0.5688889 0 0 0.5688889 0 227.5556)"  d="M192.19 144.85C 197.67 158.26 197.15 171.65 192.07 185.02C 184.58 200.52 173 211.07 156.03 215.43C 126.72 222.95 96.7 202.65 91.76 172.83C 86.85001 143.15 109.74 110.85 145.49 112.2C 167.53 113.04 183.16 124.61 192.19 144.85z" stroke="none" fill="#000000" fill-rule="nonzero" />
    <path transform="matrix(0.5688889 0 0 0.5688889 0 227.5556)"  d="M588.03 408.97C 582.9 395.58 582.33 382.18 587.92 368.76C 597.36 347.81 613.65 336.18 636.53 336.17C 659.4301 336.15 675.69 347.83 685.14 368.77C 690.61 382.18 690.09 395.58 685.03 408.97C 677.95 423.79 666.9301 434.3 650.98 438.88C 626.4 445.95 601.02 434.55 589.46 411.58C 589.02 410.69 588.51 409.84 588.03 408.97z" stroke="none" fill="#000000" fill-rule="nonzero" />
    <path transform="matrix(0.5688889 0 0 0.5688889 0 227.5556)"  d="M929.95 265.44C 929.95 260.45 929.94 255.45 929.95 250.46C 929.95 248.99 929.64 247.28 932.01 247.35C 943.45 247.72 955.01 246.14 966.3 249.02C 974.29 251.05 978 255.27 978.79 262.61C 979.65 270.57 976.47 276.97 969.81 280.6C 964.26 283.63 958.17 284.62 951.99 284.55C 945.52 284.47 939.03 284.3 932.61 283.12C 930.5 282.73 929.85 281.94 929.9 279.91C 930.02 275.09 929.95 270.26 929.95 265.44z" stroke="none" fill="#FEFEFE" fill-rule="nonzero" />
    <path transform="matrix(0.5688889 0 0 0.5688889 0 227.5556)"  d="M929.95 195.88C 929.95 191.22 930.05 186.55 929.91 181.89C 929.85 179.8 930.52 178.93 932.6201 178.74C 942.09 177.89 951.59 177.09 960.9301 179.4C 969.73 181.58 974.3901 187.63 974.1801 195.74C 973.9401 204.93 969.4601 210.15 959.86 212.09C 950.6201 213.95 941.2501 212.57 931.9501 212.97C 929.5001 213.07 929.9601 211.29 929.9501 209.88C 929.93 205.21 929.95 200.54 929.95 195.88z" stroke="none" fill="#FEFEFE" fill-rule="nonzero" />
    <path transform="matrix(0.5688889 0 0 0.5688889 0 227.5556)"  d="M1231.72 272.18C 1231.72 272.85 1231.72 273.51 1231.72 274.18C 1231.72 285.15 1231.74 285.31 1220.86 286.68C 1214.77 287.44 1208.59 287.95 1202.52 286.29C 1196.15 284.54 1192.7 280.49 1192.55 274.81C 1192.41 269.48 1195.12 266.1 1201.8 264.08C 1210.8 261.3499 1220.21 261.74 1229.45 260.84C 1231.29 260.66 1231.73 261.63 1231.71 263.21C 1231.69 266.19 1231.72 269.18 1231.72 272.18z" stroke="none" fill="#FEFEFE" fill-rule="nonzero" />
    <path transform="matrix(0.5688889 0 0 0.5688889 0 227.5556)"  d="M758.03 235.7C 756.73 235.79 757.72 233.99 757.8701 232.63C 759.4401 218.39 772.28 208.78 786.98 210.46C 795.97 211.49 801.9901 216.1 805.5001 224.22C 806.1301 225.69 807.3901 227.83 804.0701 228.12C 802.92 228.22 801.8101 228.64 800.6601 228.83C 786.93 231.05 773.19 233.26 758.03 235.7z" stroke="none" fill="#FEFEFE" fill-rule="nonzero" />
    <path transform="matrix(0.5688889 0 0 0.5688889 0 227.5556)"  d="M1610.84 379.6C 1612.51 362.32 1629.5 344.33 1648.56 341.89C 1650.24 341.04 1652.17 341.97 1653.84 341.13C 1656.23 341.13 1658.62 341.13 1661.01 341.13C 1662.69 341.97 1664.62 341.05 1666.29 341.89C 1675.21 343.9 1683.06 347.52 1689.89 354.08C 1695.12 359.1 1698.68 364.79 1701.72 371.1C 1703.03 373.81 1704.03 376.56 1704.01 379.6C 1704.86 381.28 1703.93 383.21 1704.77 384.88C 1704.77 387.27 1704.77 389.66 1704.77 392.04C 1703.93 393.71 1704.85 395.64 1704.01 397.32C 1702.3 406.48 1698.28 414.16 1691.69 421.05C 1686.59 426.39 1680.8 429.97 1674.34 432.97C 1671.77 434.16 1669.16 435.07 1666.29 435.03C 1664.61 435.88 1662.68 434.95 1661.01 435.79C 1658.62 435.79 1656.23 435.79 1653.84 435.79C 1652.16 434.95 1650.23 435.87 1648.56 435.03C 1630.96 433.52 1612.35 414.91 1610.84 397.32C 1609.99 395.64 1610.92 393.7101 1610.08 392.04C 1610.08 389.65 1610.08 387.26 1610.08 384.88C 1610.91 383.2 1609.99 381.27 1610.84 379.6z" stroke="none" fill="#0047BA" fill-rule="nonzero" />
    <path transform="matrix(0.5688889 0 0 0.5688889 0 227.5556)"  d="M1653.84 341.12C 1652.26 342.64 1650.34 341.75 1648.56 341.88C 1650.17 340.63 1652.02 340.99 1653.84 341.12z" stroke="none" fill="#0717CF" fill-rule="nonzero" />
    <path transform="matrix(0.5688889 0 0 0.5688889 0 227.5556)"  d="M1666.29 341.89C 1664.51 341.75 1662.59 342.65 1661.01 341.13C 1662.82 340.99 1664.67 340.64 1666.29 341.89z" stroke="none" fill="#0717CF" fill-rule="nonzero" />
    <path transform="matrix(0.5688889 0 0 0.5688889 0 227.5556)"  d="M1610.84 379.6C 1610.7 381.38 1611.6 383.3 1610.08 384.88C 1609.94 383.06 1609.58 381.21 1610.84 379.6z" stroke="none" fill="#0717CF" fill-rule="nonzero" />
    <path transform="matrix(0.5688889 0 0 0.5688889 0 227.5556)"  d="M1704.77 384.88C 1703.25 383.3 1704.14 381.38 1704.01 379.6C 1705.26 381.22 1704.9 383.07 1704.77 384.88z" stroke="none" fill="#0717CF" fill-rule="nonzero" />
    <path transform="matrix(0.5688889 0 0 0.5688889 0 227.5556)"  d="M1610.07 392.04C 1611.59 393.62 1610.7 395.54 1610.83 397.32C 1609.58 395.71 1609.94 393.86 1610.07 392.04z" stroke="none" fill="#0717CF" fill-rule="nonzero" />
    <path transform="matrix(0.5688889 0 0 0.5688889 0 227.5556)"  d="M1704.01 397.32C 1704.15 395.54 1703.25 393.62 1704.77 392.04C 1704.9 393.86 1705.26 395.71 1704.01 397.32z" stroke="none" fill="#0717CF" fill-rule="nonzero" />
    <path transform="matrix(0.5688889 0 0 0.5688889 0 227.5556)"  d="M1648.56 435.04C 1650.34 435.18 1652.26 434.28 1653.84 435.8C 1652.02 435.93 1650.17 436.29 1648.56 435.04z" stroke="none" fill="#0717CF" fill-rule="nonzero" />
    <path transform="matrix(0.5688889 0 0 0.5688889 0 227.5556)"  d="M1661 435.8C 1662.58 434.28 1664.5 435.17 1666.28 435.04C 1664.67 436.29 1662.82 435.93 1661 435.8z" stroke="none" fill="#0717CF" fill-rule="nonzero" />
    <path transform="matrix(0.5688889 0 0 0.5688889 0 227.5556)"  d="M402.05 164.72C 402.1 191.77 381.46 212.95 354.99 213.02C 327.95 213.09 307.07 192.21 307.06 165.1C 307.05 138.13 327.78 117.08 354.37 117.05C 381.11 117.03 402.01 137.91 402.05 164.72z" stroke="none" fill="#FEFEFE" fill-rule="nonzero" />
    <path transform="matrix(0.5688889 0 0 0.5688889 0 227.5556)"  d="M1194.97 387.92C 1194.98 414.89 1174.25 435.92 1147.64 435.94C 1120.7 435.97 1099.95 414.98 1099.98 387.75C 1100.01 360.89 1120.85 339.96 1147.56 339.98C 1174.2 339.99 1194.96 360.99 1194.97 387.92z" stroke="none" fill="#FEFEFE" fill-rule="nonzero" />
    <path transform="matrix(0.5688889 0 0 0.5688889 0 227.5556)"  d="M191.07 164.06C 191.07 191.01 170.32 212.01 143.68 212.02C 116.77 212.04 96.04001 191.02 96.08001 163.77C 96.12001 136.94 116.99 116.03 143.72 116.06C 170.33 116.08 191.08 137.1 191.07 164.06z" stroke="none" fill="#FEFEFE" fill-rule="nonzero" />
    <path transform="matrix(0.5688889 0 0 0.5688889 0 227.5556)"  d="M684.02 389.05C 685.08 413.9 663.03 437.39 636.06 437.15C 610.07 436.92 588.65 414.05 588.79 388.63C 588.93 364.13 609.9 340.41 637.24 340.79C 663.22 341.14 685.13 364.01 684.02 389.05z" stroke="none" fill="#E3002B" fill-rule="nonzero" />
</g>
</svg>