<svg id="svg" version="1.1" xmlns="http://www.w3.org/2000/svg" xmlns:xlink="http://www.w3.org/1999/xlink" width="180" height="39" viewBox="0, 0, 400,86.25407166123777"><g id="svgg"><path id="path0" d="M114.875 58.612 C 114.577 58.654,114.333 58.751,114.333 58.828 C 114.333 58.906,113.958 59.020,113.500 59.083 C 113.042 59.146,112.667 59.260,112.667 59.336 C 112.667 59.412,112.442 59.523,112.167 59.583 C 111.892 59.644,111.667 59.762,111.667 59.847 C 111.667 59.931,111.554 60.000,111.417 60.000 C 111.279 60.000,111.167 60.075,111.167 60.167 C 111.167 60.258,111.060 60.333,110.929 60.333 C 110.798 60.333,110.588 60.436,110.462 60.561 C 110.337 60.687,110.069 60.842,109.867 60.906 C 109.665 60.970,109.500 61.092,109.500 61.178 C 109.500 61.263,109.424 61.333,109.330 61.333 C 109.109 61.333,107.000 63.442,107.000 63.664 C 107.000 63.757,106.942 63.833,106.872 63.833 C 106.801 63.833,106.557 64.190,106.330 64.625 C 106.103 65.060,105.860 65.442,105.792 65.472 C 105.723 65.503,105.667 65.628,105.667 65.750 C 105.667 65.872,105.575 66.003,105.463 66.040 C 105.338 66.082,105.271 66.389,105.289 66.837 C 105.305 67.239,105.255 67.646,105.178 67.742 C 104.730 68.302,104.295 71.522,104.423 73.333 C 104.525 74.771,104.562 74.951,105.137 76.778 C 105.314 77.344,105.398 77.869,105.322 77.945 C 105.194 78.073,105.598 79.145,105.845 79.333 C 105.906 79.379,106.002 79.567,106.059 79.750 C 106.116 79.933,106.351 80.286,106.581 80.534 C 106.812 80.782,107.000 81.042,107.000 81.111 C 107.000 81.415,109.789 83.911,110.316 84.078 C 110.509 84.139,110.667 84.253,110.667 84.331 C 110.667 84.410,110.892 84.523,111.167 84.583 C 111.442 84.644,111.667 84.762,111.667 84.847 C 111.667 84.931,111.779 85.000,111.917 85.000 C 112.054 85.000,112.167 85.074,112.167 85.165 C 112.167 85.255,112.467 85.377,112.833 85.436 C 113.200 85.495,113.500 85.597,113.500 85.664 C 113.500 86.296,122.416 86.312,122.830 85.681 C 122.877 85.608,123.198 85.496,123.542 85.433 C 123.885 85.370,124.167 85.247,124.167 85.159 C 124.167 85.072,124.279 85.000,124.417 85.000 C 124.554 85.000,124.667 84.931,124.667 84.847 C 124.667 84.762,124.892 84.644,125.167 84.583 C 125.442 84.523,125.667 84.410,125.667 84.331 C 125.667 84.253,125.830 84.137,126.029 84.074 C 126.466 83.936,126.579 83.847,127.885 82.625 C 128.448 82.098,128.962 81.667,129.026 81.667 C 129.091 81.667,129.197 81.498,129.262 81.292 C 129.327 81.085,129.542 80.765,129.741 80.580 C 130.295 80.062,131.211 78.069,131.082 77.662 C 131.022 77.472,131.045 77.227,131.134 77.117 C 131.985 76.059,132.179 71.167,131.466 68.750 C 131.277 68.108,131.130 67.363,131.140 67.093 C 131.158 66.622,130.550 65.143,130.292 65.028 C 130.223 64.997,130.167 64.898,130.167 64.808 C 130.167 64.717,130.073 64.538,129.958 64.411 C 129.496 63.895,129.333 63.675,129.333 63.566 C 129.333 63.265,126.560 60.833,126.216 60.833 C 126.097 60.833,126.000 60.760,126.000 60.670 C 126.000 60.580,125.813 60.459,125.583 60.402 C 125.354 60.344,125.167 60.230,125.167 60.149 C 125.167 60.067,125.054 60.000,124.917 60.000 C 124.779 60.000,124.667 59.931,124.667 59.847 C 124.667 59.762,124.442 59.644,124.167 59.583 C 123.892 59.523,123.667 59.413,123.667 59.339 C 123.667 59.265,123.310 59.151,122.875 59.086 C 122.440 59.021,122.030 58.881,121.964 58.775 C 121.844 58.582,116.048 58.448,114.875 58.612 " stroke="none" fill="#e3042c" fill-rule="evenodd"></path><path id="path1" d="M117.167 58.333 C 117.167 58.426,117.611 58.500,118.167 58.500 C 118.722 58.500,119.167 58.426,119.167 58.333 C 119.167 58.241,118.722 58.167,118.167 58.167 C 117.611 58.167,117.167 58.241,117.167 58.333 M381.333 58.324 C 381.333 58.400,380.902 58.515,380.375 58.581 C 379.848 58.647,379.367 58.781,379.305 58.880 C 379.244 58.978,379.019 59.085,378.805 59.117 C 378.592 59.150,378.392 59.249,378.361 59.338 C 378.331 59.427,378.205 59.500,378.083 59.500 C 377.815 59.500,376.773 60.032,376.694 60.208 C 376.664 60.277,376.528 60.333,376.393 60.333 C 376.258 60.333,376.193 60.407,376.249 60.498 C 376.305 60.589,376.245 60.622,376.113 60.572 C 375.983 60.522,375.832 60.598,375.777 60.740 C 375.722 60.883,375.562 61.000,375.422 61.000 C 375.188 61.000,375.090 61.202,375.151 61.554 C 375.164 61.630,375.094 61.641,374.995 61.580 C 374.809 61.465,374.167 62.090,374.167 62.387 C 374.167 62.480,374.120 62.509,374.063 62.452 C 373.901 62.290,372.964 63.307,373.089 63.509 C 373.151 63.610,373.044 63.730,372.847 63.781 C 372.653 63.832,372.505 63.958,372.517 64.062 C 372.567 64.479,372.491 64.681,372.322 64.576 C 372.224 64.516,372.103 64.624,372.053 64.817 C 372.002 65.009,371.901 65.167,371.827 65.167 C 371.753 65.167,371.640 65.410,371.576 65.708 C 371.511 66.006,371.374 66.303,371.272 66.368 C 371.138 66.453,371.144 66.544,371.293 66.693 C 371.531 66.931,371.575 67.833,371.349 67.833 C 371.266 67.833,371.144 68.227,371.079 68.708 C 371.013 69.190,370.891 69.627,370.808 69.680 C 370.612 69.804,370.609 74.693,370.805 74.820 C 370.887 74.873,371.009 75.292,371.077 75.750 C 371.144 76.208,371.256 76.621,371.326 76.667 C 371.618 76.860,371.692 78.000,371.412 78.000 C 371.167 78.000,371.167 78.024,371.405 78.262 C 371.549 78.406,371.667 78.706,371.667 78.929 C 371.667 79.151,371.742 79.333,371.833 79.333 C 371.925 79.333,372.000 79.448,372.000 79.589 C 372.000 79.729,372.113 79.887,372.250 79.940 C 372.387 79.992,372.500 80.140,372.500 80.268 C 372.500 80.396,372.570 80.500,372.655 80.500 C 372.741 80.500,372.862 80.663,372.926 80.861 C 373.039 81.220,375.239 83.500,375.471 83.500 C 375.538 83.500,375.721 83.650,375.878 83.833 C 376.035 84.017,376.277 84.167,376.415 84.167 C 376.553 84.167,376.667 84.236,376.667 84.320 C 376.667 84.404,376.892 84.523,377.167 84.583 C 377.442 84.644,377.667 84.762,377.667 84.847 C 377.667 84.931,377.817 85.000,378.000 85.000 C 378.183 85.000,378.333 85.075,378.333 85.167 C 378.333 85.258,378.416 85.333,378.516 85.333 C 378.617 85.333,378.936 85.442,379.225 85.575 C 380.828 86.312,387.814 86.378,388.750 85.665 C 388.842 85.596,389.160 85.486,389.458 85.423 C 389.756 85.359,390.000 85.255,390.000 85.191 C 390.000 85.127,390.337 84.927,390.748 84.746 C 391.160 84.565,391.498 84.360,391.498 84.292 C 391.499 84.223,391.613 84.167,391.752 84.167 C 391.890 84.167,392.132 84.017,392.289 83.833 C 392.446 83.650,392.641 83.500,392.723 83.500 C 392.898 83.500,395.167 81.274,395.167 81.102 C 395.167 81.038,395.355 80.782,395.585 80.534 C 395.815 80.286,396.050 79.933,396.108 79.750 C 396.165 79.567,396.265 79.379,396.331 79.333 C 396.550 79.179,397.500 77.039,397.500 76.698 C 397.500 76.513,397.576 76.336,397.669 76.305 C 397.762 76.274,397.885 75.628,397.944 74.869 C 398.002 74.110,398.114 73.449,398.192 73.401 C 398.270 73.353,398.333 72.835,398.333 72.250 C 398.333 71.665,398.270 71.147,398.192 71.099 C 398.114 71.051,398.002 70.390,397.944 69.631 C 397.885 68.872,397.762 68.226,397.669 68.195 C 397.576 68.164,397.500 67.987,397.500 67.802 C 397.500 67.485,396.567 65.348,396.350 65.167 C 396.295 65.121,396.102 64.793,395.922 64.439 C 395.741 64.085,395.497 63.758,395.380 63.713 C 395.263 63.668,395.167 63.543,395.167 63.436 C 395.167 63.329,394.826 62.906,394.409 62.496 C 393.993 62.086,393.488 61.581,393.288 61.375 C 393.088 61.169,392.845 61.000,392.749 61.000 C 392.653 61.000,392.446 60.850,392.289 60.667 C 392.132 60.483,391.890 60.333,391.752 60.333 C 391.613 60.333,391.500 60.258,391.500 60.167 C 391.500 60.075,391.387 60.000,391.250 60.000 C 391.113 60.000,391.000 59.925,391.000 59.833 C 391.000 59.742,390.944 59.675,390.875 59.685 C 390.630 59.720,390.000 59.459,390.000 59.321 C 390.000 59.245,389.738 59.133,389.417 59.072 C 389.096 59.012,388.833 58.904,388.833 58.831 C 388.833 58.759,388.383 58.647,387.833 58.583 C 387.283 58.519,386.833 58.399,386.833 58.316 C 386.833 58.231,385.626 58.170,384.083 58.176 C 382.571 58.182,381.333 58.248,381.333 58.324 M104.735 64.063 C 104.594 64.431,104.782 64.618,105.036 64.364 C 105.186 64.214,105.187 64.120,105.039 63.972 C 104.891 63.824,104.818 63.845,104.735 64.063 " stroke="none" fill="#0443bb" fill-rule="evenodd"></path><path id="path2" d="M11.792 0.207 C 11.265 0.297,10.833 0.438,10.833 0.519 C 10.833 0.600,10.676 0.667,10.484 0.667 C 10.153 0.667,9.181 1.121,8.998 1.362 C 8.952 1.423,8.708 1.525,8.457 1.588 C 8.205 1.651,8.000 1.765,8.000 1.840 C 8.000 1.916,7.831 2.031,7.625 2.095 C 7.419 2.160,7.085 2.390,6.883 2.606 C 6.681 2.823,6.467 3.000,6.408 3.000 C 6.103 3.000,3.833 5.586,3.833 5.933 C 3.833 6.042,3.721 6.174,3.583 6.227 C 3.446 6.280,3.333 6.438,3.333 6.578 C 3.333 6.718,3.258 6.833,3.167 6.833 C 3.075 6.833,3.000 6.983,3.000 7.167 C 3.000 7.350,2.931 7.500,2.847 7.500 C 2.762 7.500,2.644 7.725,2.583 8.000 C 2.523 8.275,2.411 8.500,2.335 8.500 C 2.258 8.500,2.143 8.819,2.078 9.208 C 2.012 9.598,1.875 9.970,1.771 10.036 C 1.507 10.203,1.507 17.631,1.771 17.798 C 1.875 17.863,2.012 18.235,2.078 18.625 C 2.143 19.015,2.264 19.333,2.348 19.333 C 2.432 19.333,2.500 19.408,2.500 19.499 C 2.500 19.783,3.072 21.000,3.206 21.000 C 3.276 21.000,3.333 21.115,3.333 21.255 C 3.333 21.396,3.446 21.554,3.583 21.606 C 3.721 21.659,3.833 21.819,3.833 21.962 C 3.833 22.236,3.864 22.276,5.072 23.560 C 5.491 24.006,5.833 24.432,5.833 24.507 C 5.833 24.583,5.995 24.696,6.193 24.758 C 6.390 24.821,6.709 25.041,6.901 25.246 C 7.093 25.452,7.419 25.673,7.625 25.738 C 7.831 25.803,8.000 25.926,8.000 26.011 C 8.000 26.097,8.112 26.167,8.250 26.167 C 8.387 26.167,8.500 26.236,8.500 26.320 C 8.500 26.404,8.725 26.523,9.000 26.583 C 9.275 26.644,9.500 26.761,9.500 26.845 C 9.500 26.928,9.800 27.044,10.167 27.103 C 10.533 27.161,10.833 27.269,10.833 27.343 C 10.833 27.416,11.246 27.528,11.750 27.591 C 12.254 27.654,12.667 27.771,12.667 27.853 C 12.667 27.934,13.942 28.000,15.500 28.000 C 17.058 28.000,18.333 27.934,18.333 27.853 C 18.333 27.771,18.746 27.654,19.250 27.591 C 19.754 27.528,20.167 27.416,20.167 27.343 C 20.167 27.269,20.467 27.161,20.833 27.103 C 21.200 27.044,21.500 26.928,21.500 26.845 C 21.500 26.761,21.725 26.644,22.000 26.583 C 22.275 26.523,22.500 26.404,22.500 26.320 C 22.500 26.236,22.613 26.167,22.750 26.167 C 22.887 26.167,23.000 26.097,23.000 26.011 C 23.000 25.926,23.169 25.803,23.375 25.738 C 23.581 25.673,23.907 25.452,24.099 25.246 C 24.291 25.041,24.606 24.822,24.799 24.761 C 24.992 24.700,25.196 24.503,25.253 24.325 C 25.309 24.146,25.415 24.000,25.487 24.000 C 25.717 24.000,26.457 23.231,26.570 22.875 C 26.630 22.686,26.789 22.489,26.923 22.437 C 27.057 22.386,27.167 22.232,27.167 22.096 C 27.167 21.960,27.354 21.661,27.583 21.432 C 27.813 21.203,28.000 20.899,28.000 20.758 C 28.000 20.616,28.067 20.500,28.148 20.500 C 28.230 20.500,28.345 20.237,28.406 19.917 L 28.515 19.333 42.769 19.333 C 58.206 19.333,57.355 19.282,57.593 20.230 C 57.653 20.470,57.762 20.667,57.833 20.667 C 57.905 20.667,58.015 20.868,58.076 21.115 C 58.138 21.362,58.323 21.681,58.487 21.823 C 58.651 21.966,58.839 22.252,58.904 22.458 C 58.969 22.665,59.095 22.833,59.183 22.833 C 59.271 22.833,59.394 22.965,59.455 23.125 C 59.600 23.507,61.258 25.167,61.494 25.167 C 61.595 25.167,61.719 25.276,61.771 25.410 C 61.822 25.544,62.026 25.705,62.224 25.767 C 62.422 25.830,62.700 26.015,62.843 26.179 C 62.986 26.343,63.305 26.528,63.552 26.590 C 63.798 26.652,64.000 26.764,64.000 26.838 C 64.000 26.913,64.225 27.023,64.500 27.083 C 64.775 27.144,65.000 27.255,65.000 27.331 C 65.000 27.407,65.375 27.520,65.833 27.583 C 66.292 27.646,66.667 27.759,66.667 27.833 C 66.667 27.907,67.117 28.019,67.667 28.083 C 68.665 28.199,68.667 28.201,68.688 28.766 C 68.713 29.459,68.727 29.539,68.861 29.750 C 68.919 29.842,69.020 30.348,69.086 30.875 C 69.151 31.402,69.271 31.833,69.353 31.833 C 69.434 31.833,69.500 32.047,69.500 32.307 C 69.500 32.568,69.650 33.217,69.833 33.750 C 70.017 34.283,70.167 34.860,70.167 35.032 C 70.167 35.204,70.297 35.543,70.456 35.786 C 70.614 36.028,70.748 36.307,70.752 36.405 C 70.770 36.834,71.038 37.667,71.158 37.667 C 71.230 37.667,71.331 37.977,71.382 38.357 C 71.433 38.737,71.561 39.101,71.667 39.167 C 71.772 39.232,71.900 39.596,71.951 39.976 C 72.002 40.356,72.109 40.667,72.189 40.667 C 72.268 40.667,72.333 40.786,72.333 40.933 C 72.333 41.217,72.825 42.183,73.056 42.352 C 73.132 42.408,73.177 42.483,73.155 42.519 C 73.060 42.669,73.361 43.833,73.494 43.833 C 73.575 43.833,73.690 44.058,73.750 44.333 C 73.810 44.608,73.929 44.833,74.013 44.833 C 74.098 44.833,74.167 44.916,74.167 45.016 C 74.167 45.117,74.288 45.473,74.436 45.808 C 75.086 47.272,75.167 47.477,75.167 47.650 C 75.167 47.751,75.236 47.833,75.320 47.833 C 75.404 47.833,75.523 48.058,75.583 48.333 C 75.644 48.608,75.756 48.833,75.833 48.833 C 75.910 48.833,76.023 49.058,76.083 49.333 C 76.144 49.608,76.243 49.834,76.305 49.835 C 76.366 49.836,76.565 50.173,76.746 50.585 C 76.927 50.997,77.127 51.333,77.191 51.333 C 77.255 51.333,77.356 51.558,77.417 51.833 C 77.477 52.108,77.594 52.333,77.677 52.333 C 77.759 52.333,77.874 52.521,77.932 52.750 C 77.989 52.979,78.103 53.167,78.185 53.167 C 78.266 53.167,78.333 53.249,78.333 53.350 C 78.333 53.573,78.856 54.717,79.011 54.833 C 79.072 54.879,79.171 55.073,79.230 55.265 C 79.290 55.456,79.562 55.863,79.836 56.170 C 80.110 56.476,80.333 56.826,80.333 56.947 C 80.333 57.068,80.390 57.167,80.458 57.168 C 80.527 57.169,80.731 57.507,80.912 57.918 C 81.093 58.330,81.300 58.667,81.371 58.667 C 81.442 58.667,81.500 58.741,81.500 58.832 C 81.500 58.923,81.763 59.341,82.083 59.761 C 82.404 60.182,82.667 60.632,82.667 60.763 C 82.667 60.893,82.742 61.000,82.833 61.000 C 82.925 61.000,83.000 61.112,83.000 61.250 C 83.000 61.387,83.099 61.500,83.219 61.500 C 83.339 61.500,83.544 61.770,83.673 62.100 C 83.803 62.430,84.117 62.876,84.371 63.090 C 84.625 63.303,84.833 63.558,84.833 63.656 C 84.833 63.753,84.908 63.833,85.000 63.833 C 85.092 63.833,85.167 63.942,85.167 64.075 C 85.167 64.208,85.262 64.377,85.379 64.450 C 85.495 64.523,85.684 64.797,85.799 65.058 C 85.914 65.320,86.156 65.572,86.337 65.619 C 86.518 65.667,86.667 65.798,86.667 65.912 C 86.667 66.025,86.843 66.308,87.059 66.541 C 87.274 66.773,87.497 67.084,87.553 67.232 C 87.610 67.379,87.771 67.500,87.911 67.500 C 88.052 67.500,88.167 67.574,88.167 67.665 C 88.167 67.872,88.741 68.556,89.483 69.233 C 90.299 69.977,90.833 70.561,90.833 70.707 C 90.833 70.776,90.946 70.833,91.083 70.833 C 91.221 70.833,91.333 70.908,91.333 71.000 C 91.333 71.092,91.446 71.167,91.583 71.167 C 91.721 71.167,91.833 71.242,91.833 71.333 C 91.833 71.507,92.433 72.167,92.590 72.167 C 92.695 72.167,92.987 72.401,93.682 73.042 C 93.955 73.294,94.251 73.500,94.339 73.500 C 94.428 73.500,94.500 73.575,94.500 73.667 C 94.500 73.758,94.575 73.833,94.667 73.833 C 94.758 73.833,94.983 73.983,95.167 74.167 C 95.350 74.350,95.613 74.500,95.750 74.500 C 95.888 74.500,96.000 74.563,96.000 74.640 C 96.000 74.718,96.280 74.924,96.622 75.099 C 96.965 75.274,97.345 75.510,97.468 75.625 C 97.590 75.740,97.798 75.833,97.929 75.833 C 98.060 75.833,98.167 75.908,98.167 76.000 C 98.167 76.092,98.307 76.167,98.480 76.167 C 98.652 76.167,98.886 76.279,99.000 76.417 C 99.114 76.554,99.346 76.667,99.515 76.667 C 99.685 76.667,100.069 76.804,100.370 76.973 C 100.671 77.141,101.010 77.248,101.125 77.209 C 101.240 77.170,101.333 77.220,101.333 77.319 C 101.333 77.419,101.419 77.500,101.523 77.500 C 101.628 77.500,101.797 77.607,101.898 77.738 C 102.027 77.904,102.552 77.997,103.625 78.044 C 105.381 78.121,105.375 78.126,104.907 76.746 C 103.943 73.907,103.955 70.854,104.943 67.880 C 105.285 66.852,105.293 66.866,104.287 66.801 C 103.854 66.773,103.500 66.697,103.500 66.633 C 103.500 66.568,103.237 66.466,102.917 66.406 C 102.596 66.345,102.333 66.243,102.333 66.178 C 102.333 66.112,102.015 65.893,101.625 65.690 C 100.578 65.144,100.265 64.940,100.115 64.705 C 100.040 64.588,99.909 64.536,99.823 64.590 C 99.737 64.643,99.667 64.610,99.667 64.518 C 99.667 64.311,98.188 62.833,97.981 62.833 C 97.900 62.833,97.833 62.761,97.833 62.673 C 97.833 62.585,97.496 62.166,97.083 61.741 C 96.671 61.317,96.333 60.898,96.333 60.810 C 96.333 60.722,96.146 60.477,95.917 60.265 C 95.688 60.052,95.500 59.825,95.500 59.760 C 95.500 59.694,95.275 59.416,95.000 59.141 C 94.725 58.866,94.500 58.534,94.500 58.404 C 94.500 58.273,94.425 58.167,94.333 58.167 C 94.242 58.167,94.167 58.062,94.167 57.934 C 94.167 57.807,94.070 57.665,93.953 57.620 C 93.835 57.575,93.591 57.230,93.411 56.854 C 93.231 56.478,93.027 56.170,92.958 56.169 C 92.890 56.168,92.833 56.060,92.833 55.929 C 92.833 55.799,92.618 55.477,92.356 55.215 C 92.093 54.952,91.820 54.553,91.750 54.327 C 91.679 54.101,91.571 53.879,91.510 53.833 C 91.448 53.788,91.233 53.413,91.031 53.000 C 90.578 52.073,90.271 51.583,89.749 50.953 C 89.656 50.841,89.431 50.432,89.249 50.044 C 89.066 49.655,88.866 49.336,88.805 49.335 C 88.743 49.334,88.644 49.108,88.583 48.833 C 88.523 48.558,88.406 48.333,88.323 48.333 C 88.241 48.333,88.126 48.146,88.068 47.917 C 88.011 47.688,87.903 47.500,87.829 47.500 C 87.754 47.500,87.644 47.275,87.583 47.000 C 87.523 46.725,87.404 46.500,87.320 46.500 C 87.236 46.500,87.167 46.387,87.167 46.250 C 87.167 46.112,87.092 46.000,87.000 46.000 C 86.908 46.000,86.831 45.906,86.828 45.792 C 86.825 45.677,86.677 45.283,86.500 44.917 C 86.323 44.550,86.175 44.162,86.172 44.056 C 86.169 43.949,86.110 43.836,86.042 43.806 C 85.849 43.720,85.333 42.730,85.333 42.446 C 85.333 42.185,84.836 41.149,84.638 40.998 C 84.577 40.952,84.475 40.708,84.412 40.457 C 84.349 40.205,84.236 40.000,84.162 40.000 C 84.087 40.000,83.977 39.775,83.917 39.500 C 83.856 39.225,83.738 39.000,83.653 39.000 C 83.569 39.000,83.500 38.880,83.500 38.734 C 83.500 38.480,83.027 37.509,82.817 37.333 C 82.763 37.287,82.671 36.951,82.613 36.585 C 82.555 36.219,82.431 35.894,82.337 35.862 C 82.243 35.831,82.167 35.705,82.167 35.581 C 82.167 35.458,82.047 35.237,81.900 35.091 C 81.754 34.944,81.594 34.526,81.545 34.162 C 81.496 33.798,81.391 33.500,81.311 33.500 C 81.232 33.500,81.167 33.387,81.167 33.250 C 81.167 33.112,81.096 33.000,81.010 33.000 C 80.924 33.000,80.801 32.644,80.737 32.208 C 80.673 31.773,80.553 31.373,80.471 31.320 C 80.389 31.267,80.275 30.929,80.218 30.570 C 80.162 30.211,80.053 29.876,79.978 29.826 C 79.902 29.775,79.807 29.475,79.766 29.159 C 79.725 28.842,79.616 28.387,79.525 28.146 C 79.151 27.169,79.097 25.350,79.437 25.220 C 79.778 25.090,81.500 23.404,81.500 23.200 C 81.500 23.131,81.650 22.946,81.833 22.789 C 82.017 22.632,82.167 22.390,82.167 22.252 C 82.167 22.113,82.240 22.000,82.330 22.000 C 82.420 22.000,82.541 21.813,82.598 21.583 C 82.656 21.354,82.770 21.167,82.851 21.167 C 82.933 21.167,83.000 21.054,83.000 20.917 C 83.000 20.779,83.067 20.667,83.149 20.667 C 83.230 20.667,83.347 20.470,83.407 20.230 C 83.641 19.299,82.943 19.347,96.844 19.297 C 106.965 19.260,109.737 19.205,109.792 19.042 C 109.830 18.927,109.964 18.833,110.089 18.833 C 110.366 18.833,111.331 17.831,111.333 17.542 C 111.333 17.427,111.396 17.333,111.473 17.333 C 112.019 17.333,112.387 11.820,111.875 11.308 C 111.760 11.194,111.667 10.928,111.667 10.717 C 111.667 10.506,111.592 10.333,111.500 10.333 C 111.408 10.333,111.333 10.259,111.333 10.168 C 111.333 10.077,111.203 9.702,111.044 9.334 L 110.755 8.667 97.141 8.667 L 83.526 8.667 83.417 8.167 C 83.356 7.892,83.238 7.667,83.153 7.667 C 83.069 7.667,83.000 7.554,83.000 7.417 C 83.000 7.279,82.933 7.167,82.851 7.167 C 82.770 7.167,82.656 6.979,82.598 6.750 C 82.541 6.521,82.420 6.333,82.330 6.333 C 82.240 6.333,82.167 6.218,82.167 6.078 C 82.167 5.938,82.057 5.781,81.923 5.729 C 81.789 5.678,81.631 5.482,81.571 5.295 C 81.451 4.915,79.883 3.333,79.628 3.333 C 79.538 3.333,79.317 3.146,79.137 2.917 C 78.957 2.687,78.702 2.500,78.571 2.500 C 78.440 2.500,78.333 2.426,78.333 2.337 C 78.333 2.247,78.146 2.126,77.917 2.068 C 77.688 2.011,77.500 1.903,77.500 1.829 C 77.500 1.754,77.275 1.644,77.000 1.583 C 76.725 1.523,76.500 1.423,76.500 1.361 C 76.500 1.203,75.693 0.863,74.999 0.728 C 74.679 0.665,74.363 0.532,74.298 0.432 C 74.132 0.179,66.868 0.179,66.702 0.432 C 66.637 0.532,66.321 0.665,66.001 0.728 C 65.307 0.863,64.500 1.203,64.500 1.361 C 64.500 1.423,64.275 1.523,64.000 1.583 C 63.725 1.644,63.500 1.762,63.500 1.847 C 63.500 1.931,63.393 2.000,63.262 2.000 C 63.131 2.000,62.921 2.103,62.796 2.228 C 62.670 2.353,62.406 2.507,62.209 2.570 C 62.012 2.632,61.804 2.830,61.747 3.009 C 61.691 3.187,61.546 3.333,61.426 3.333 C 61.118 3.333,59.572 4.842,59.434 5.276 C 59.372 5.474,59.211 5.678,59.077 5.729 C 58.943 5.781,58.833 5.921,58.833 6.041 C 58.833 6.161,58.686 6.366,58.506 6.496 C 58.326 6.625,58.133 6.942,58.076 7.199 C 58.020 7.456,57.910 7.667,57.833 7.667 C 57.756 7.667,57.644 7.892,57.583 8.167 L 57.474 8.667 43.195 8.664 C 28.223 8.661,28.593 8.679,28.412 7.957 C 28.349 7.705,28.230 7.500,28.149 7.500 C 28.067 7.500,28.000 7.347,28.000 7.159 C 28.000 6.972,27.813 6.631,27.583 6.402 C 27.354 6.172,27.167 5.919,27.167 5.838 C 27.167 5.757,27.073 5.591,26.958 5.470 C 26.843 5.349,26.562 4.969,26.333 4.626 C 26.104 4.283,25.866 4.002,25.804 4.001 C 25.743 4.001,25.467 3.775,25.192 3.500 C 24.917 3.225,24.645 3.000,24.588 3.000 C 24.531 3.000,24.319 2.823,24.117 2.606 C 23.915 2.390,23.581 2.160,23.375 2.095 C 23.169 2.031,23.000 1.916,23.000 1.840 C 23.000 1.765,22.795 1.651,22.543 1.588 C 22.292 1.525,22.048 1.423,22.002 1.362 C 21.819 1.121,20.847 0.667,20.516 0.667 C 20.324 0.667,20.167 0.603,20.167 0.524 C 20.167 0.064,13.990 -0.170,11.792 0.207 M120.875 1.610 C 120.577 1.653,120.333 1.758,120.333 1.844 C 120.333 1.930,120.151 2.000,119.929 2.000 C 119.706 2.000,119.411 2.112,119.274 2.250 C 119.136 2.387,118.969 2.500,118.901 2.500 C 118.658 2.500,116.875 4.439,116.750 4.840 C 116.679 5.065,116.538 5.304,116.436 5.369 C 116.171 5.539,116.179 10.635,116.445 10.799 C 116.552 10.866,116.692 11.126,116.755 11.377 C 116.818 11.628,116.936 11.833,117.018 11.833 C 117.100 11.833,117.167 11.929,117.167 12.046 C 117.167 12.291,118.580 13.667,118.832 13.667 C 118.924 13.667,119.000 13.740,119.000 13.830 C 119.000 13.920,119.206 14.044,119.458 14.106 C 119.710 14.168,119.970 14.300,120.036 14.401 C 120.202 14.656,125.801 14.653,125.964 14.397 C 126.030 14.295,126.241 14.163,126.433 14.103 C 127.295 13.834,129.333 11.440,129.333 10.697 C 129.333 10.604,129.427 10.497,129.542 10.458 C 129.829 10.363,129.832 6.378,129.545 5.817 C 129.432 5.597,129.264 5.229,129.171 5.000 C 128.673 3.779,126.765 2.000,125.953 2.000 C 125.811 2.000,125.666 1.914,125.631 1.809 C 125.565 1.610,121.933 1.458,120.875 1.610 M338.208 1.610 C 337.910 1.653,337.667 1.758,337.667 1.844 C 337.667 1.930,337.485 2.000,337.262 2.000 C 337.039 2.000,336.745 2.112,336.607 2.250 C 336.470 2.387,336.302 2.500,336.234 2.500 C 335.991 2.500,334.208 4.439,334.083 4.840 C 334.013 5.065,333.871 5.304,333.769 5.369 C 333.504 5.539,333.513 10.635,333.778 10.799 C 333.886 10.866,334.025 11.126,334.088 11.377 C 334.151 11.628,334.270 11.833,334.351 11.833 C 334.433 11.833,334.500 11.934,334.500 12.056 C 334.500 12.313,335.893 13.667,336.157 13.667 C 336.254 13.667,336.333 13.740,336.333 13.830 C 336.333 13.920,336.540 14.044,336.792 14.106 C 337.044 14.168,337.304 14.300,337.369 14.401 C 337.535 14.656,343.134 14.653,343.298 14.397 C 343.363 14.295,343.574 14.163,343.766 14.103 C 344.628 13.834,346.667 11.440,346.667 10.697 C 346.667 10.604,346.760 10.497,346.875 10.458 C 347.154 10.365,347.173 6.045,346.896 5.869 C 346.793 5.804,346.657 5.511,346.594 5.220 C 346.530 4.928,346.371 4.600,346.239 4.491 C 346.108 4.382,346.000 4.227,346.000 4.146 C 346.000 3.697,343.805 2.000,343.225 2.000 C 343.116 2.000,342.999 1.914,342.964 1.809 C 342.898 1.610,339.267 1.458,338.208 1.610 M138.917 5.167 C 138.860 5.258,138.598 5.333,138.333 5.333 C 138.069 5.333,137.812 5.400,137.762 5.481 C 137.711 5.562,137.407 5.678,137.085 5.739 C 136.763 5.799,136.500 5.920,136.500 6.008 C 136.500 6.095,136.373 6.167,136.217 6.167 C 136.062 6.167,135.662 6.356,135.328 6.587 L 134.721 7.007 134.797 9.212 C 134.839 10.425,134.931 11.492,135.001 11.583 C 135.071 11.675,135.183 13.400,135.249 15.417 C 135.315 17.433,135.428 19.158,135.501 19.250 C 135.573 19.342,135.659 20.086,135.692 20.903 C 135.731 21.897,135.820 22.412,135.959 22.459 C 136.073 22.497,136.167 22.602,136.167 22.693 C 136.167 22.982,137.106 23.812,137.562 23.926 C 137.803 23.987,138.000 24.103,138.000 24.185 C 138.000 24.266,138.225 24.333,138.500 24.333 C 138.775 24.333,139.000 24.408,139.000 24.500 C 139.000 24.601,139.750 24.667,140.917 24.667 C 142.083 24.667,142.833 24.601,142.833 24.500 C 142.833 24.408,143.096 24.333,143.417 24.333 C 143.737 24.333,144.000 24.267,144.000 24.185 C 144.000 24.104,144.281 23.984,144.625 23.920 C 145.331 23.787,145.494 23.610,145.497 22.968 C 145.499 22.721,145.567 22.478,145.649 22.428 C 145.731 22.377,145.852 21.641,145.917 20.793 C 145.983 19.944,146.098 19.173,146.174 19.080 C 146.249 18.986,146.364 18.068,146.429 17.038 C 146.494 16.009,146.606 15.167,146.678 15.167 C 146.817 15.167,146.956 13.614,147.098 10.458 C 147.158 9.136,147.129 8.500,147.010 8.500 C 146.913 8.500,146.833 8.275,146.833 8.000 C 146.833 7.725,146.763 7.500,146.678 7.500 C 146.592 7.500,146.472 7.342,146.411 7.149 C 146.280 6.736,145.820 6.167,145.618 6.167 C 145.540 6.167,145.364 6.054,145.226 5.917 C 145.089 5.779,144.794 5.667,144.571 5.667 C 144.349 5.667,144.167 5.592,144.167 5.500 C 144.167 5.408,143.984 5.333,143.760 5.333 C 143.536 5.333,143.307 5.258,143.250 5.167 C 143.113 4.946,139.053 4.946,138.917 5.167 M163.765 16.642 C 163.717 16.721,163.060 16.836,162.306 16.899 C 161.552 16.962,160.856 17.076,160.759 17.152 C 160.662 17.229,160.229 17.343,159.796 17.405 C 159.362 17.468,158.964 17.590,158.911 17.676 C 158.857 17.763,158.631 17.833,158.407 17.833 C 158.183 17.833,158.000 17.908,158.000 18.000 C 158.000 18.092,157.883 18.167,157.741 18.167 C 157.505 18.167,157.056 18.344,155.333 19.120 C 155.012 19.264,154.712 19.428,154.667 19.485 C 154.621 19.541,154.302 19.734,153.958 19.914 C 153.615 20.095,153.333 20.295,153.333 20.360 C 153.333 20.425,153.198 20.520,153.033 20.573 C 152.204 20.836,150.500 23.039,150.500 23.847 C 150.500 24.023,150.425 24.167,150.333 24.167 C 150.224 24.167,150.167 28.500,150.167 36.833 C 150.167 45.167,150.224 49.500,150.333 49.500 C 150.425 49.500,150.500 49.683,150.500 49.907 C 150.500 50.131,150.575 50.360,150.667 50.417 C 150.758 50.473,150.833 50.640,150.833 50.788 C 150.833 50.935,150.945 51.174,151.082 51.319 C 151.219 51.465,151.562 51.827,151.845 52.125 C 152.128 52.423,152.459 52.667,152.582 52.667 C 152.705 52.667,152.832 52.746,152.864 52.843 C 152.897 52.940,153.505 53.064,154.217 53.118 C 154.928 53.172,155.550 53.280,155.598 53.358 C 155.713 53.543,158.833 53.544,158.833 53.359 C 158.833 53.281,159.640 53.168,160.625 53.108 C 161.610 53.048,162.442 52.924,162.472 52.832 C 162.503 52.741,162.634 52.667,162.764 52.667 C 162.966 52.667,163.000 50.828,163.000 40.083 C 163.000 29.009,163.030 27.500,163.250 27.500 C 163.387 27.500,163.500 27.433,163.500 27.351 C 163.500 27.270,163.705 27.151,163.957 27.088 C 164.208 27.025,164.465 26.890,164.528 26.789 C 164.688 26.529,167.973 26.520,168.133 26.779 C 168.199 26.886,168.466 27.027,168.727 27.092 C 168.987 27.158,169.474 27.482,169.808 27.814 L 170.417 28.417 170.521 38.083 C 170.637 48.770,170.823 51.167,171.541 51.167 C 171.610 51.167,171.667 51.271,171.667 51.399 C 171.667 51.723,172.777 52.667,173.159 52.667 C 173.331 52.667,173.500 52.751,173.534 52.853 C 173.569 52.956,174.135 53.078,174.802 53.126 C 175.466 53.173,176.048 53.277,176.097 53.356 C 176.213 53.543,179.119 53.545,179.235 53.358 C 179.283 53.280,180.120 53.165,181.096 53.102 C 183.602 52.940,183.333 54.500,183.333 40.113 L 183.333 27.703 183.750 27.598 C 183.979 27.541,184.167 27.426,184.167 27.343 C 184.167 27.261,184.410 27.140,184.708 27.076 C 185.006 27.011,185.300 26.879,185.361 26.783 C 185.514 26.543,188.646 26.533,188.800 26.772 C 188.864 26.873,189.101 27.013,189.327 27.083 C 189.727 27.208,190.667 28.029,190.667 28.254 C 190.667 28.316,190.777 28.603,190.912 28.891 C 191.117 29.332,191.165 31.073,191.207 39.667 C 191.258 50.076,191.303 50.826,191.875 50.832 C 191.944 50.833,192.000 50.940,192.000 51.071 C 192.000 51.908,193.843 53.001,195.458 53.123 C 196.123 53.174,196.667 53.279,196.667 53.357 C 196.667 53.543,199.620 53.544,199.734 53.359 C 199.782 53.281,200.570 53.172,201.484 53.116 C 202.399 53.061,203.305 52.918,203.498 52.799 L 203.850 52.583 203.800 39.452 C 203.764 29.928,203.698 26.288,203.562 26.202 C 203.458 26.137,203.320 25.690,203.255 25.208 C 203.189 24.727,203.073 24.333,202.998 24.333 C 202.922 24.333,202.810 24.108,202.750 23.833 C 202.690 23.558,202.579 23.333,202.505 23.333 C 202.430 23.333,202.327 23.163,202.275 22.955 C 202.222 22.747,202.027 22.413,201.840 22.212 C 201.653 22.011,201.500 21.775,201.500 21.686 C 201.500 21.437,199.152 19.167,198.895 19.167 C 198.769 19.167,198.667 19.093,198.667 19.003 C 198.667 18.913,198.479 18.793,198.250 18.735 C 198.021 18.678,197.833 18.570,197.833 18.495 C 197.833 18.421,197.608 18.310,197.333 18.250 C 197.058 18.190,196.833 18.084,196.833 18.014 C 196.833 17.797,194.255 17.004,193.187 16.892 C 192.626 16.834,192.167 16.722,192.167 16.643 C 192.167 16.564,190.704 16.500,188.917 16.500 C 187.129 16.500,185.667 16.564,185.667 16.643 C 185.667 16.721,185.128 16.835,184.471 16.897 C 183.813 16.958,183.194 17.065,183.096 17.136 C 182.997 17.206,182.485 17.404,181.958 17.575 C 181.431 17.747,181.000 17.950,181.000 18.027 C 181.000 18.104,180.905 18.167,180.789 18.167 C 180.673 18.167,180.299 18.317,179.956 18.500 C 179.614 18.683,179.228 18.833,179.098 18.833 C 178.968 18.833,178.836 18.890,178.806 18.958 C 178.574 19.479,177.720 19.642,177.295 19.248 C 177.057 19.028,176.669 18.798,176.431 18.739 C 176.194 18.679,176.000 18.570,176.000 18.495 C 176.000 18.421,175.775 18.310,175.500 18.250 C 175.225 18.190,175.000 18.071,175.000 17.987 C 175.000 17.902,174.896 17.833,174.769 17.833 C 174.642 17.833,174.323 17.721,174.061 17.584 C 173.798 17.447,173.377 17.335,173.125 17.334 C 172.873 17.334,172.667 17.264,172.667 17.180 C 172.667 17.096,172.160 16.980,171.542 16.922 C 170.923 16.865,170.286 16.746,170.127 16.659 C 169.768 16.462,163.886 16.446,163.765 16.642 M221.432 16.642 C 221.384 16.720,220.626 16.834,219.747 16.896 C 218.868 16.957,218.022 17.077,217.866 17.162 C 217.711 17.247,217.229 17.362,216.796 17.418 C 216.362 17.474,215.964 17.590,215.911 17.676 C 215.857 17.763,215.668 17.833,215.490 17.833 C 215.312 17.833,215.167 17.905,215.167 17.992 C 215.167 18.080,214.904 18.201,214.583 18.261 C 214.262 18.321,214.000 18.437,214.000 18.519 C 214.000 18.600,213.885 18.667,213.745 18.667 C 213.604 18.667,213.446 18.779,213.394 18.917 C 213.341 19.054,213.197 19.167,213.074 19.167 C 212.951 19.167,212.641 19.448,212.384 19.792 C 212.128 20.135,211.856 20.462,211.779 20.518 C 211.702 20.574,211.597 21.099,211.545 21.685 C 211.493 22.271,211.368 22.804,211.267 22.870 C 211.135 22.956,211.142 23.085,211.292 23.326 C 211.406 23.511,211.500 23.967,211.500 24.340 C 211.500 26.213,213.896 28.946,214.574 27.848 C 214.626 27.764,214.968 27.645,215.333 27.583 C 215.699 27.522,216.035 27.411,216.080 27.338 C 216.126 27.265,216.520 27.152,216.956 27.087 C 217.393 27.022,217.831 26.903,217.929 26.822 C 218.028 26.741,218.649 26.624,219.309 26.563 C 219.970 26.501,220.550 26.387,220.598 26.309 C 220.717 26.118,226.622 26.126,226.740 26.318 C 226.792 26.401,227.209 26.520,227.667 26.583 C 228.125 26.646,228.500 26.758,228.500 26.831 C 228.500 26.904,228.694 27.013,228.931 27.072 C 229.412 27.193,230.167 27.927,230.167 28.274 C 230.167 28.398,230.242 28.500,230.333 28.500 C 230.425 28.500,230.500 28.837,230.500 29.250 L 230.500 30.000 229.427 30.000 C 228.836 30.000,228.307 30.075,228.250 30.167 C 228.193 30.258,227.589 30.333,226.907 30.333 C 226.225 30.333,225.667 30.399,225.667 30.480 C 225.667 30.560,224.579 30.681,223.250 30.747 C 221.921 30.814,220.833 30.924,220.833 30.993 C 220.833 31.062,220.217 31.170,219.464 31.233 C 218.711 31.296,218.054 31.410,218.006 31.487 C 217.957 31.564,217.523 31.680,217.042 31.745 C 216.560 31.811,216.167 31.933,216.167 32.016 C 216.167 32.099,216.009 32.167,215.817 32.167 C 215.486 32.167,214.514 32.621,214.332 32.862 C 214.285 32.923,214.041 33.025,213.790 33.088 C 213.539 33.151,213.333 33.265,213.333 33.340 C 213.333 33.416,213.194 33.522,213.023 33.576 C 212.587 33.715,211.000 35.292,211.000 35.588 C 211.000 35.723,210.930 35.833,210.845 35.833 C 210.759 35.833,210.636 36.002,210.572 36.208 C 210.508 36.415,210.405 36.621,210.344 36.667 C 210.097 36.851,209.667 37.998,209.667 38.470 C 209.667 38.746,209.573 39.003,209.458 39.042 C 209.177 39.136,209.157 44.953,209.438 45.131 C 209.541 45.196,209.679 45.569,209.744 45.958 C 209.809 46.348,209.931 46.667,210.015 46.667 C 210.098 46.667,210.167 46.779,210.167 46.917 C 210.167 47.054,210.232 47.167,210.313 47.167 C 210.393 47.167,210.501 47.373,210.554 47.625 C 210.606 47.877,210.841 48.286,211.075 48.534 C 211.309 48.782,211.500 49.034,211.500 49.093 C 211.500 49.232,212.601 50.333,212.740 50.333 C 212.799 50.333,213.013 50.492,213.215 50.686 C 213.418 50.880,213.814 51.139,214.097 51.260 C 214.379 51.381,214.705 51.596,214.822 51.736 C 214.938 51.876,215.288 52.039,215.600 52.097 C 215.912 52.156,216.167 52.270,216.167 52.350 C 216.167 52.430,216.467 52.544,216.833 52.603 C 217.200 52.661,217.500 52.767,217.500 52.838 C 217.500 52.909,217.950 53.019,218.500 53.083 C 219.050 53.147,219.500 53.259,219.500 53.333 C 219.500 53.614,223.299 53.974,226.250 53.972 C 229.210 53.971,233.333 53.601,233.333 53.337 C 233.333 53.265,233.821 53.153,234.417 53.089 C 235.012 53.026,235.500 52.909,235.500 52.830 C 235.500 52.752,235.838 52.636,236.250 52.575 C 236.662 52.513,237.000 52.396,237.000 52.314 C 237.000 52.233,237.120 52.167,237.266 52.167 C 237.553 52.167,238.696 51.673,238.833 51.489 C 238.879 51.428,239.085 51.326,239.292 51.261 C 239.498 51.197,239.667 51.074,239.667 50.989 C 239.667 50.903,239.750 50.833,239.852 50.833 C 240.042 50.833,240.499 50.462,241.400 49.576 C 242.280 48.711,242.535 48.308,242.624 47.642 C 242.672 47.289,242.776 47.000,242.855 47.000 C 243.045 47.000,243.045 28.214,242.855 28.097 C 242.776 28.048,242.658 27.406,242.594 26.670 C 242.530 25.935,242.407 25.333,242.322 25.333 C 242.237 25.333,242.167 25.208,242.167 25.055 C 242.167 24.644,241.187 22.706,240.730 22.212 C 240.512 21.977,240.333 21.726,240.333 21.655 C 240.333 21.499,239.568 20.740,238.833 20.167 C 238.539 19.938,238.199 19.656,238.078 19.542 C 237.956 19.427,237.786 19.333,237.699 19.333 C 237.612 19.333,237.451 19.226,237.342 19.094 C 237.233 18.962,236.924 18.806,236.655 18.747 C 236.386 18.688,236.167 18.577,236.167 18.500 C 236.167 18.423,235.928 18.307,235.636 18.243 C 235.345 18.179,234.865 17.992,234.571 17.826 C 234.277 17.661,233.671 17.472,233.226 17.406 C 232.781 17.341,232.376 17.224,232.326 17.147 C 232.276 17.070,231.582 16.957,230.784 16.896 C 229.986 16.834,229.333 16.720,229.333 16.642 C 229.333 16.457,221.547 16.456,221.432 16.642 M264.599 16.641 C 264.551 16.719,263.823 16.831,262.981 16.891 C 262.140 16.951,261.368 17.066,261.267 17.146 C 261.166 17.226,260.652 17.344,260.125 17.408 C 259.598 17.472,259.167 17.594,259.167 17.679 C 259.167 17.764,258.942 17.833,258.667 17.833 C 258.392 17.833,258.167 17.908,258.167 18.000 C 258.167 18.092,257.998 18.167,257.792 18.168 C 257.585 18.168,257.215 18.274,256.970 18.402 C 256.724 18.530,256.292 18.686,256.011 18.748 C 255.730 18.809,255.500 18.929,255.500 19.013 C 255.500 19.098,255.365 19.167,255.199 19.167 C 255.034 19.167,254.544 19.392,254.110 19.667 C 253.677 19.942,253.284 20.167,253.237 20.167 C 252.966 20.167,250.833 22.317,250.833 22.591 C 250.833 22.724,250.759 22.833,250.669 22.833 C 250.578 22.833,250.456 23.133,250.397 23.500 C 250.339 23.867,250.225 24.167,250.145 24.167 C 250.064 24.167,250.000 29.737,250.000 36.833 C 250.000 45.167,250.057 49.500,250.167 49.500 C 250.258 49.500,250.333 49.652,250.333 49.839 C 250.333 50.690,251.789 52.667,252.416 52.667 C 252.539 52.667,252.665 52.746,252.698 52.843 C 252.730 52.940,253.339 53.064,254.050 53.118 C 254.762 53.172,255.383 53.280,255.432 53.358 C 255.546 53.543,258.453 53.544,258.567 53.359 C 258.615 53.281,259.464 53.169,260.452 53.108 C 261.441 53.048,262.275 52.924,262.306 52.832 C 262.336 52.741,262.467 52.667,262.597 52.667 C 262.799 52.667,262.833 50.875,262.833 40.424 L 262.833 28.182 263.417 28.072 C 263.737 28.012,264.000 27.902,264.000 27.827 C 264.000 27.752,264.431 27.639,264.958 27.575 C 265.485 27.511,265.995 27.397,266.091 27.321 C 266.186 27.245,266.786 27.132,267.424 27.069 C 268.062 27.006,268.661 26.895,268.755 26.821 C 268.849 26.747,270.068 26.634,271.463 26.569 C 273.779 26.461,274.000 26.424,274.000 26.142 C 274.000 25.972,274.069 25.833,274.153 25.833 C 274.238 25.833,274.359 25.590,274.423 25.292 C 274.486 24.994,274.616 24.654,274.711 24.536 C 274.999 24.179,274.912 20.670,274.601 20.083 C 274.455 19.808,274.335 19.490,274.334 19.375 C 274.334 19.260,274.275 19.167,274.203 19.167 C 274.131 19.167,273.939 18.942,273.777 18.667 C 273.614 18.392,273.373 18.167,273.241 18.167 C 273.108 18.167,273.000 18.103,273.000 18.026 C 273.000 17.949,272.719 17.750,272.375 17.585 C 272.031 17.420,271.610 17.214,271.438 17.128 C 271.266 17.042,270.723 16.930,270.230 16.879 C 269.737 16.828,269.333 16.722,269.333 16.643 C 269.333 16.457,264.714 16.455,264.599 16.641 M367.833 16.643 C 367.833 16.721,367.142 16.838,366.296 16.902 C 365.451 16.965,364.719 17.080,364.671 17.155 C 364.623 17.231,364.190 17.347,363.709 17.412 C 363.227 17.478,362.792 17.599,362.740 17.682 C 362.689 17.765,362.464 17.833,362.240 17.833 C 362.016 17.833,361.833 17.902,361.833 17.985 C 361.833 18.069,361.533 18.188,361.167 18.250 C 360.800 18.312,360.500 18.431,360.500 18.515 C 360.500 18.598,360.421 18.667,360.324 18.667 C 360.111 18.667,358.617 19.334,358.500 19.481 C 358.454 19.539,358.135 19.734,357.792 19.914 C 357.448 20.095,357.167 20.295,357.167 20.360 C 357.167 20.425,357.013 20.526,356.826 20.586 C 356.360 20.734,355.073 22.007,354.928 22.463 C 354.864 22.667,354.742 22.833,354.657 22.833 C 354.573 22.833,354.456 23.133,354.397 23.500 C 354.339 23.867,354.225 24.167,354.145 24.167 C 354.064 24.167,354.000 29.737,354.000 36.833 C 354.000 44.085,354.063 49.500,354.148 49.500 C 354.229 49.500,354.345 49.829,354.405 50.232 C 354.522 51.008,355.876 52.667,356.393 52.667 C 356.528 52.667,356.665 52.746,356.698 52.843 C 356.730 52.940,357.339 53.064,358.050 53.118 C 358.762 53.172,359.383 53.280,359.432 53.358 C 359.546 53.543,362.453 53.544,362.568 53.359 C 362.616 53.281,363.405 53.172,364.322 53.116 C 365.452 53.047,366.125 52.925,366.411 52.738 L 366.833 52.462 366.833 40.049 C 366.833 27.776,366.837 27.634,367.167 27.548 C 367.350 27.500,367.500 27.404,367.500 27.335 C 367.500 27.266,367.815 27.159,368.200 27.097 C 368.585 27.036,369.001 26.902,369.124 26.800 C 369.426 26.549,373.304 26.519,373.465 26.766 C 373.530 26.867,373.791 27.000,374.046 27.062 C 374.926 27.277,375.833 28.614,375.833 29.696 C 375.833 30.036,375.908 30.360,376.000 30.417 C 376.108 30.483,376.167 33.918,376.167 40.177 C 376.167 45.560,376.231 49.833,376.312 49.833 C 376.392 49.833,376.505 50.133,376.564 50.500 C 376.623 50.867,376.745 51.167,376.835 51.167 C 376.926 51.167,377.000 51.273,377.000 51.403 C 377.000 51.690,378.199 52.667,378.552 52.667 C 378.691 52.667,378.834 52.751,378.868 52.853 C 378.902 52.956,379.469 53.078,380.136 53.126 C 380.799 53.173,381.382 53.277,381.431 53.356 C 381.546 53.542,384.667 53.545,384.667 53.359 C 384.667 53.281,385.459 53.169,386.428 53.110 C 387.614 53.037,388.267 52.924,388.428 52.763 C 388.701 52.489,388.796 27.500,388.524 27.500 C 388.445 27.500,388.332 27.031,388.272 26.458 C 388.212 25.885,388.089 25.392,387.998 25.361 C 387.908 25.331,387.831 25.181,387.828 25.028 C 387.825 24.875,387.677 24.450,387.500 24.083 C 387.323 23.717,387.175 23.323,387.172 23.208 C 387.169 23.094,387.092 23.000,387.000 23.000 C 386.908 23.000,386.833 22.921,386.833 22.825 C 386.833 22.729,386.646 22.477,386.417 22.265 C 386.188 22.052,386.000 21.812,385.999 21.731 C 385.998 21.541,385.187 20.703,384.486 20.167 C 384.186 19.938,383.847 19.656,383.733 19.542 C 383.618 19.427,383.453 19.333,383.366 19.333 C 383.279 19.333,383.118 19.226,383.009 19.094 C 382.900 18.962,382.590 18.806,382.322 18.747 C 382.053 18.688,381.833 18.577,381.833 18.500 C 381.833 18.423,381.608 18.310,381.333 18.250 C 381.058 18.190,380.833 18.071,380.833 17.987 C 380.833 17.902,380.652 17.833,380.431 17.833 C 380.209 17.833,380.003 17.759,379.972 17.669 C 379.942 17.579,379.542 17.455,379.083 17.393 C 378.625 17.332,378.207 17.217,378.155 17.138 C 378.103 17.059,377.447 16.947,376.697 16.889 C 375.947 16.831,375.333 16.720,375.333 16.642 C 375.333 16.564,373.646 16.500,371.583 16.500 C 369.521 16.500,367.833 16.564,367.833 16.643 M282.792 16.944 C 282.448 16.986,282.167 17.091,282.167 17.177 C 282.167 17.263,282.002 17.333,281.802 17.333 C 281.311 17.333,279.339 18.324,278.898 18.792 C 278.704 18.998,278.460 19.167,278.356 19.167 C 278.136 19.167,278.097 20.104,278.311 20.236 C 278.391 20.286,278.507 20.775,278.569 21.325 C 278.631 21.874,278.747 22.363,278.825 22.412 C 278.904 22.461,279.022 22.894,279.088 23.375 C 279.153 23.856,279.258 24.287,279.321 24.333 C 279.428 24.412,279.746 25.533,279.947 26.542 C 279.997 26.794,280.097 27.000,280.170 27.000 C 280.243 27.000,280.354 27.375,280.417 27.833 C 280.480 28.292,280.592 28.667,280.667 28.667 C 280.741 28.667,280.854 29.042,280.917 29.500 C 280.980 29.958,281.091 30.333,281.163 30.333 C 281.236 30.333,281.346 30.671,281.408 31.083 C 281.470 31.496,281.591 31.833,281.677 31.833 C 281.763 31.833,281.833 32.021,281.833 32.250 C 281.833 32.479,281.900 32.667,281.981 32.667 C 282.062 32.667,282.179 33.004,282.241 33.417 C 282.303 33.829,282.417 34.167,282.495 34.167 C 282.572 34.167,282.687 34.542,282.750 35.000 C 282.813 35.458,282.928 35.833,283.005 35.833 C 283.083 35.833,283.197 36.171,283.259 36.583 C 283.321 36.996,283.438 37.333,283.519 37.333 C 283.600 37.333,283.667 37.502,283.668 37.708 C 283.668 37.915,283.781 38.298,283.918 38.561 C 284.055 38.823,284.167 39.142,284.167 39.269 C 284.167 39.396,284.237 39.500,284.323 39.500 C 284.409 39.500,284.530 39.837,284.592 40.250 C 284.654 40.662,284.764 41.000,284.838 41.000 C 284.911 41.000,285.021 41.300,285.083 41.667 C 285.145 42.033,285.256 42.333,285.329 42.333 C 285.403 42.333,285.514 42.605,285.576 42.937 C 285.684 43.509,285.963 44.151,286.184 44.333 C 286.240 44.379,286.337 44.698,286.400 45.042 C 286.463 45.385,286.577 45.667,286.653 45.667 C 286.729 45.667,286.839 45.967,286.897 46.333 C 286.956 46.700,287.071 47.000,287.154 47.000 C 287.237 47.000,287.355 47.300,287.417 47.667 C 287.479 48.033,287.598 48.333,287.681 48.333 C 287.765 48.333,287.835 48.427,287.837 48.542 C 287.845 48.988,289.082 51.228,289.665 51.852 C 290.098 52.315,291.476 52.992,292.212 53.105 C 292.599 53.164,292.992 53.269,293.083 53.339 C 293.492 53.650,298.120 53.946,298.388 53.679 C 298.486 53.580,299.002 53.500,299.533 53.500 C 300.065 53.500,300.500 53.435,300.500 53.357 C 300.500 53.278,300.893 53.167,301.374 53.110 C 301.855 53.053,302.273 52.930,302.305 52.836 C 302.336 52.743,302.524 52.666,302.722 52.666 C 303.088 52.664,303.748 52.291,304.192 51.833 C 304.478 51.539,305.500 49.478,305.500 49.195 C 305.500 49.088,305.567 49.000,305.648 49.000 C 305.730 49.000,305.845 48.737,305.906 48.417 C 305.966 48.096,306.078 47.833,306.156 47.833 C 306.233 47.833,306.345 47.571,306.406 47.250 C 306.466 46.929,306.587 46.667,306.674 46.667 C 306.762 46.667,306.833 46.563,306.833 46.436 C 306.833 46.309,306.945 45.990,307.082 45.727 C 307.219 45.465,307.332 45.119,307.332 44.958 C 307.333 44.798,307.407 44.667,307.498 44.667 C 307.589 44.667,307.711 44.367,307.769 44.000 C 307.828 43.633,307.940 43.333,308.019 43.333 C 308.098 43.333,308.211 43.033,308.269 42.667 C 308.328 42.300,308.433 42.000,308.502 42.000 C 308.571 42.000,308.767 41.551,308.939 41.001 C 309.110 40.452,309.305 40.002,309.373 40.001 C 309.441 40.001,309.544 39.700,309.603 39.333 C 309.661 38.967,309.765 38.667,309.833 38.667 C 309.902 38.667,310.005 38.367,310.064 38.000 C 310.123 37.633,310.236 37.333,310.316 37.333 C 310.397 37.333,310.513 36.996,310.575 36.583 C 310.636 36.171,310.757 35.833,310.844 35.833 C 310.930 35.833,311.000 35.646,311.000 35.417 C 311.000 35.188,311.068 35.000,311.152 35.000 C 311.236 35.000,311.355 34.700,311.417 34.334 C 311.478 33.968,311.593 33.629,311.672 33.580 C 311.750 33.532,311.865 33.156,311.926 32.744 C 311.988 32.333,312.100 31.958,312.176 31.911 C 312.252 31.864,312.364 31.490,312.426 31.079 C 312.487 30.669,312.604 30.333,312.686 30.333 C 312.767 30.333,312.833 30.150,312.833 29.927 C 312.833 29.703,312.901 29.478,312.984 29.426 C 313.067 29.375,313.187 28.958,313.250 28.500 C 313.313 28.042,313.427 27.628,313.504 27.581 C 313.581 27.534,313.695 27.083,313.758 26.581 C 313.820 26.078,313.933 25.667,314.008 25.667 C 314.083 25.667,314.196 25.067,314.260 24.333 C 314.324 23.600,314.442 23.000,314.522 23.000 C 314.718 23.000,314.707 21.070,314.509 20.706 C 314.422 20.547,314.307 20.135,314.252 19.792 C 314.197 19.448,314.088 19.167,314.011 19.167 C 313.933 19.167,313.823 18.980,313.766 18.753 C 313.701 18.497,313.503 18.299,313.247 18.234 C 313.020 18.177,312.833 18.075,312.833 18.008 C 312.833 17.895,312.585 17.758,311.266 17.143 C 310.650 16.855,305.552 16.818,305.369 17.099 C 305.304 17.200,304.963 17.327,304.613 17.382 C 303.877 17.499,303.000 17.857,303.000 18.041 C 303.000 18.110,302.859 18.167,302.688 18.167 C 302.361 18.167,302.167 18.733,302.167 19.688 C 302.167 19.951,302.099 20.167,302.017 20.167 C 301.935 20.167,301.815 20.767,301.750 21.500 C 301.685 22.233,301.569 22.833,301.493 22.833 C 301.416 22.833,301.302 23.358,301.239 24.000 C 301.175 24.642,301.066 25.167,300.995 25.167 C 300.925 25.167,300.814 25.692,300.750 26.333 C 300.686 26.975,300.565 27.500,300.483 27.500 C 300.401 27.500,300.333 27.758,300.333 28.073 C 300.333 28.389,300.266 28.689,300.183 28.740 C 300.100 28.791,299.981 29.283,299.917 29.833 C 299.853 30.384,299.742 30.870,299.670 30.915 C 299.598 30.959,299.487 31.484,299.423 32.081 C 299.359 32.678,299.244 33.167,299.167 33.167 C 299.090 33.167,298.974 33.654,298.911 34.250 C 298.847 34.846,298.736 35.333,298.665 35.333 C 298.595 35.333,298.495 35.577,298.444 35.875 C 298.264 36.926,297.915 38.419,297.811 38.583 C 297.753 38.675,297.655 39.087,297.593 39.500 C 297.532 39.912,297.416 40.400,297.336 40.583 C 297.256 40.767,297.143 41.206,297.085 41.559 C 296.923 42.536,296.749 42.144,296.224 39.625 C 296.172 39.373,296.070 39.167,295.997 39.167 C 295.925 39.167,295.814 38.717,295.750 38.167 C 295.686 37.617,295.575 37.167,295.503 37.167 C 295.431 37.167,295.320 36.755,295.258 36.253 C 295.195 35.750,295.082 35.301,295.008 35.255 C 294.933 35.209,294.821 34.759,294.758 34.255 C 294.695 33.751,294.574 33.295,294.488 33.243 C 294.403 33.190,294.333 32.926,294.333 32.657 C 294.333 32.387,294.266 32.167,294.183 32.167 C 294.100 32.167,293.980 31.717,293.917 31.166 C 293.853 30.616,293.740 30.129,293.667 30.083 C 293.593 30.038,293.481 29.550,293.417 29.000 C 293.353 28.450,293.240 28.000,293.167 28.000 C 293.093 28.000,292.980 27.550,292.917 27.000 C 292.853 26.450,292.733 25.958,292.650 25.907 C 292.568 25.855,292.500 25.593,292.500 25.323 C 292.500 25.054,292.432 24.833,292.350 24.833 C 292.267 24.833,292.147 24.383,292.083 23.833 C 292.019 23.283,291.908 22.833,291.836 22.833 C 291.764 22.833,291.654 22.421,291.591 21.917 C 291.528 21.412,291.424 21.000,291.360 21.000 C 291.297 21.000,291.114 20.632,290.955 20.183 C 290.669 19.379,289.400 17.833,289.025 17.833 C 288.920 17.833,288.833 17.762,288.833 17.674 C 288.833 17.587,288.552 17.463,288.208 17.400 C 287.865 17.337,287.535 17.211,287.476 17.120 C 287.363 16.945,283.862 16.814,282.792 16.944 M120.000 17.446 C 119.404 17.485,118.845 17.589,118.758 17.675 C 118.671 17.762,118.277 17.833,117.883 17.833 C 117.489 17.833,117.167 17.908,117.167 18.000 C 117.167 18.092,117.052 18.167,116.912 18.167 C 116.585 18.167,116.609 50.089,116.936 50.298 C 117.038 50.363,117.178 50.597,117.247 50.818 C 117.617 52.002,119.146 52.994,120.797 53.122 C 121.464 53.173,122.050 53.280,122.098 53.358 C 122.213 53.543,124.787 53.544,124.901 53.359 C 124.949 53.281,125.835 53.166,126.869 53.104 C 127.904 53.041,128.775 52.917,128.806 52.828 C 128.836 52.739,128.971 52.667,129.104 52.667 C 129.511 52.667,129.369 21.289,128.959 20.583 C 128.800 20.308,128.668 19.990,128.668 19.875 C 128.667 19.760,128.592 19.667,128.500 19.667 C 128.408 19.667,128.333 19.586,128.333 19.487 C 128.333 19.187,127.404 18.358,126.938 18.240 C 126.697 18.180,126.500 18.064,126.500 17.982 C 126.500 17.900,126.328 17.833,126.117 17.833 C 125.906 17.833,125.659 17.759,125.569 17.669 C 125.385 17.485,121.664 17.336,120.000 17.446 M337.333 17.446 C 336.737 17.485,336.179 17.589,336.092 17.675 C 336.005 17.762,335.611 17.833,335.217 17.833 C 334.822 17.833,334.500 17.908,334.500 18.000 C 334.500 18.092,334.385 18.167,334.245 18.167 C 333.918 18.167,333.942 50.089,334.269 50.298 C 334.371 50.363,334.513 50.604,334.584 50.833 C 334.952 52.016,336.466 52.993,338.130 53.122 C 338.798 53.173,339.383 53.280,339.432 53.358 C 339.546 53.543,342.120 53.544,342.234 53.359 C 342.282 53.281,343.168 53.166,344.202 53.104 C 345.237 53.041,346.108 52.917,346.139 52.828 C 346.169 52.739,346.304 52.667,346.438 52.667 C 346.844 52.667,346.703 21.289,346.293 20.583 C 346.133 20.308,346.002 19.990,346.001 19.875 C 346.000 19.760,345.925 19.667,345.833 19.667 C 345.742 19.667,345.667 19.586,345.667 19.487 C 345.667 19.187,344.738 18.358,344.271 18.240 C 344.030 18.180,343.833 18.064,343.833 17.982 C 343.833 17.900,343.661 17.833,343.450 17.833 C 343.239 17.833,342.993 17.759,342.902 17.669 C 342.718 17.485,338.997 17.336,337.333 17.446 M230.667 41.005 C 230.667 43.398,230.636 43.688,230.375 43.785 C 230.215 43.844,230.042 43.954,229.991 44.029 C 229.939 44.104,229.321 44.214,228.616 44.274 C 227.910 44.333,227.333 44.446,227.333 44.524 C 227.333 44.603,226.733 44.667,226.000 44.667 C 225.267 44.667,224.667 44.601,224.667 44.522 C 224.667 44.442,224.337 44.340,223.934 44.294 C 223.530 44.249,223.074 44.108,222.919 43.981 C 222.181 43.377,221.667 42.799,221.667 42.575 C 221.667 42.440,221.579 42.188,221.472 42.017 C 221.318 41.770,221.335 41.582,221.555 41.119 C 221.708 40.797,221.834 40.469,221.835 40.391 C 221.836 40.208,223.075 39.500,223.394 39.500 C 223.529 39.500,223.665 39.421,223.697 39.325 C 223.729 39.229,224.451 39.105,225.300 39.050 C 226.150 38.995,226.884 38.886,226.932 38.808 C 226.980 38.730,227.728 38.667,228.593 38.667 C 229.531 38.667,230.167 38.599,230.167 38.500 C 230.167 38.408,230.279 38.333,230.417 38.333 C 230.628 38.333,230.667 38.741,230.667 41.005 M320.085 39.612 C 319.720 39.656,319.345 39.752,319.252 39.827 C 319.159 39.901,318.840 40.014,318.542 40.077 C 318.244 40.141,318.000 40.262,318.000 40.347 C 318.000 40.431,317.885 40.500,317.745 40.500 C 317.604 40.500,317.446 40.612,317.394 40.750 C 317.341 40.887,317.220 41.000,317.125 41.000 C 316.822 41.000,315.500 42.576,315.500 42.937 C 315.500 43.048,315.420 43.166,315.323 43.198 C 315.225 43.231,315.103 43.574,315.051 43.962 C 314.999 44.350,314.891 44.667,314.811 44.667 C 314.732 44.667,314.667 45.642,314.667 46.833 C 314.667 48.025,314.732 49.000,314.812 49.000 C 314.892 49.000,315.005 49.300,315.064 49.667 C 315.123 50.033,315.237 50.333,315.317 50.333 C 315.398 50.333,315.515 50.538,315.578 50.788 C 315.726 51.377,317.290 52.941,317.879 53.089 C 318.129 53.151,318.333 53.259,318.333 53.329 C 318.333 53.930,324.265 54.289,324.461 53.700 C 324.498 53.590,324.709 53.500,324.931 53.500 C 325.152 53.500,325.333 53.425,325.333 53.333 C 325.333 53.242,325.432 53.167,325.553 53.167 C 325.674 53.167,326.025 52.942,326.333 52.667 C 326.641 52.392,326.955 52.167,327.030 52.167 C 327.105 52.167,327.167 52.082,327.167 51.977 C 327.167 51.873,327.351 51.617,327.577 51.408 C 327.802 51.199,328.035 50.835,328.095 50.598 C 328.154 50.361,328.264 50.167,328.339 50.167 C 328.415 50.167,328.528 49.754,328.591 49.250 C 328.654 48.746,328.771 48.333,328.853 48.333 C 329.043 48.333,329.046 45.382,328.856 45.264 C 328.777 45.215,328.672 44.879,328.623 44.516 C 328.523 43.772,328.005 42.500,327.801 42.500 C 327.727 42.500,327.667 42.415,327.667 42.311 C 327.667 41.896,325.631 40.246,324.898 40.067 C 324.633 40.002,324.375 39.885,324.324 39.808 C 324.215 39.643,321.053 39.497,320.085 39.612 M248.500 58.314 C 248.500 58.395,248.088 58.513,247.583 58.576 C 247.079 58.639,246.667 58.751,246.667 58.824 C 246.667 58.897,246.367 59.005,246.000 59.064 C 245.633 59.123,245.333 59.239,245.333 59.322 C 245.333 59.405,245.108 59.523,244.833 59.583 C 244.558 59.644,244.333 59.762,244.333 59.847 C 244.333 59.931,244.221 60.000,244.083 60.000 C 243.946 60.000,243.833 60.070,243.833 60.155 C 243.833 60.241,243.665 60.364,243.458 60.429 C 243.252 60.493,242.926 60.715,242.734 60.920 C 242.542 61.126,242.224 61.346,242.026 61.408 C 241.828 61.471,241.667 61.580,241.667 61.650 C 241.667 61.721,241.322 62.147,240.900 62.598 C 239.714 63.866,239.667 63.928,239.667 64.204 C 239.667 64.347,239.554 64.508,239.417 64.560 C 239.279 64.613,239.167 64.771,239.167 64.911 C 239.167 65.052,239.109 65.167,239.039 65.167 C 238.905 65.167,238.333 66.383,238.333 66.668 C 238.333 66.777,220.114 66.833,184.750 66.833 C 150.278 66.833,131.167 66.891,131.167 66.995 C 131.167 67.084,131.368 67.740,131.614 68.453 C 132.243 70.278,132.283 74.069,131.693 76.000 C 131.483 76.688,131.270 77.419,131.220 77.625 L 131.128 78.000 184.746 78.000 C 238.224 78.000,238.365 78.001,238.452 78.333 C 238.500 78.517,238.605 78.667,238.686 78.667 C 238.767 78.667,238.833 78.817,238.833 79.000 C 238.833 79.183,238.908 79.333,239.000 79.333 C 239.092 79.333,239.167 79.448,239.167 79.589 C 239.167 79.729,239.279 79.887,239.417 79.940 C 239.554 79.992,239.667 80.125,239.667 80.234 C 239.667 80.591,241.926 83.167,242.239 83.167 C 242.300 83.167,242.514 83.344,242.716 83.560 C 242.918 83.777,243.252 84.007,243.458 84.071 C 243.665 84.136,243.833 84.253,243.833 84.331 C 243.833 84.410,244.058 84.523,244.333 84.583 C 244.608 84.644,244.833 84.762,244.833 84.847 C 244.833 84.931,244.946 85.000,245.083 85.000 C 245.221 85.000,245.333 85.074,245.333 85.165 C 245.333 85.255,245.633 85.377,246.000 85.436 C 246.367 85.495,246.667 85.597,246.667 85.664 C 246.667 85.910,249.051 86.167,251.333 86.167 C 253.616 86.167,256.000 85.910,256.000 85.664 C 256.000 85.597,256.300 85.495,256.667 85.436 C 257.033 85.377,257.333 85.255,257.333 85.165 C 257.333 85.074,257.446 85.000,257.583 85.000 C 257.721 85.000,257.833 84.931,257.833 84.847 C 257.833 84.762,258.058 84.644,258.333 84.583 C 258.608 84.523,258.833 84.410,258.833 84.331 C 258.833 84.253,259.002 84.136,259.208 84.071 C 259.415 84.007,259.749 83.777,259.950 83.560 C 260.152 83.344,260.367 83.167,260.427 83.167 C 260.741 83.167,263.000 80.591,263.000 80.234 C 263.000 80.125,263.112 79.992,263.250 79.940 C 263.387 79.887,263.500 79.729,263.500 79.589 C 263.500 79.448,263.575 79.333,263.667 79.333 C 263.758 79.333,263.833 79.183,263.833 79.000 C 263.833 78.817,263.900 78.667,263.981 78.667 C 264.062 78.667,264.167 78.517,264.215 78.333 C 264.302 78.001,264.442 78.000,317.717 78.000 C 364.648 78.000,371.142 77.970,371.225 77.754 C 371.277 77.619,371.216 77.259,371.088 76.955 C 370.242 74.928,370.115 70.820,370.822 68.365 C 371.015 67.694,371.130 67.076,371.077 66.990 C 371.017 66.893,350.676 66.833,317.657 66.833 C 282.464 66.833,264.333 66.777,264.333 66.668 C 264.333 66.383,263.761 65.167,263.627 65.167 C 263.557 65.167,263.500 65.052,263.500 64.911 C 263.500 64.771,263.387 64.613,263.250 64.560 C 263.112 64.508,263.000 64.320,263.000 64.144 C 263.000 63.967,262.890 63.781,262.756 63.729 C 262.622 63.678,262.464 63.481,262.404 63.292 C 262.290 62.935,261.550 62.167,261.320 62.167 C 261.248 62.167,261.143 62.021,261.086 61.842 C 261.029 61.663,260.825 61.467,260.632 61.406 C 260.439 61.344,260.124 61.126,259.932 60.920 C 259.740 60.715,259.415 60.493,259.208 60.429 C 259.002 60.364,258.833 60.241,258.833 60.155 C 258.833 60.070,258.721 60.000,258.583 60.000 C 258.446 60.000,258.333 59.931,258.333 59.847 C 258.333 59.762,258.108 59.644,257.833 59.583 C 257.558 59.523,257.333 59.405,257.333 59.322 C 257.333 59.239,257.033 59.123,256.667 59.064 C 256.300 59.005,256.000 58.897,256.000 58.824 C 256.000 58.751,255.588 58.639,255.083 58.576 C 254.579 58.513,254.167 58.395,254.167 58.314 C 254.167 58.233,252.892 58.167,251.333 58.167 C 249.775 58.167,248.500 58.233,248.500 58.314 " stroke="none" fill="#fcfbfb" fill-rule="evenodd"></path><path id="path3" d="M371.190 67.119 C 371.196 67.374,371.031 68.146,370.824 68.833 C 370.283 70.632,370.285 73.879,370.828 75.667 C 371.037 76.354,371.218 77.160,371.229 77.458 C 371.242 77.780,371.338 78.000,371.466 78.000 C 371.697 78.000,371.574 76.831,371.326 76.667 C 371.256 76.621,371.144 76.208,371.077 75.750 C 371.009 75.292,370.887 74.873,370.805 74.820 C 370.609 74.693,370.612 69.804,370.808 69.680 C 370.891 69.627,371.013 69.190,371.079 68.708 C 371.144 68.227,371.266 67.833,371.349 67.833 C 371.551 67.833,371.543 66.880,371.340 66.754 C 371.251 66.699,371.184 66.862,371.190 67.119 " stroke="none" fill="#044cbc" fill-rule="evenodd"></path><path id="path4" d="M105.189 67.028 C 105.177 67.181,105.118 67.443,105.059 67.611 C 104.976 67.847,104.998 67.874,105.156 67.728 C 105.269 67.624,105.328 67.361,105.287 67.144 C 105.246 66.927,105.202 66.875,105.189 67.028 M131.084 67.417 C 132.154 70.499,132.191 75.969,131.149 77.075 C 131.067 77.162,131.003 77.350,131.007 77.492 C 131.011 77.653,131.099 77.593,131.239 77.333 C 132.419 75.158,132.365 68.993,131.151 67.333 C 131.003 67.131,130.990 67.146,131.084 67.417 M104.774 68.292 C 104.574 69.000,104.491 69.741,104.638 69.500 C 104.814 69.212,105.054 68.000,104.935 68.000 C 104.892 68.000,104.819 68.131,104.774 68.292 M104.273 70.607 C 104.136 71.606,104.153 73.401,104.307 74.250 C 104.382 74.661,104.430 73.944,104.431 72.375 C 104.435 69.576,104.426 69.485,104.273 70.607 M104.589 75.583 C 104.648 75.950,104.767 76.362,104.852 76.500 C 104.954 76.664,104.970 76.522,104.899 76.083 C 104.839 75.717,104.721 75.304,104.636 75.167 C 104.534 75.002,104.518 75.145,104.589 75.583 M105.030 77.000 C 105.036 77.462,105.263 78.082,105.366 77.915 C 105.422 77.824,105.369 77.525,105.247 77.250 C 105.126 76.975,105.028 76.862,105.030 77.000 " stroke="none" fill="#ec9c9c" fill-rule="evenodd"></path></g></svg>