<svg id="svg" version="1.1" xmlns="http://www.w3.org/2000/svg" xmlns:xlink="http://www.w3.org/1999/xlink" width="180" height="37" viewBox="0, 0, 400,81.67797655768045"><g id="svgg"><path id="path0" d="M10.833 0.192 C 10.054 0.273,9.392 0.413,9.361 0.503 C 9.331 0.593,9.143 0.669,8.944 0.672 C 8.746 0.675,8.283 0.823,7.917 1.000 C 7.550 1.177,7.156 1.325,7.042 1.328 C 6.927 1.331,6.833 1.403,6.833 1.489 C 6.833 1.574,6.668 1.697,6.466 1.761 C 6.264 1.825,6.011 1.961,5.903 2.064 C 5.796 2.166,5.531 2.362,5.316 2.500 C 4.809 2.824,2.824 4.809,2.500 5.316 C 2.362 5.531,2.166 5.796,2.064 5.903 C 1.961 6.011,1.825 6.264,1.761 6.466 C 1.697 6.668,1.574 6.833,1.489 6.833 C 1.403 6.833,1.331 6.927,1.328 7.042 C 1.325 7.156,1.177 7.550,1.000 7.917 C 0.823 8.283,0.675 8.746,0.672 8.944 C 0.669 9.143,0.596 9.331,0.509 9.361 C -0.031 9.551,-0.040 16.527,0.499 17.065 C 0.591 17.158,0.667 17.335,0.667 17.459 C 0.667 17.704,1.242 19.095,1.511 19.500 C 1.602 19.637,1.720 19.881,1.774 20.042 C 1.828 20.202,1.938 20.333,2.019 20.333 C 2.100 20.333,2.167 20.434,2.167 20.558 C 2.167 20.681,2.317 20.917,2.500 21.083 C 2.683 21.249,2.833 21.447,2.833 21.522 C 2.833 21.843,5.332 24.080,6.061 24.412 C 6.256 24.501,6.454 24.623,6.500 24.682 C 6.546 24.742,6.958 24.953,7.417 25.151 C 7.875 25.349,8.378 25.583,8.534 25.669 C 8.691 25.756,9.141 25.877,9.534 25.939 C 9.928 26.000,10.301 26.128,10.362 26.223 C 10.516 26.458,15.734 26.454,16.029 26.219 C 16.151 26.122,16.606 25.990,17.042 25.927 C 17.477 25.864,17.833 25.748,17.833 25.670 C 17.833 25.591,18.076 25.473,18.373 25.408 C 18.844 25.304,19.585 24.931,19.833 24.671 C 19.879 24.623,20.207 24.436,20.561 24.255 C 20.915 24.074,21.242 23.831,21.287 23.713 C 21.332 23.596,21.444 23.500,21.536 23.500 C 21.719 23.500,23.500 21.771,23.500 21.593 C 23.500 21.533,23.682 21.315,23.905 21.109 C 24.128 20.902,24.361 20.531,24.423 20.283 C 24.485 20.036,24.592 19.833,24.660 19.833 C 24.728 19.833,24.922 19.496,25.092 19.083 L 25.402 18.333 39.174 18.333 L 52.946 18.333 53.333 19.250 C 53.546 19.754,53.784 20.167,53.860 20.167 C 53.937 20.167,54.000 20.266,54.000 20.387 C 54.000 20.852,56.552 23.833,56.950 23.833 C 57.028 23.833,57.221 23.983,57.378 24.167 C 57.535 24.350,57.777 24.500,57.915 24.500 C 58.053 24.500,58.167 24.566,58.167 24.647 C 58.167 24.728,58.298 24.839,58.458 24.892 C 58.619 24.946,58.862 25.065,59.000 25.156 C 59.423 25.437,60.801 26.000,61.064 26.000 C 61.201 26.000,61.357 26.070,61.409 26.155 C 61.462 26.240,61.923 26.362,62.433 26.426 C 62.943 26.490,63.381 26.626,63.407 26.729 C 63.751 28.091,63.878 28.703,63.948 29.333 C 63.994 29.746,64.088 30.121,64.157 30.167 C 64.225 30.212,64.328 30.544,64.385 30.903 C 64.442 31.262,64.585 31.618,64.702 31.692 C 64.875 31.802,64.875 31.829,64.704 31.831 C 64.541 31.833,64.551 31.948,64.746 32.325 C 64.886 32.596,65.002 32.989,65.005 33.200 C 65.008 33.411,65.121 33.729,65.255 33.907 C 65.390 34.085,65.500 34.435,65.500 34.685 C 65.500 34.934,65.577 35.164,65.671 35.196 C 65.764 35.227,65.889 35.552,65.946 35.918 C 66.004 36.284,66.105 36.621,66.171 36.667 C 66.236 36.712,66.481 37.313,66.714 38.000 C 66.947 38.688,67.273 39.512,67.438 39.833 C 67.604 40.154,67.718 40.548,67.692 40.708 C 67.667 40.869,67.719 41.000,67.810 41.000 C 67.900 41.000,68.023 41.225,68.083 41.500 C 68.144 41.775,68.256 42.000,68.333 42.000 C 68.410 42.000,68.523 42.225,68.583 42.500 C 68.644 42.775,68.754 43.000,68.829 43.000 C 68.903 43.000,69.011 43.206,69.068 43.458 C 69.179 43.944,70.666 47.024,70.860 47.168 C 70.922 47.215,71.025 47.459,71.088 47.710 C 71.151 47.961,71.264 48.167,71.338 48.167 C 71.413 48.167,71.523 48.392,71.583 48.667 C 71.644 48.942,71.762 49.167,71.847 49.167 C 71.931 49.167,72.000 49.274,72.000 49.405 C 72.000 49.536,72.103 49.745,72.228 49.871 C 72.353 49.996,72.514 50.283,72.584 50.508 C 72.654 50.733,72.758 50.954,72.816 51.000 C 72.873 51.046,73.125 51.496,73.376 52.001 C 73.627 52.506,74.017 53.118,74.242 53.361 C 74.468 53.605,74.702 53.998,74.761 54.235 C 74.821 54.473,74.930 54.667,75.005 54.667 C 75.079 54.667,75.190 54.892,75.250 55.167 C 75.310 55.442,75.429 55.667,75.513 55.667 C 75.598 55.667,75.669 55.760,75.671 55.875 C 75.674 55.990,75.901 56.304,76.176 56.575 C 76.452 56.845,76.720 57.238,76.773 57.450 C 76.826 57.661,76.936 57.833,77.018 57.833 C 77.100 57.833,77.167 57.946,77.167 58.083 C 77.167 58.221,77.271 58.333,77.399 58.333 C 77.526 58.333,77.682 58.537,77.744 58.785 C 77.806 59.034,78.077 59.447,78.345 59.703 C 78.614 59.960,78.833 60.244,78.833 60.335 C 78.833 60.426,78.908 60.500,79.000 60.500 C 79.092 60.500,79.167 60.612,79.167 60.750 C 79.167 60.887,79.229 61.000,79.305 61.000 C 79.381 61.000,79.550 61.202,79.680 61.448 C 79.810 61.694,80.067 62.060,80.250 62.260 C 80.910 62.981,81.333 63.531,81.333 63.670 C 81.333 63.747,81.483 63.858,81.667 63.917 C 81.850 63.975,82.000 64.092,82.000 64.177 C 82.000 64.395,85.101 67.500,85.319 67.500 C 85.419 67.500,85.501 67.594,85.501 67.708 C 85.502 67.823,85.782 68.104,86.124 68.333 C 86.466 68.563,86.951 68.956,87.201 69.208 C 87.451 69.460,87.733 69.667,87.828 69.667 C 87.922 69.667,88.000 69.742,88.000 69.833 C 88.000 69.925,88.112 70.000,88.250 70.000 C 88.388 70.000,88.500 70.079,88.500 70.175 C 88.500 70.272,88.763 70.460,89.083 70.594 C 89.404 70.728,89.667 70.912,89.667 71.002 C 89.667 71.093,89.738 71.167,89.826 71.167 C 89.914 71.167,90.367 71.392,90.833 71.667 C 91.300 71.942,91.781 72.167,91.904 72.167 C 92.026 72.167,92.219 72.279,92.333 72.417 C 92.447 72.554,92.663 72.669,92.812 72.672 C 92.961 72.675,93.383 72.823,93.750 73.000 C 94.117 73.177,94.483 73.325,94.565 73.328 C 94.647 73.331,94.797 73.437,94.898 73.565 C 95.022 73.719,95.631 73.831,96.729 73.901 C 97.634 73.959,98.435 74.043,98.509 74.089 C 98.583 74.135,98.690 74.098,98.746 74.007 C 98.812 73.900,103.102 73.840,110.827 73.836 L 122.806 73.829 122.916 74.331 C 122.977 74.607,123.090 74.833,123.169 74.833 C 123.247 74.833,123.364 75.002,123.428 75.208 C 123.492 75.415,123.591 75.621,123.648 75.667 C 123.705 75.712,123.956 76.053,124.207 76.423 C 124.777 77.265,125.872 78.411,126.465 78.788 C 126.713 78.946,126.977 79.171,127.050 79.288 C 127.123 79.404,127.292 79.500,127.425 79.500 C 127.558 79.500,127.667 79.567,127.667 79.649 C 127.667 79.730,127.854 79.844,128.083 79.902 C 128.313 79.959,128.500 80.080,128.500 80.170 C 128.500 80.260,128.594 80.336,128.708 80.339 C 128.823 80.342,129.217 80.490,129.583 80.667 C 129.950 80.844,130.412 80.991,130.611 80.994 C 130.810 80.997,130.997 81.076,131.028 81.168 C 131.202 81.689,138.210 81.690,138.731 81.169 C 138.824 81.076,139.002 81.000,139.126 81.000 C 139.371 81.000,140.761 80.425,141.167 80.156 C 141.304 80.065,141.548 79.946,141.708 79.892 C 141.869 79.839,142.000 79.728,142.000 79.647 C 142.000 79.566,142.081 79.500,142.180 79.500 C 142.771 79.500,145.586 76.688,146.079 75.606 C 146.168 75.410,146.288 75.212,146.346 75.167 C 146.403 75.121,146.583 74.802,146.744 74.458 L 147.038 73.833 197.917 73.833 L 248.795 73.833 249.089 74.458 C 249.250 74.802,249.430 75.121,249.488 75.167 C 249.545 75.212,249.665 75.410,249.755 75.606 C 250.094 76.352,252.293 78.833,252.615 78.833 C 252.694 78.833,252.888 78.983,253.045 79.167 C 253.202 79.350,253.443 79.500,253.582 79.500 C 253.720 79.500,253.833 79.566,253.833 79.647 C 253.833 79.728,253.965 79.839,254.125 79.892 C 254.285 79.946,254.529 80.065,254.667 80.156 C 255.087 80.435,256.467 81.000,256.727 81.000 C 256.862 81.000,256.997 81.072,257.028 81.161 C 257.203 81.669,264.497 81.689,264.829 81.182 C 264.877 81.109,265.198 80.996,265.542 80.933 C 265.885 80.870,266.167 80.755,266.167 80.678 C 266.167 80.600,266.429 80.488,266.750 80.428 C 267.071 80.367,267.333 80.252,267.333 80.170 C 267.333 80.089,267.499 79.970,267.701 79.906 C 267.903 79.842,268.156 79.706,268.263 79.603 C 268.371 79.501,268.635 79.304,268.851 79.167 C 269.358 78.843,271.343 76.858,271.667 76.351 C 271.804 76.135,271.992 75.875,272.084 75.771 C 272.175 75.668,272.438 75.192,272.667 74.715 L 273.083 73.846 323.856 73.840 L 374.629 73.833 374.922 74.458 C 375.084 74.802,375.263 75.121,375.321 75.167 C 375.379 75.212,375.499 75.410,375.588 75.606 C 375.915 76.324,378.135 78.829,378.451 78.836 C 378.524 78.838,378.760 79.025,378.975 79.252 C 379.191 79.480,379.435 79.624,379.517 79.573 C 379.599 79.522,379.667 79.551,379.667 79.637 C 379.667 79.724,379.798 79.839,379.958 79.892 C 380.119 79.946,380.363 80.065,380.500 80.156 C 380.905 80.425,382.296 81.000,382.541 81.000 C 382.665 81.000,382.843 81.076,382.935 81.169 C 383.460 81.693,390.455 81.684,390.639 81.159 C 390.669 81.071,390.857 80.997,391.056 80.994 C 391.254 80.991,391.717 80.844,392.083 80.667 C 392.450 80.490,392.844 80.342,392.958 80.339 C 393.073 80.336,393.167 80.263,393.167 80.178 C 393.167 80.092,393.332 79.970,393.534 79.906 C 393.736 79.842,393.989 79.706,394.097 79.603 C 394.204 79.501,394.469 79.304,394.684 79.167 C 395.191 78.843,397.176 76.858,397.500 76.351 C 397.637 76.135,397.834 75.871,397.936 75.763 C 398.039 75.656,398.175 75.403,398.239 75.201 C 398.303 74.999,398.426 74.833,398.511 74.833 C 398.597 74.833,398.669 74.740,398.672 74.625 C 398.675 74.510,398.823 74.117,399.000 73.750 C 399.177 73.383,399.325 72.921,399.328 72.722 C 399.331 72.524,399.404 72.336,399.491 72.306 C 400.031 72.116,400.040 65.140,399.501 64.601 C 399.409 64.509,399.333 64.332,399.333 64.208 C 399.333 63.963,398.758 62.572,398.489 62.167 C 398.398 62.029,398.280 61.785,398.226 61.625 C 398.172 61.465,398.062 61.333,397.981 61.333 C 397.900 61.333,397.833 61.232,397.833 61.109 C 397.833 60.986,397.683 60.749,397.500 60.583 C 397.317 60.417,397.167 60.215,397.167 60.134 C 397.167 59.809,394.683 57.593,393.939 57.255 C 393.744 57.165,393.546 57.047,393.500 56.991 C 393.454 56.935,393.042 56.718,392.583 56.508 C 392.125 56.299,391.622 56.062,391.466 55.983 C 391.309 55.904,390.859 55.789,390.466 55.728 C 390.072 55.666,389.699 55.539,389.638 55.444 C 389.484 55.208,384.266 55.212,383.971 55.448 C 383.849 55.545,383.394 55.676,382.958 55.739 C 382.523 55.802,382.167 55.924,382.167 56.010 C 382.167 56.096,382.056 56.167,381.922 56.167 C 381.665 56.167,380.310 56.818,380.167 57.010 C 380.121 57.072,379.896 57.180,379.667 57.251 C 379.438 57.322,379.085 57.557,378.883 57.773 C 378.681 57.990,378.467 58.167,378.407 58.167 C 378.229 58.167,376.500 59.948,376.500 60.131 C 376.500 60.223,376.404 60.335,376.287 60.380 C 376.169 60.425,375.926 60.749,375.745 61.101 C 375.564 61.453,375.357 61.818,375.284 61.912 C 375.211 62.006,375.014 62.346,374.847 62.667 L 374.544 63.250 323.851 63.292 L 273.159 63.334 272.996 62.875 C 272.907 62.623,272.756 62.304,272.662 62.167 C 272.568 62.029,272.446 61.785,272.392 61.625 C 272.339 61.465,272.228 61.333,272.147 61.333 C 272.066 61.333,272.000 61.252,272.000 61.153 C 272.000 60.780,270.037 58.596,269.167 58.000 C 268.967 57.862,268.648 57.619,268.459 57.458 C 268.270 57.298,268.015 57.167,267.891 57.167 C 267.768 57.167,267.667 57.109,267.667 57.039 C 267.667 56.969,267.273 56.737,266.792 56.523 C 266.310 56.309,265.789 56.068,265.632 55.987 C 265.476 55.906,265.026 55.789,264.632 55.728 C 264.239 55.666,263.866 55.538,263.803 55.442 C 263.651 55.208,258.178 55.215,258.027 55.449 C 257.966 55.543,257.560 55.673,257.125 55.737 C 256.690 55.801,256.333 55.924,256.333 56.010 C 256.333 56.096,256.198 56.167,256.032 56.167 C 255.866 56.167,255.585 56.277,255.407 56.411 C 255.229 56.546,254.950 56.658,254.786 56.661 C 254.623 56.664,254.449 56.772,254.399 56.902 C 254.350 57.031,254.112 57.186,253.871 57.246 C 253.631 57.307,253.265 57.539,253.058 57.762 C 252.852 57.984,252.618 58.167,252.540 58.167 C 252.377 58.167,250.667 59.907,250.667 60.073 C 250.667 60.133,250.484 60.352,250.262 60.558 C 250.039 60.765,249.807 61.131,249.746 61.371 C 249.686 61.612,249.531 61.850,249.402 61.899 C 249.272 61.949,249.167 62.142,249.167 62.328 C 249.167 62.514,249.100 62.667,249.019 62.667 C 248.938 62.667,248.833 62.817,248.785 63.000 C 248.698 63.332,248.558 63.333,197.883 63.333 L 147.068 63.333 146.759 62.583 C 146.589 62.171,146.394 61.833,146.326 61.833 C 146.258 61.833,146.159 61.659,146.105 61.445 C 146.052 61.232,145.819 60.853,145.587 60.603 C 145.356 60.354,145.167 60.108,145.167 60.057 C 145.167 59.891,143.375 58.167,143.203 58.167 C 143.111 58.167,142.999 58.071,142.954 57.953 C 142.909 57.836,142.583 57.592,142.230 57.412 C 141.877 57.231,141.488 56.990,141.366 56.875 C 141.243 56.760,141.036 56.667,140.905 56.667 C 140.774 56.667,140.667 56.595,140.667 56.508 C 140.667 56.420,140.404 56.299,140.083 56.239 C 139.762 56.179,139.500 56.068,139.500 55.992 C 139.500 55.916,139.144 55.802,138.708 55.739 C 138.273 55.676,137.817 55.545,137.696 55.448 C 137.399 55.211,132.269 55.210,131.971 55.447 C 131.849 55.544,131.460 55.676,131.104 55.740 C 130.749 55.804,130.337 55.917,130.188 55.992 C 130.039 56.066,129.542 56.299,129.083 56.508 C 128.625 56.718,128.212 56.935,128.167 56.991 C 128.121 57.047,127.923 57.165,127.727 57.255 C 127.054 57.561,124.500 59.799,124.500 60.083 C 124.500 60.137,124.350 60.342,124.167 60.538 C 123.983 60.735,123.833 60.995,123.833 61.115 C 123.833 61.235,123.767 61.333,123.686 61.333 C 123.605 61.333,123.495 61.465,123.441 61.625 C 123.387 61.785,123.266 62.029,123.171 62.167 C 123.077 62.304,122.927 62.623,122.837 62.875 L 122.675 63.333 109.977 63.333 C 96.967 63.333,95.862 63.283,95.333 62.661 C 95.157 62.454,93.077 61.256,92.958 61.294 C 92.890 61.315,92.833 61.261,92.833 61.174 C 92.833 60.942,91.586 59.667,91.359 59.667 C 91.253 59.667,91.167 59.592,91.167 59.500 C 91.167 59.331,90.950 59.055,90.125 58.169 C 89.873 57.899,89.667 57.638,89.667 57.589 C 89.667 57.489,89.436 57.206,88.587 56.266 C 88.264 55.908,88.000 55.515,88.000 55.391 C 88.000 55.268,87.925 55.167,87.833 55.167 C 87.742 55.167,87.667 55.071,87.667 54.954 C 87.667 54.837,87.517 54.612,87.333 54.455 C 87.150 54.298,87.000 54.057,87.000 53.918 C 87.000 53.780,86.925 53.667,86.833 53.667 C 86.742 53.667,86.667 53.554,86.667 53.417 C 86.667 53.280,86.422 52.886,86.124 52.542 C 85.825 52.198,85.319 51.392,85.000 50.750 C 84.680 50.108,84.062 49.064,83.626 48.429 C 83.190 47.794,82.833 47.175,82.833 47.054 C 82.833 46.932,82.764 46.833,82.680 46.833 C 82.596 46.833,82.477 46.608,82.417 46.333 C 82.356 46.058,82.239 45.833,82.157 45.833 C 82.074 45.833,81.959 45.646,81.902 45.417 C 81.844 45.187,81.736 45.000,81.662 45.000 C 81.587 45.000,81.477 44.775,81.417 44.500 C 81.356 44.225,81.244 44.000,81.167 44.000 C 81.090 44.000,80.977 43.775,80.917 43.500 C 80.856 43.225,80.744 43.000,80.667 43.000 C 80.590 43.000,80.477 42.775,80.417 42.500 C 80.356 42.225,80.246 42.000,80.171 42.000 C 80.097 42.000,79.989 41.812,79.932 41.583 C 79.874 41.354,79.759 41.167,79.677 41.167 C 79.594 41.167,79.478 40.923,79.418 40.625 C 79.359 40.327,78.760 38.958,78.087 37.583 C 77.414 36.208,76.813 34.840,76.752 34.542 C 76.690 34.244,76.571 34.000,76.487 34.000 C 76.402 34.000,76.333 33.893,76.333 33.762 C 76.333 33.631,76.213 33.404,76.067 33.257 C 75.920 33.111,75.760 32.693,75.712 32.329 C 75.663 31.965,75.564 31.667,75.491 31.667 C 75.419 31.667,75.310 31.442,75.250 31.167 C 75.190 30.892,75.081 30.667,75.009 30.667 C 74.936 30.667,74.836 30.356,74.785 29.976 C 74.734 29.596,74.622 29.240,74.537 29.184 C 74.451 29.129,74.330 28.802,74.266 28.458 C 74.203 28.115,74.061 27.832,73.951 27.831 C 73.826 27.829,73.845 27.766,74.000 27.664 C 74.196 27.535,74.205 27.471,74.039 27.364 C 73.923 27.288,73.785 26.820,73.732 26.322 C 73.679 25.824,73.568 25.392,73.485 25.361 C 73.263 25.280,73.296 23.833,73.520 23.833 C 73.678 23.833,75.379 22.160,75.923 21.470 C 76.311 20.977,77.333 19.193,77.333 19.008 C 77.333 18.318,76.581 18.340,102.180 18.294 C 121.501 18.259,126.570 18.207,126.625 18.042 C 126.663 17.927,126.795 17.833,126.918 17.833 C 127.215 17.833,128.167 16.871,128.167 16.571 C 128.167 16.440,128.238 16.333,128.326 16.333 C 128.413 16.333,128.531 16.052,128.588 15.708 C 128.644 15.365,128.767 14.926,128.859 14.735 C 129.191 14.049,128.788 10.756,128.245 9.715 C 128.111 9.459,128.002 9.156,128.001 9.042 C 128.000 8.927,127.925 8.833,127.833 8.833 C 127.742 8.833,127.667 8.721,127.667 8.583 C 127.667 8.362,124.768 8.333,102.579 8.333 L 77.492 8.333 77.329 7.875 C 77.240 7.623,77.090 7.304,76.995 7.167 C 76.901 7.029,76.780 6.785,76.726 6.625 C 76.672 6.465,76.562 6.333,76.481 6.333 C 76.400 6.333,76.333 6.237,76.333 6.119 C 76.333 5.741,74.004 3.167,73.661 3.167 C 73.579 3.167,73.281 2.942,73.000 2.667 C 72.719 2.392,72.379 2.167,72.244 2.167 C 72.110 2.167,72.000 2.109,72.000 2.039 C 72.000 1.969,71.606 1.737,71.125 1.523 C 70.644 1.309,70.122 1.068,69.966 0.987 C 69.809 0.906,69.359 0.789,68.966 0.728 C 68.572 0.666,68.200 0.540,68.140 0.447 C 67.990 0.217,62.509 0.219,62.360 0.449 C 62.300 0.543,61.894 0.673,61.458 0.737 C 61.023 0.801,60.667 0.924,60.667 1.010 C 60.667 1.096,60.564 1.167,60.438 1.167 C 60.092 1.167,58.667 1.829,58.667 1.990 C 58.667 2.067,58.464 2.181,58.217 2.243 C 57.969 2.306,57.598 2.539,57.391 2.762 C 57.185 2.984,56.947 3.167,56.862 3.167 C 56.431 3.167,54.251 5.688,54.075 6.391 C 54.014 6.634,53.899 6.833,53.819 6.833 C 53.740 6.833,53.521 7.171,53.333 7.583 L 52.992 8.333 39.273 8.333 L 25.554 8.333 25.167 7.417 C 24.954 6.912,24.724 6.500,24.658 6.500 C 24.591 6.500,24.491 6.331,24.435 6.125 C 24.286 5.571,21.873 2.833,21.533 2.833 C 21.464 2.833,21.279 2.683,21.122 2.500 C 20.965 2.317,20.723 2.167,20.585 2.167 C 20.447 2.167,20.333 2.100,20.333 2.019 C 20.333 1.938,20.202 1.828,20.042 1.774 C 19.881 1.720,19.637 1.602,19.500 1.511 C 19.080 1.232,17.700 0.667,17.440 0.667 C 17.305 0.667,17.169 0.595,17.139 0.507 C 17.082 0.343,13.882 -0.017,12.833 0.022 C 12.512 0.034,11.612 0.111,10.833 0.192 M16.167 1.477 C 16.579 1.588,17.153 1.788,17.442 1.923 C 17.731 2.057,18.009 2.167,18.061 2.167 C 18.462 2.167,20.827 3.880,21.689 4.794 C 26.945 10.373,25.829 19.341,19.391 23.249 C 18.711 23.662,18.113 24.000,18.061 24.000 C 18.009 24.000,17.731 24.110,17.442 24.244 C 15.230 25.272,10.973 25.161,8.415 24.009 C 5.237 22.577,3.396 20.482,1.815 16.500 C 1.490 15.680,1.490 10.486,1.815 9.667 C 3.599 5.174,6.645 2.196,10.090 1.576 C 10.453 1.511,10.862 1.392,11.000 1.312 C 11.350 1.109,15.259 1.234,16.167 1.477 M137.833 1.479 C 137.833 1.558,137.458 1.673,137.000 1.734 C 136.542 1.795,136.167 1.912,136.167 1.995 C 136.167 2.077,136.006 2.195,135.809 2.258 C 134.978 2.521,133.167 4.723,133.167 5.468 C 133.167 5.658,133.092 5.860,133.000 5.917 C 132.793 6.044,132.775 9.500,132.981 9.500 C 133.063 9.500,133.179 9.762,133.239 10.083 C 133.299 10.404,133.412 10.667,133.489 10.667 C 133.567 10.667,133.675 10.846,133.730 11.064 C 133.957 11.967,136.127 13.667,137.053 13.667 C 137.207 13.667,137.333 13.742,137.333 13.833 C 137.333 13.935,138.108 14.000,139.323 14.000 C 140.470 14.000,141.357 13.929,141.417 13.833 C 141.473 13.742,141.648 13.667,141.804 13.667 C 142.615 13.667,144.883 11.774,145.098 10.918 C 145.156 10.688,145.266 10.500,145.344 10.500 C 145.421 10.500,145.530 10.219,145.585 9.875 C 145.640 9.531,145.756 9.120,145.842 8.961 C 146.040 8.597,146.051 6.500,145.855 6.500 C 145.775 6.500,145.660 6.125,145.599 5.667 C 145.538 5.208,145.416 4.833,145.328 4.833 C 145.239 4.833,145.167 4.736,145.167 4.617 C 145.167 4.172,143.516 2.412,142.926 2.228 C 142.737 2.170,142.538 2.051,142.482 1.965 C 142.427 1.879,142.071 1.766,141.691 1.715 C 141.311 1.664,141.000 1.558,141.000 1.478 C 141.000 1.398,140.287 1.333,139.417 1.333 C 138.546 1.333,137.833 1.399,137.833 1.479 M343.667 1.479 C 343.667 1.558,343.300 1.672,342.851 1.732 C 342.402 1.791,341.943 1.951,341.831 2.087 C 341.718 2.222,341.541 2.334,341.438 2.336 C 341.273 2.338,339.974 3.630,339.364 4.400 C 339.243 4.552,339.102 4.939,339.050 5.259 C 338.998 5.579,338.890 5.882,338.811 5.931 C 338.620 6.049,338.624 9.500,338.815 9.500 C 338.896 9.500,339.012 9.762,339.072 10.083 C 339.133 10.404,339.245 10.667,339.323 10.667 C 339.400 10.667,339.515 10.869,339.577 11.117 C 339.805 12.026,341.872 13.667,342.789 13.667 C 342.997 13.667,343.167 13.742,343.167 13.833 C 343.167 14.043,347.109 14.061,347.238 13.852 C 347.289 13.771,347.593 13.655,347.915 13.595 C 348.237 13.534,348.500 13.413,348.500 13.326 C 348.500 13.238,348.608 13.167,348.739 13.167 C 349.071 13.167,350.770 11.464,350.921 10.980 C 350.989 10.762,351.109 10.542,351.188 10.491 C 351.550 10.257,351.986 6.975,351.703 6.619 C 351.614 6.508,351.490 6.060,351.427 5.625 C 351.364 5.190,351.243 4.833,351.156 4.833 C 351.070 4.833,351.000 4.736,351.000 4.617 C 351.000 4.172,349.349 2.412,348.759 2.228 C 348.571 2.170,348.371 2.051,348.316 1.965 C 348.260 1.879,347.904 1.766,347.524 1.715 C 347.144 1.664,346.833 1.558,346.833 1.478 C 346.833 1.398,346.121 1.333,345.250 1.333 C 344.379 1.333,343.667 1.399,343.667 1.479 M68.583 1.786 C 68.767 1.887,69.268 2.094,69.697 2.245 C 76.599 4.670,79.247 14.053,74.825 20.417 C 73.745 21.971,71.363 23.833,69.697 24.425 C 69.268 24.577,68.737 24.788,68.517 24.893 C 67.804 25.233,62.931 25.141,61.750 24.765 C 50.661 21.234,50.838 5.037,62.000 1.841 C 62.413 1.723,62.825 1.599,62.917 1.566 C 63.313 1.424,68.277 1.616,68.583 1.786 M154.000 4.947 C 153.771 4.994,153.508 5.091,153.417 5.163 C 153.325 5.236,153.006 5.347,152.708 5.411 C 152.410 5.474,152.167 5.587,152.167 5.662 C 152.167 5.736,151.998 5.840,151.792 5.892 C 151.065 6.076,150.266 6.895,150.457 7.258 C 150.552 7.437,150.683 9.121,150.749 11.000 C 150.816 12.879,150.927 14.492,150.996 14.583 C 151.065 14.675,151.173 16.059,151.235 17.659 C 151.298 19.259,151.411 20.646,151.487 20.742 C 151.563 20.838,151.681 21.097,151.749 21.318 C 151.893 21.785,152.614 22.500,152.941 22.500 C 153.065 22.500,153.167 22.574,153.167 22.665 C 153.167 22.755,153.468 22.878,153.837 22.937 C 154.206 22.996,154.548 23.109,154.597 23.189 C 154.714 23.378,158.333 23.378,158.333 23.188 C 158.333 23.108,158.708 22.993,159.167 22.932 C 159.625 22.872,160.000 22.758,160.000 22.679 C 160.000 22.600,160.182 22.491,160.403 22.435 C 160.766 22.344,160.818 22.219,160.913 21.208 C 160.971 20.590,161.085 19.921,161.166 19.722 C 161.247 19.523,161.365 18.698,161.429 17.889 C 161.492 17.079,161.601 16.342,161.670 16.250 C 161.876 15.980,162.220 10.272,162.124 8.734 C 162.032 7.255,161.537 6.130,160.867 5.876 C 160.711 5.817,160.484 5.671,160.363 5.551 C 160.242 5.431,160.004 5.333,159.835 5.333 C 159.666 5.333,159.497 5.240,159.459 5.127 C 159.388 4.914,154.887 4.765,154.000 4.947 M177.333 15.846 C 176.921 15.921,176.096 16.068,175.500 16.174 C 174.904 16.280,174.342 16.425,174.250 16.498 C 174.158 16.570,173.765 16.682,173.375 16.746 C 172.985 16.810,172.667 16.921,172.667 16.993 C 172.667 17.065,172.367 17.172,172.000 17.231 C 171.633 17.289,171.333 17.411,171.333 17.502 C 171.333 17.593,171.248 17.667,171.143 17.667 C 170.890 17.667,169.432 18.383,169.361 18.542 C 169.331 18.610,169.209 18.667,169.092 18.667 C 168.975 18.667,168.625 18.890,168.314 19.164 C 168.004 19.438,167.700 19.663,167.638 19.664 C 167.418 19.669,166.000 21.198,166.000 21.430 C 166.000 21.560,165.928 21.667,165.841 21.667 C 165.753 21.667,165.633 21.929,165.572 22.250 C 165.512 22.571,165.396 22.833,165.315 22.833 C 165.230 22.833,165.167 27.981,165.167 34.917 C 165.167 42.085,165.229 47.000,165.319 47.000 C 165.402 47.000,165.519 47.288,165.579 47.641 C 165.721 48.484,167.097 49.964,167.875 50.111 C 168.173 50.167,168.522 50.297,168.651 50.398 C 168.987 50.664,175.373 50.631,175.462 50.363 C 175.498 50.255,175.789 50.167,176.108 50.167 C 177.446 50.167,177.333 51.290,177.337 37.952 L 177.340 26.083 178.163 25.708 C 178.616 25.502,179.172 25.333,179.400 25.333 C 179.627 25.333,179.860 25.258,179.917 25.167 C 179.973 25.075,180.273 25.000,180.583 25.000 C 180.893 25.000,181.193 25.075,181.250 25.167 C 181.307 25.258,181.518 25.333,181.721 25.333 C 182.154 25.333,183.201 25.868,183.652 26.319 C 184.486 27.153,184.481 27.095,184.534 37.350 C 184.569 44.193,184.638 47.016,184.772 47.183 C 184.876 47.311,185.014 47.660,185.077 47.958 C 185.141 48.256,185.262 48.500,185.347 48.500 C 185.431 48.500,185.501 48.594,185.503 48.708 C 185.506 48.962,186.226 49.667,186.482 49.667 C 186.583 49.667,186.667 49.738,186.667 49.826 C 186.667 49.913,186.948 50.037,187.292 50.100 C 187.635 50.163,187.970 50.298,188.036 50.399 C 188.201 50.655,194.649 50.632,194.808 50.374 C 194.871 50.273,195.258 50.166,195.669 50.136 L 196.417 50.083 196.459 38.234 L 196.502 26.385 197.126 26.067 C 197.469 25.893,197.774 25.696,197.804 25.629 C 197.834 25.563,198.228 25.459,198.679 25.399 C 199.131 25.339,199.500 25.225,199.500 25.145 C 199.500 24.943,200.624 24.962,200.750 25.167 C 200.807 25.258,201.018 25.333,201.221 25.333 C 201.841 25.333,203.500 26.377,203.500 26.766 C 203.500 26.821,203.610 27.103,203.745 27.391 C 203.951 27.831,203.998 29.492,204.037 37.600 C 204.070 44.473,204.138 47.350,204.271 47.516 C 204.375 47.645,204.515 47.932,204.584 48.154 C 204.726 48.619,205.690 49.667,205.975 49.667 C 206.080 49.667,206.167 49.736,206.167 49.820 C 206.167 49.904,206.410 50.026,206.708 50.089 C 207.006 50.153,207.355 50.290,207.484 50.394 C 207.818 50.664,214.205 50.634,214.296 50.363 C 214.332 50.255,214.636 50.166,214.972 50.164 C 215.308 50.163,215.681 50.099,215.801 50.023 C 216.091 49.839,216.025 25.058,215.734 24.869 C 215.634 24.803,215.507 24.466,215.452 24.119 C 215.339 23.402,214.830 22.167,214.648 22.167 C 214.581 22.167,214.477 21.942,214.417 21.667 C 214.356 21.392,214.243 21.167,214.165 21.167 C 214.086 21.167,213.975 21.016,213.916 20.832 C 213.712 20.188,210.996 17.667,210.507 17.667 C 210.411 17.667,210.333 17.600,210.333 17.518 C 210.333 17.436,210.128 17.318,209.877 17.255 C 209.626 17.192,209.382 17.090,209.335 17.028 C 209.190 16.837,207.106 16.167,206.658 16.167 C 206.425 16.167,206.142 16.075,206.030 15.964 C 205.762 15.695,199.765 15.573,198.500 15.811 C 196.522 16.183,195.829 16.355,195.382 16.589 C 195.126 16.722,194.785 16.832,194.625 16.832 C 194.465 16.833,194.333 16.902,194.333 16.987 C 194.333 17.071,194.108 17.190,193.833 17.250 C 193.558 17.310,193.333 17.421,193.333 17.495 C 193.333 17.570,193.128 17.682,192.877 17.745 C 192.626 17.808,192.382 17.910,192.335 17.972 C 191.945 18.483,191.238 18.597,190.832 18.214 C 190.603 17.998,190.248 17.779,190.042 17.726 C 189.835 17.674,189.667 17.564,189.667 17.482 C 189.667 17.400,189.573 17.331,189.458 17.328 C 189.344 17.325,188.950 17.177,188.583 17.000 C 188.217 16.823,187.798 16.675,187.653 16.672 C 187.508 16.669,187.337 16.614,187.273 16.551 C 187.209 16.487,187.065 16.413,186.954 16.387 C 186.842 16.361,186.412 16.259,186.000 16.161 C 185.588 16.062,184.912 15.915,184.500 15.834 C 183.576 15.652,178.360 15.661,177.333 15.846 M232.667 15.792 C 232.667 15.860,232.273 15.928,231.792 15.941 C 230.649 15.972,228.483 16.308,228.259 16.488 C 228.162 16.565,227.765 16.682,227.375 16.746 C 226.985 16.810,226.667 16.925,226.667 17.001 C 226.667 17.078,226.442 17.190,226.167 17.250 C 225.892 17.310,225.667 17.429,225.667 17.513 C 225.667 17.598,225.552 17.667,225.411 17.667 C 225.271 17.667,225.116 17.772,225.066 17.902 C 225.016 18.031,224.795 18.182,224.574 18.237 C 224.334 18.298,224.131 18.501,224.071 18.740 C 224.015 18.962,223.864 19.183,223.735 19.233 C 223.606 19.282,223.500 19.460,223.500 19.628 C 223.500 19.796,223.418 20.016,223.317 20.116 C 223.090 20.343,223.075 23.672,223.300 23.816 C 223.387 23.871,223.511 24.160,223.576 24.458 C 223.640 24.756,223.757 25.000,223.835 25.000 C 223.914 25.000,224.029 25.162,224.092 25.359 C 224.402 26.336,225.564 26.769,226.528 26.266 C 226.773 26.138,227.279 25.982,227.653 25.919 C 228.027 25.856,228.333 25.744,228.333 25.671 C 228.333 25.598,228.765 25.485,229.292 25.420 C 229.819 25.355,230.355 25.215,230.484 25.109 C 230.841 24.815,237.960 24.845,238.599 25.143 C 239.945 25.770,240.219 25.927,240.622 26.301 C 240.958 26.612,241.076 26.907,241.131 27.577 L 241.204 28.448 239.643 28.568 C 238.785 28.634,237.821 28.719,237.500 28.756 C 236.530 28.870,233.622 29.152,233.000 29.192 C 232.679 29.213,232.304 29.287,232.167 29.357 C 232.029 29.427,231.335 29.532,230.625 29.590 C 229.915 29.648,229.333 29.754,229.333 29.826 C 229.333 29.898,228.958 30.007,228.500 30.068 C 228.042 30.128,227.667 30.251,227.667 30.339 C 227.667 30.428,227.485 30.500,227.262 30.500 C 227.039 30.500,226.745 30.613,226.607 30.750 C 226.470 30.887,226.245 31.000,226.107 31.000 C 225.970 31.000,225.755 31.103,225.629 31.228 C 225.504 31.353,225.236 31.508,225.034 31.573 C 224.832 31.637,224.667 31.759,224.667 31.845 C 224.667 31.930,224.583 32.000,224.480 32.000 C 223.770 32.000,221.500 35.326,221.500 36.367 C 221.500 36.587,221.406 36.860,221.292 36.975 C 221.009 37.257,220.996 42.625,221.278 42.799 C 221.383 42.864,221.525 43.217,221.592 43.584 C 221.660 43.950,221.760 44.288,221.816 44.333 C 221.871 44.379,222.063 44.704,222.241 45.054 C 222.420 45.405,222.699 45.855,222.862 46.054 C 223.670 47.045,224.262 47.667,224.396 47.667 C 224.478 47.667,224.704 47.835,224.898 48.042 C 225.260 48.427,227.598 49.667,227.963 49.667 C 228.075 49.667,228.167 49.739,228.167 49.828 C 228.167 49.916,228.542 50.038,229.000 50.099 C 229.458 50.160,229.833 50.269,229.833 50.342 C 229.833 50.414,230.340 50.527,230.958 50.592 C 231.577 50.658,232.137 50.795,232.202 50.897 C 232.370 51.160,242.022 51.158,242.349 50.895 C 242.478 50.792,243.089 50.655,243.707 50.590 C 244.324 50.526,244.868 50.412,244.915 50.336 C 244.962 50.260,245.375 50.146,245.834 50.083 C 246.292 50.020,246.667 49.901,246.667 49.818 C 246.667 49.735,246.787 49.667,246.933 49.667 C 247.409 49.667,249.833 48.520,249.833 48.295 C 249.833 48.224,249.932 48.167,250.053 48.167 C 250.424 48.167,252.279 46.291,252.607 45.583 C 252.981 44.779,253.099 25.271,252.731 25.036 C 252.630 24.970,252.494 24.560,252.430 24.125 C 252.365 23.690,252.248 23.333,252.170 23.333 C 252.091 23.333,251.977 23.108,251.917 22.833 C 251.856 22.558,251.746 22.333,251.671 22.333 C 251.597 22.333,251.489 22.144,251.430 21.912 C 251.372 21.681,251.196 21.347,251.037 21.169 C 250.879 20.992,250.487 20.511,250.167 20.100 C 249.846 19.689,249.471 19.311,249.333 19.261 C 249.196 19.211,248.892 19.001,248.658 18.794 C 247.880 18.104,246.148 17.167,245.653 17.167 C 245.477 17.167,245.333 17.095,245.333 17.008 C 245.333 16.920,245.052 16.798,244.708 16.736 C 244.365 16.674,244.008 16.565,243.917 16.495 C 243.825 16.424,243.262 16.280,242.667 16.176 C 242.071 16.071,241.208 15.919,240.750 15.838 C 239.730 15.658,232.667 15.618,232.667 15.792 M272.750 15.830 C 272.292 15.905,271.354 16.058,270.667 16.170 C 269.979 16.282,269.345 16.440,269.258 16.520 C 269.171 16.601,268.978 16.667,268.828 16.667 C 268.494 16.667,266.314 17.332,266.083 17.504 C 265.992 17.572,265.673 17.680,265.375 17.744 C 265.077 17.808,264.833 17.929,264.833 18.013 C 264.833 18.098,264.693 18.167,264.522 18.167 C 264.352 18.167,264.021 18.317,263.788 18.500 C 263.555 18.683,263.282 18.833,263.182 18.833 C 263.082 18.833,263.000 18.908,263.000 19.000 C 263.000 19.092,262.891 19.167,262.758 19.167 C 262.441 19.167,260.500 21.105,260.500 21.422 C 260.500 21.556,260.428 21.667,260.341 21.667 C 260.253 21.667,260.133 21.929,260.072 22.250 C 260.012 22.571,259.896 22.833,259.815 22.833 C 259.730 22.833,259.667 27.981,259.667 34.917 C 259.667 41.563,259.726 47.000,259.799 47.000 C 259.871 47.000,260.016 47.319,260.120 47.708 C 260.366 48.626,261.627 49.969,262.376 50.111 C 262.674 50.168,263.022 50.297,263.151 50.398 C 263.487 50.664,269.873 50.631,269.962 50.363 C 269.998 50.255,270.307 50.167,270.649 50.167 C 271.924 50.167,271.828 51.097,271.875 38.250 L 271.917 26.750 272.667 26.529 C 273.079 26.407,273.567 26.243,273.750 26.163 C 273.933 26.084,274.496 25.969,275.000 25.907 C 275.504 25.846,275.996 25.732,276.094 25.654 C 276.191 25.575,277.000 25.460,277.891 25.397 C 278.782 25.335,279.551 25.220,279.599 25.142 C 279.647 25.064,280.310 25.000,281.072 25.000 L 282.457 25.000 282.674 24.208 C 282.794 23.773,282.965 23.368,283.054 23.308 C 283.276 23.160,283.256 19.325,283.033 19.187 C 282.938 19.128,282.808 18.875,282.746 18.625 C 282.509 17.684,280.533 16.167,279.542 16.167 C 279.372 16.167,279.142 16.076,279.031 15.965 C 278.789 15.722,274.036 15.621,272.750 15.830 M371.333 15.792 C 371.333 15.860,370.977 15.927,370.542 15.941 C 369.551 15.971,367.445 16.338,367.333 16.499 C 367.287 16.566,366.894 16.673,366.458 16.737 C 366.023 16.801,365.667 16.918,365.667 16.996 C 365.667 17.074,365.367 17.188,365.000 17.250 C 364.633 17.312,364.333 17.431,364.333 17.515 C 364.333 17.598,364.259 17.667,364.168 17.667 C 363.895 17.667,362.333 18.387,362.333 18.513 C 362.333 18.578,362.165 18.674,361.958 18.727 C 361.752 18.780,361.380 19.013,361.132 19.245 C 360.884 19.477,360.632 19.667,360.571 19.667 C 360.395 19.667,359.167 20.944,359.167 21.127 C 359.167 21.218,359.056 21.384,358.921 21.496 C 358.786 21.608,358.628 21.955,358.569 22.267 C 358.511 22.578,358.396 22.833,358.315 22.833 C 358.230 22.833,358.167 27.981,358.167 34.917 C 358.167 42.085,358.229 47.000,358.319 47.000 C 358.402 47.000,358.519 47.287,358.578 47.637 C 358.724 48.497,360.065 49.956,360.853 50.109 C 361.163 50.170,361.470 50.301,361.536 50.401 C 361.710 50.667,368.373 50.632,368.462 50.364 C 368.498 50.255,368.816 50.167,369.169 50.167 C 370.412 50.167,370.333 50.985,370.336 38.030 C 370.339 25.739,370.317 26.093,371.085 25.904 C 371.359 25.837,371.626 25.717,371.679 25.638 C 371.731 25.558,372.275 25.446,372.887 25.389 C 373.499 25.332,374.000 25.221,374.000 25.143 C 374.000 24.949,375.266 24.961,375.627 25.158 C 375.786 25.244,376.198 25.360,376.542 25.415 C 376.885 25.470,377.167 25.587,377.167 25.674 C 377.167 25.762,377.268 25.833,377.392 25.833 C 377.684 25.833,378.398 26.495,378.565 26.920 C 378.981 27.978,379.061 29.550,379.152 38.403 C 379.228 45.773,379.296 47.905,379.458 47.958 C 379.573 47.997,379.667 48.117,379.667 48.226 C 379.667 48.531,380.661 49.667,380.929 49.667 C 381.060 49.667,381.167 49.736,381.167 49.820 C 381.167 49.904,381.410 50.026,381.708 50.091 C 382.006 50.156,382.304 50.293,382.369 50.396 C 382.540 50.666,389.096 50.637,389.368 50.365 C 389.477 50.256,389.771 50.167,390.020 50.167 C 391.079 50.167,391.000 51.143,391.000 37.982 C 391.000 31.381,390.935 26.000,390.856 26.000 C 390.777 26.000,390.663 25.580,390.603 25.067 C 390.543 24.553,390.345 23.808,390.163 23.409 C 389.982 23.011,389.833 22.606,389.833 22.509 C 389.833 22.412,389.766 22.333,389.685 22.333 C 389.603 22.333,389.493 22.165,389.440 21.958 C 389.387 21.752,389.154 21.380,388.922 21.132 C 388.690 20.884,388.500 20.632,388.500 20.571 C 388.500 20.375,387.272 19.247,386.417 18.657 C 385.958 18.342,385.545 18.033,385.498 17.972 C 385.452 17.910,385.208 17.808,384.957 17.745 C 384.705 17.682,384.500 17.564,384.500 17.482 C 384.500 17.400,384.406 17.331,384.292 17.328 C 384.177 17.325,383.783 17.177,383.417 17.000 C 383.050 16.823,382.634 16.675,382.492 16.672 C 382.350 16.669,382.162 16.600,382.075 16.519 C 381.864 16.323,379.931 15.948,379.042 15.931 C 378.652 15.923,378.333 15.860,378.333 15.792 C 378.333 15.723,376.758 15.667,374.833 15.667 C 372.908 15.667,371.333 15.723,371.333 15.792 M291.333 15.991 C 291.104 16.073,290.560 16.188,290.125 16.247 C 289.690 16.306,289.333 16.424,289.333 16.510 C 289.333 16.596,289.217 16.667,289.075 16.667 C 288.713 16.667,287.513 17.342,287.076 17.792 C 286.876 17.998,286.627 18.167,286.523 18.167 C 286.301 18.167,286.264 19.104,286.481 19.238 C 286.561 19.288,286.679 19.741,286.742 20.245 C 286.805 20.749,286.924 21.203,287.007 21.254 C 287.089 21.305,287.206 21.719,287.267 22.174 C 287.327 22.628,287.436 23.000,287.509 23.000 C 287.583 23.000,287.694 23.412,287.757 23.917 C 287.820 24.421,287.932 24.833,288.005 24.833 C 288.078 24.833,288.190 25.152,288.254 25.542 C 288.318 25.931,288.429 26.325,288.501 26.417 C 288.572 26.508,288.719 27.013,288.826 27.539 C 288.934 28.064,289.084 28.532,289.159 28.578 C 289.234 28.625,289.346 29.001,289.408 29.415 C 289.470 29.828,289.582 30.167,289.658 30.167 C 289.734 30.167,289.846 30.504,289.908 30.917 C 289.970 31.329,290.082 31.667,290.158 31.667 C 290.234 31.667,290.346 32.004,290.408 32.417 C 290.470 32.829,290.586 33.167,290.667 33.167 C 290.747 33.167,290.864 33.504,290.925 33.917 C 290.987 34.329,291.098 34.667,291.171 34.667 C 291.244 34.667,291.355 34.966,291.417 35.332 C 291.478 35.699,291.589 36.035,291.662 36.081 C 291.736 36.126,291.845 36.426,291.905 36.748 C 291.966 37.070,292.078 37.333,292.155 37.333 C 292.232 37.333,292.346 37.671,292.408 38.083 C 292.470 38.496,292.591 38.833,292.677 38.833 C 292.763 38.833,292.834 38.965,292.834 39.125 C 292.835 39.285,292.945 39.626,293.078 39.882 C 293.212 40.138,293.370 40.607,293.429 40.924 C 293.488 41.241,293.603 41.500,293.683 41.500 C 293.764 41.500,293.877 41.800,293.936 42.167 C 293.995 42.533,294.105 42.833,294.180 42.833 C 294.256 42.833,294.367 43.096,294.428 43.417 C 294.488 43.737,294.598 44.000,294.672 44.000 C 294.746 44.000,294.859 44.244,294.923 44.542 C 294.986 44.840,295.089 45.158,295.152 45.250 C 295.214 45.342,295.442 45.867,295.659 46.417 C 295.876 46.967,296.191 47.616,296.360 47.859 C 296.529 48.102,296.667 48.352,296.667 48.414 C 296.667 48.822,298.589 50.167,299.173 50.167 C 299.316 50.167,299.512 50.245,299.608 50.341 C 299.703 50.437,300.321 50.560,300.980 50.615 C 301.638 50.671,302.217 50.780,302.265 50.858 C 302.380 51.043,305.453 51.044,305.568 50.858 C 305.616 50.781,306.276 50.669,307.035 50.611 C 307.794 50.552,308.441 50.428,308.472 50.335 C 308.502 50.243,308.676 50.167,308.856 50.167 C 309.770 50.167,311.243 49.168,311.430 48.421 C 311.489 48.189,311.597 48.000,311.671 48.000 C 311.746 48.000,311.856 47.775,311.917 47.500 C 311.977 47.225,312.092 47.000,312.172 47.000 C 312.253 47.000,312.367 46.737,312.428 46.417 C 312.488 46.096,312.604 45.833,312.685 45.833 C 312.767 45.833,312.836 45.740,312.839 45.625 C 312.842 45.510,312.990 45.117,313.167 44.750 C 313.344 44.383,313.491 43.952,313.494 43.792 C 313.497 43.631,313.572 43.500,313.659 43.500 C 313.747 43.500,313.867 43.237,313.928 42.917 C 313.988 42.596,314.100 42.333,314.178 42.333 C 314.255 42.333,314.368 42.052,314.428 41.708 C 314.488 41.365,314.632 40.932,314.747 40.748 C 314.862 40.563,315.010 40.169,315.075 39.873 C 315.140 39.576,315.254 39.333,315.328 39.333 C 315.402 39.333,315.512 39.074,315.571 38.757 C 315.630 38.440,315.788 37.971,315.922 37.715 C 316.055 37.459,316.165 37.119,316.166 36.958 C 316.166 36.798,316.235 36.667,316.319 36.667 C 316.402 36.667,316.521 36.367,316.583 36.000 C 316.645 35.633,316.758 35.333,316.833 35.333 C 316.909 35.333,317.021 35.034,317.083 34.668 C 317.145 34.301,317.264 33.959,317.348 33.908 C 317.432 33.856,317.500 33.687,317.501 33.532 C 317.502 33.377,317.607 33.049,317.735 32.803 C 317.864 32.557,318.022 32.107,318.087 31.803 C 318.152 31.499,318.263 31.175,318.334 31.083 C 318.404 30.992,318.515 30.598,318.579 30.208 C 318.643 29.819,318.750 29.500,318.815 29.500 C 318.881 29.500,319.017 29.144,319.118 28.708 C 319.439 27.330,319.690 26.427,319.849 26.083 C 319.933 25.900,320.072 25.412,320.157 25.000 C 320.242 24.587,320.389 23.950,320.483 23.583 C 320.911 21.909,320.844 18.526,320.375 18.176 C 320.306 18.125,320.170 17.938,320.072 17.761 C 319.974 17.584,319.749 17.359,319.572 17.261 C 319.395 17.163,319.212 17.038,319.167 16.982 C 318.311 15.937,312.239 15.572,311.083 16.495 C 310.992 16.568,310.673 16.680,310.375 16.744 C 310.077 16.808,309.833 16.929,309.833 17.013 C 309.833 17.098,309.721 17.167,309.583 17.167 C 309.446 17.167,309.333 17.312,309.333 17.490 C 309.333 17.668,309.267 17.855,309.186 17.905 C 309.105 17.954,308.986 18.503,308.920 19.123 C 308.854 19.743,308.730 20.336,308.644 20.441 C 308.559 20.546,308.505 20.696,308.525 20.774 C 308.578 20.976,308.344 22.267,308.078 23.250 C 307.953 23.708,307.801 24.515,307.740 25.042 C 307.678 25.569,307.570 26.000,307.498 26.000 C 307.426 26.000,307.314 26.525,307.250 27.167 C 307.186 27.808,307.073 28.333,306.999 28.333 C 306.926 28.333,306.814 28.783,306.750 29.334 C 306.686 29.884,306.574 30.371,306.500 30.417 C 306.426 30.462,306.314 30.950,306.250 31.500 C 306.186 32.050,306.074 32.500,306.000 32.500 C 305.926 32.500,305.814 32.950,305.750 33.500 C 305.686 34.050,305.574 34.500,305.500 34.500 C 305.426 34.500,305.314 34.950,305.250 35.500 C 305.186 36.050,305.073 36.538,304.999 36.584 C 304.925 36.630,304.811 37.058,304.745 37.535 C 304.679 38.013,304.564 38.519,304.490 38.660 C 304.415 38.801,304.310 39.123,304.257 39.375 C 304.102 40.109,303.881 39.907,303.758 38.919 C 303.695 38.417,303.576 37.963,303.493 37.912 C 303.411 37.861,303.294 37.448,303.233 36.993 C 303.173 36.539,303.067 36.167,302.998 36.167 C 302.928 36.167,302.820 35.755,302.758 35.253 C 302.695 34.750,302.581 34.300,302.504 34.252 C 302.427 34.205,302.313 33.791,302.250 33.333 C 302.187 32.875,302.084 32.500,302.021 32.500 C 301.958 32.500,301.810 31.882,301.691 31.127 C 301.572 30.372,301.414 29.678,301.339 29.585 C 301.265 29.493,301.151 29.023,301.086 28.542 C 301.022 28.061,300.910 27.630,300.837 27.586 C 300.765 27.541,300.654 27.092,300.591 26.588 C 300.528 26.084,300.416 25.634,300.341 25.588 C 300.267 25.542,300.154 25.092,300.091 24.588 C 300.028 24.084,299.912 23.632,299.833 23.583 C 299.754 23.535,299.639 23.083,299.576 22.581 C 299.513 22.078,299.405 21.667,299.337 21.667 C 299.268 21.667,299.166 21.331,299.110 20.920 C 299.053 20.510,298.935 20.041,298.847 19.879 C 298.760 19.716,298.520 19.228,298.316 18.795 C 297.339 16.723,293.546 15.200,291.333 15.991 M137.583 16.480 C 137.400 16.556,136.575 16.668,135.751 16.730 C 134.926 16.791,134.045 16.933,133.792 17.045 L 133.333 17.248 133.333 31.948 C 133.333 40.086,133.398 46.687,133.478 46.736 C 133.558 46.786,133.671 47.128,133.730 47.496 C 133.789 47.865,133.911 48.167,134.002 48.167 C 134.093 48.167,134.167 48.276,134.167 48.410 C 134.167 48.761,135.506 49.998,135.999 50.103 C 136.229 50.152,136.597 50.281,136.817 50.388 C 137.361 50.653,143.375 50.624,143.465 50.355 C 143.500 50.251,143.803 50.166,144.139 50.164 C 144.475 50.163,144.919 50.117,145.125 50.062 L 145.500 49.961 145.500 35.564 C 145.500 27.433,145.436 21.167,145.354 21.167 C 145.274 21.167,145.173 20.747,145.131 20.235 C 145.088 19.722,144.976 19.253,144.882 19.193 C 144.788 19.133,144.654 18.899,144.583 18.673 C 144.421 18.153,143.754 17.506,142.967 17.105 C 142.023 16.623,138.284 16.189,137.583 16.480 M343.417 16.479 C 343.233 16.555,342.409 16.668,341.584 16.730 C 340.760 16.791,339.878 16.933,339.626 17.045 L 339.167 17.248 339.167 31.876 C 339.167 40.297,339.231 46.627,339.318 46.794 C 339.401 46.953,339.552 47.395,339.653 47.776 C 339.899 48.699,341.089 49.961,341.849 50.106 C 342.161 50.165,342.522 50.297,342.651 50.398 C 342.981 50.659,348.942 50.625,349.206 50.361 C 349.313 50.254,349.643 50.167,349.939 50.167 C 350.236 50.167,350.671 50.094,350.906 50.004 L 351.333 49.842 351.333 35.597 C 351.333 27.642,351.269 21.313,351.188 21.263 C 351.107 21.213,351.007 20.752,350.964 20.238 C 350.922 19.723,350.810 19.253,350.716 19.193 C 350.622 19.133,350.487 18.896,350.417 18.667 C 350.271 18.189,349.445 17.390,348.931 17.230 C 348.740 17.171,348.538 17.052,348.483 16.966 C 348.289 16.665,343.971 16.250,343.417 16.479 M241.500 38.821 L 241.500 41.309 240.958 41.580 C 240.660 41.730,239.948 41.896,239.375 41.950 C 238.802 42.004,238.333 42.112,238.333 42.191 C 238.333 42.377,235.880 42.377,235.764 42.190 C 235.716 42.111,235.334 42.000,234.917 41.943 C 234.500 41.885,234.044 41.744,233.905 41.628 C 233.212 41.051,232.833 40.551,232.833 40.210 C 232.833 40.003,232.758 39.833,232.667 39.833 C 232.575 39.833,232.500 39.683,232.500 39.500 C 232.500 39.317,232.575 39.167,232.667 39.167 C 232.758 39.167,232.833 39.028,232.833 38.859 C 232.833 38.238,233.882 37.430,234.934 37.240 C 235.291 37.176,235.660 37.063,235.753 36.990 C 235.846 36.917,237.029 36.803,238.383 36.738 C 239.736 36.672,240.883 36.554,240.932 36.476 C 241.351 35.797,241.500 36.412,241.500 38.821 M326.667 37.465 C 326.667 37.553,326.247 37.660,325.735 37.703 C 325.222 37.745,324.753 37.857,324.693 37.951 C 324.633 38.045,324.402 38.179,324.179 38.248 C 323.641 38.416,322.739 39.185,321.927 40.167 C 321.656 40.495,321.483 40.903,321.255 41.750 C 321.181 42.025,321.065 42.325,320.998 42.417 C 320.633 42.911,321.089 47.667,321.502 47.667 C 321.573 47.667,321.675 47.845,321.730 48.062 C 321.844 48.518,323.336 50.167,323.633 50.167 C 323.743 50.167,323.833 50.242,323.833 50.333 C 323.833 50.425,323.927 50.500,324.042 50.501 C 324.156 50.502,324.475 50.631,324.750 50.789 C 325.388 51.154,330.174 51.229,330.292 50.875 C 330.330 50.760,330.492 50.667,330.651 50.667 C 331.025 50.667,332.441 49.661,332.793 49.146 C 332.941 48.928,333.156 48.693,333.269 48.624 C 333.382 48.555,333.523 48.273,333.584 47.999 C 333.644 47.725,333.760 47.500,333.841 47.500 C 333.922 47.500,334.038 47.123,334.100 46.663 C 334.161 46.203,334.276 45.786,334.355 45.736 C 334.435 45.687,334.500 45.056,334.500 44.333 C 334.500 43.611,334.435 42.979,334.355 42.930 C 334.276 42.881,334.161 42.470,334.101 42.016 C 334.041 41.563,333.937 41.167,333.871 41.138 C 333.804 41.108,333.612 40.811,333.443 40.479 C 332.942 39.492,332.128 38.727,330.854 38.044 C 330.067 37.622,326.667 37.152,326.667 37.465 M264.500 56.904 C 268.387 58.342,271.086 61.078,272.273 64.781 C 272.712 66.151,272.722 70.688,272.290 71.917 C 270.974 75.650,268.436 78.262,264.717 79.708 C 263.603 80.140,258.453 80.275,257.650 79.893 C 257.430 79.788,256.884 79.572,256.437 79.412 C 253.414 78.336,250.499 75.001,249.520 71.500 C 249.037 69.772,249.211 65.608,249.823 64.250 C 249.906 64.067,250.164 63.495,250.398 62.980 C 251.463 60.631,253.984 58.268,256.417 57.338 C 256.967 57.127,257.567 56.894,257.750 56.820 C 258.415 56.549,258.792 56.522,261.250 56.574 C 263.064 56.612,263.956 56.703,264.500 56.904 M137.757 57.086 C 145.243 58.994,148.885 67.925,144.931 74.681 C 140.238 82.698,128.492 82.242,124.344 73.881 C 121.136 67.415,124.613 59.240,131.417 57.256 C 131.967 57.095,132.492 56.940,132.583 56.912 C 133.139 56.738,136.886 56.865,137.757 57.086 M390.567 57.315 C 398.786 60.247,401.225 70.477,395.191 76.713 C 393.885 78.062,392.393 78.958,390.000 79.828 C 388.966 80.204,385.304 80.253,384.025 79.908 C 380.237 78.886,376.853 75.894,375.820 72.652 C 375.721 72.339,375.552 71.903,375.445 71.683 C 375.187 71.153,375.179 65.870,375.436 65.317 C 375.538 65.097,375.793 64.467,376.003 63.917 C 376.212 63.367,376.484 62.798,376.608 62.654 C 376.732 62.509,376.833 62.332,376.833 62.261 C 376.833 61.745,380.072 58.500,380.587 58.500 C 380.662 58.500,380.842 58.399,380.987 58.275 C 381.132 58.151,381.700 57.878,382.250 57.669 C 382.800 57.460,383.400 57.227,383.583 57.151 C 384.662 56.707,389.156 56.812,390.567 57.315 M122.111 60.611 C 121.919 60.803,121.990 61.000,122.250 61.000 C 122.388 61.000,122.500 60.887,122.500 60.750 C 122.500 60.490,122.303 60.419,122.111 60.611 " stroke="none" fill="#2a2a2a" fill-rule="evenodd"></path><path id="path1" d="M10.333 1.600 C 2.962 3.567,-0.584 11.644,2.876 18.583 C 3.311 19.456,3.631 19.915,4.833 21.391 C 9.114 26.644,18.952 25.717,22.889 19.689 C 28.767 10.689,20.564 -1.131,10.333 1.600 M62.583 1.825 C 53.014 4.211,50.371 16.837,58.207 22.733 C 68.137 30.205,81.148 19.247,75.702 8.000 C 73.390 3.227,67.702 0.549,62.583 1.825 M258.667 56.726 C 246.437 59.560,246.114 76.705,258.231 79.853 C 266.405 81.976,274.239 74.212,272.397 65.812 C 271.048 59.659,264.554 55.362,258.667 56.726 " stroke="none" fill="#fafafa" fill-rule="evenodd"></path><path id="path2" d="M132.583 56.903 C 132.492 56.936,131.967 57.097,131.417 57.259 C 125.522 58.997,121.853 65.685,123.518 71.656 C 126.714 83.110,142.491 83.409,146.098 72.083 C 146.544 70.684,146.559 66.322,146.123 65.083 C 144.829 61.410,142.179 58.657,138.696 57.369 C 137.665 56.988,133.266 56.652,132.583 56.903 " stroke="none" fill="#e3042b" fill-rule="evenodd"></path><path id="path3" d="M384.333 56.938 C 384.104 56.980,383.767 57.076,383.583 57.151 C 383.400 57.227,382.800 57.460,382.250 57.669 C 381.700 57.878,381.132 58.151,380.987 58.275 C 380.842 58.399,380.662 58.500,380.587 58.500 C 380.072 58.500,376.833 61.745,376.833 62.261 C 376.833 62.332,376.732 62.509,376.608 62.654 C 376.484 62.798,376.212 63.367,376.003 63.917 C 375.793 64.467,375.538 65.097,375.436 65.317 C 375.179 65.870,375.187 71.153,375.445 71.683 C 375.552 71.903,375.721 72.339,375.820 72.652 C 376.853 75.894,380.237 78.886,384.025 79.908 C 385.304 80.253,388.966 80.204,390.000 79.828 C 392.393 78.958,393.885 78.062,395.191 76.713 C 401.225 70.477,398.786 60.247,390.567 57.315 C 389.601 56.971,385.508 56.723,384.333 56.938 " stroke="none" fill="#0443bc" fill-rule="evenodd"></path><path id="path4" d="M11.058 1.294 C 10.953 1.362,11.939 1.417,13.251 1.417 C 14.562 1.417,15.549 1.362,15.443 1.294 C 15.192 1.135,11.308 1.135,11.058 1.294 M16.000 1.546 C 16.046 1.593,16.377 1.712,16.736 1.810 C 17.095 1.908,17.320 1.924,17.236 1.845 C 17.075 1.694,15.857 1.400,16.000 1.546 M62.533 1.664 C 62.231 1.736,61.936 1.842,61.879 1.899 C 61.768 2.010,62.633 1.864,63.333 1.654 C 63.912 1.480,63.275 1.489,62.533 1.664 M67.167 1.645 C 67.933 1.890,68.745 2.012,68.578 1.856 C 68.489 1.773,68.042 1.662,67.583 1.609 C 67.066 1.549,66.908 1.563,67.167 1.645 M7.667 2.510 C 7.162 2.788,6.638 3.139,6.500 3.290 C 6.274 3.539,6.277 3.545,6.534 3.352 C 6.690 3.235,7.290 2.884,7.867 2.573 C 8.444 2.262,8.842 2.007,8.750 2.007 C 8.658 2.006,8.171 2.233,7.667 2.510 M60.851 2.181 C 60.631 2.269,60.493 2.382,60.544 2.433 C 60.595 2.484,60.850 2.411,61.110 2.270 C 61.634 1.986,61.474 1.931,60.851 2.181 M69.815 2.415 C 70.309 2.646,70.984 2.991,71.315 3.182 C 71.679 3.392,71.785 3.419,71.583 3.251 C 71.159 2.897,69.876 2.242,69.333 2.102 C 69.104 2.043,69.321 2.184,69.815 2.415 M58.886 3.268 C 57.650 4.104,56.239 5.388,55.975 5.917 C 55.884 6.100,56.084 5.930,56.420 5.539 C 57.101 4.748,58.626 3.528,59.708 2.909 C 60.098 2.686,60.328 2.503,60.219 2.502 C 60.110 2.501,59.510 2.846,58.886 3.268 M19.833 3.276 C 20.376 3.655,22.333 5.609,22.812 6.250 C 23.066 6.590,23.125 6.626,22.996 6.362 C 22.706 5.765,20.599 3.620,19.974 3.284 C 19.478 3.018,19.462 3.017,19.833 3.276 M72.702 4.148 C 73.134 4.533,73.838 5.239,74.267 5.716 C 74.696 6.193,74.892 6.358,74.703 6.083 C 74.338 5.553,72.809 4.050,72.250 3.672 C 72.067 3.549,72.270 3.763,72.702 4.148 M4.809 4.625 C 4.022 5.455,3.000 6.835,3.001 7.066 C 3.001 7.167,3.211 6.935,3.466 6.549 C 3.894 5.905,4.337 5.356,5.220 4.375 C 5.785 3.748,5.442 3.956,4.809 4.625 M23.673 7.758 C 23.676 7.845,23.791 8.104,23.930 8.333 L 24.181 8.750 24.072 8.333 C 23.958 7.899,23.662 7.472,23.673 7.758 M2.158 8.773 C 2.066 9.015,2.022 9.244,2.059 9.282 C 2.097 9.319,2.208 9.122,2.305 8.842 C 2.522 8.220,2.391 8.159,2.158 8.773 M76.006 8.592 C 76.009 8.679,76.125 8.938,76.263 9.167 L 76.514 9.583 76.405 9.167 C 76.291 8.732,75.995 8.305,76.006 8.592 M24.193 8.917 C 24.192 9.008,24.293 9.346,24.417 9.667 C 24.540 9.987,24.644 10.137,24.646 10.000 C 24.649 9.862,24.549 9.525,24.423 9.250 C 24.297 8.975,24.193 8.825,24.193 8.917 M1.771 9.756 C 1.713 9.905,1.673 10.190,1.682 10.389 C 1.692 10.645,1.744 10.587,1.858 10.190 C 2.024 9.613,1.956 9.274,1.771 9.756 M76.582 10.167 C 76.882 11.616,76.995 11.944,76.897 11.083 C 76.844 10.625,76.733 10.137,76.649 10.000 C 76.538 9.820,76.520 9.867,76.582 10.167 M24.750 13.083 C 24.750 14.497,24.801 15.526,24.863 15.369 C 24.926 15.212,24.977 14.183,24.977 13.083 C 24.977 11.983,24.926 10.955,24.863 10.798 C 24.801 10.641,24.750 11.669,24.750 13.083 M53.605 11.042 C 53.469 11.549,53.495 15.345,53.637 15.702 C 53.699 15.859,53.750 14.790,53.750 13.327 C 53.750 11.864,53.740 10.667,53.728 10.667 C 53.716 10.667,53.660 10.835,53.605 11.042 M76.756 15.605 C 76.692 16.029,76.603 16.498,76.557 16.646 C 76.487 16.878,76.498 16.881,76.638 16.667 C 76.819 16.391,77.087 14.833,76.955 14.833 C 76.909 14.833,76.819 15.180,76.756 15.605 M1.686 15.833 C 1.678 16.063,1.744 16.362,1.833 16.500 C 2.039 16.818,2.039 16.476,1.833 15.833 L 1.700 15.417 1.686 15.833 M24.367 16.617 C 24.120 17.420,24.239 17.540,24.500 16.750 C 24.610 16.417,24.667 16.112,24.628 16.072 C 24.588 16.033,24.471 16.278,24.367 16.617 M2.091 17.208 C 2.153 17.415,2.273 17.657,2.357 17.746 C 2.440 17.836,2.425 17.667,2.322 17.371 C 2.110 16.766,1.916 16.628,2.091 17.208 M76.188 17.604 C 76.078 17.846,76.026 18.081,76.072 18.128 C 76.119 18.175,76.237 18.005,76.333 17.750 C 76.562 17.149,76.447 17.034,76.188 17.604 M23.854 17.938 C 23.744 18.179,23.692 18.415,23.739 18.461 C 23.786 18.508,23.903 18.338,24.000 18.083 C 24.229 17.482,24.114 17.367,23.854 17.938 M3.000 19.114 C 3.000 19.520,5.243 22.173,5.883 22.523 C 6.047 22.613,5.705 22.205,5.121 21.616 C 4.538 21.027,3.822 20.184,3.531 19.744 C 3.239 19.303,3.000 19.020,3.000 19.114 M22.591 20.156 C 22.129 20.823,20.588 22.347,19.833 22.885 C 19.440 23.164,19.448 23.164,19.974 22.882 C 20.559 22.568,22.675 20.440,22.993 19.846 C 23.293 19.285,23.081 19.449,22.591 20.156 M73.463 21.693 C 72.664 22.512,72.214 23.035,72.463 22.854 C 73.088 22.402,75.257 20.101,74.979 20.186 C 74.945 20.196,74.263 20.875,73.463 21.693 M55.837 20.545 C 55.827 20.915,58.105 22.988,59.167 23.577 C 59.573 23.802,59.177 23.458,58.058 22.613 C 57.493 22.187,56.764 21.518,56.436 21.127 C 56.108 20.737,55.838 20.475,55.837 20.545 M7.000 23.249 C 7.000 23.361,8.687 24.202,8.762 24.127 C 8.796 24.093,8.414 23.864,7.912 23.618 C 7.410 23.372,7.000 23.206,7.000 23.249 M70.333 23.951 C 69.554 24.360,69.104 24.641,69.333 24.576 C 69.860 24.425,71.146 23.774,71.583 23.435 C 72.071 23.058,71.904 23.127,70.333 23.951 M16.583 24.423 C 15.922 24.652,15.921 24.653,16.500 24.559 C 16.821 24.507,17.155 24.398,17.242 24.316 C 17.436 24.132,17.411 24.137,16.583 24.423 M60.592 24.315 C 60.679 24.396,60.938 24.512,61.167 24.572 L 61.583 24.681 61.167 24.430 C 60.702 24.150,60.337 24.077,60.592 24.315 M11.058 24.872 C 11.164 24.940,12.150 24.995,13.250 24.995 C 14.350 24.995,15.337 24.940,15.443 24.872 C 15.549 24.805,14.562 24.750,13.251 24.750 C 11.939 24.750,10.953 24.805,11.058 24.872 M62.000 24.817 C 62.137 24.897,62.587 25.007,63.000 25.061 C 63.492 25.126,63.607 25.113,63.333 25.024 C 62.644 24.799,61.723 24.657,62.000 24.817 M67.583 24.921 L 66.750 25.143 67.583 25.052 C 68.042 25.002,68.488 24.895,68.575 24.814 C 68.778 24.626,68.632 24.641,67.583 24.921 M258.333 56.620 C 258.104 56.661,257.851 56.758,257.772 56.834 C 257.644 56.956,258.080 56.892,259.250 56.617 C 259.697 56.512,258.922 56.514,258.333 56.620 M262.917 56.670 C 264.194 56.980,264.433 57.015,264.167 56.851 C 264.029 56.767,263.542 56.656,263.083 56.603 C 262.275 56.511,262.270 56.513,262.917 56.670 M256.583 57.256 C 256.167 57.457,256.153 57.480,256.500 57.395 C 256.972 57.279,257.503 57.009,257.250 57.013 C 257.158 57.014,256.858 57.123,256.583 57.256 M264.500 57.035 C 264.546 57.080,264.844 57.205,265.163 57.313 C 265.482 57.421,265.669 57.437,265.580 57.350 C 265.490 57.262,265.192 57.137,264.917 57.072 C 264.642 57.006,264.454 56.990,264.500 57.035 M254.583 58.265 C 254.125 58.588,253.619 58.941,253.458 59.050 C 253.298 59.158,253.167 59.309,253.167 59.385 C 253.167 59.460,253.485 59.264,253.875 58.949 C 254.265 58.633,254.827 58.251,255.125 58.100 C 255.640 57.838,255.814 57.660,255.542 57.673 C 255.473 57.676,255.042 57.943,254.583 58.265 M268.537 59.317 C 269.062 59.795,269.718 60.461,269.996 60.797 C 270.273 61.134,270.500 61.349,270.500 61.276 C 270.500 61.076,268.659 59.183,268.083 58.790 C 267.808 58.602,268.013 58.839,268.537 59.317 M251.205 61.542 C 250.705 62.157,249.870 63.933,250.167 63.750 C 250.259 63.693,250.333 63.570,250.333 63.477 C 250.333 63.383,250.593 62.862,250.911 62.320 C 251.463 61.379,251.572 61.090,251.205 61.542 M271.673 63.592 C 271.676 63.679,271.791 63.938,271.930 64.167 L 272.181 64.583 272.072 64.167 C 271.958 63.732,271.662 63.305,271.673 63.592 M249.779 64.292 C 249.664 64.488,249.451 65.593,249.546 65.500 C 249.656 65.393,249.993 64.167,249.913 64.167 C 249.880 64.167,249.820 64.223,249.779 64.292 M272.280 65.333 C 272.467 66.345,272.670 66.825,272.561 66.000 C 272.507 65.587,272.397 65.137,272.317 65.000 C 272.228 64.845,272.213 64.972,272.280 65.333 M249.268 66.097 C 249.124 66.472,249.147 70.378,249.294 70.609 C 249.362 70.715,249.417 69.684,249.417 68.317 C 249.417 66.951,249.406 65.833,249.393 65.833 C 249.380 65.833,249.323 65.952,249.268 66.097 M272.426 70.625 C 272.365 70.969,272.278 71.400,272.233 71.583 C 272.169 71.843,272.185 71.861,272.307 71.667 C 272.482 71.386,272.740 70.000,272.617 70.000 C 272.573 70.000,272.487 70.281,272.426 70.625 M249.604 71.750 C 249.663 72.025,249.778 72.362,249.858 72.500 C 249.952 72.660,249.966 72.570,249.896 72.250 C 249.837 71.975,249.722 71.637,249.642 71.500 C 249.548 71.340,249.534 71.430,249.604 71.750 M271.861 72.658 C 271.764 72.938,271.719 73.167,271.763 73.167 C 271.875 73.167,272.190 72.301,272.107 72.218 C 272.069 72.181,271.959 72.378,271.861 72.658 M250.167 73.203 C 250.166 73.357,250.847 74.667,250.928 74.667 C 250.962 74.667,250.940 74.535,250.880 74.375 C 250.733 73.981,250.168 73.053,250.167 73.203 M270.752 74.830 C 270.323 75.659,268.518 77.467,267.394 78.194 C 266.163 78.990,266.038 79.145,267.042 78.633 C 268.217 78.033,271.702 74.333,271.092 74.333 C 271.046 74.333,270.893 74.557,270.752 74.830 M251.503 75.549 C 251.498 75.753,253.012 77.322,253.578 77.699 C 253.886 77.904,253.809 77.797,253.383 77.427 C 252.997 77.092,252.417 76.503,252.094 76.117 C 251.771 75.732,251.505 75.476,251.503 75.549 M254.500 78.352 C 254.985 78.775,256.976 79.746,257.102 79.621 C 257.149 79.574,256.841 79.403,256.419 79.242 C 255.997 79.081,255.298 78.733,254.867 78.469 C 254.320 78.134,254.209 78.098,254.500 78.352 M265.083 79.423 C 264.667 79.623,264.653 79.646,265.000 79.562 C 265.472 79.446,266.003 79.176,265.750 79.179 C 265.658 79.181,265.358 79.290,265.083 79.423 M257.579 79.827 C 257.638 79.922,257.882 80.000,258.121 80.000 C 258.643 80.000,258.583 79.920,257.944 79.767 C 257.635 79.692,257.509 79.713,257.579 79.827 M263.750 79.833 C 263.289 79.951,263.282 79.962,263.667 79.978 C 263.896 79.987,264.196 79.922,264.333 79.833 C 264.617 79.650,264.470 79.650,263.750 79.833 " stroke="none" fill="#794d4d" fill-rule="evenodd"></path></g></svg>