<svg id="svg" version="1.1" xmlns="http://www.w3.org/2000/svg" xmlns:xlink="http://www.w3.org/1999/xlink" width="150" height="32" viewBox="0, 0, 400,86.25407166123777"><g id="svgg"><path id="path0" d="M12.750 0.189 C 11.925 0.268,11.225 0.408,11.194 0.500 C 11.164 0.592,10.987 0.667,10.802 0.667 C 10.485 0.667,8.348 1.599,8.167 1.817 C 8.121 1.872,7.793 2.064,7.439 2.245 C 7.085 2.426,6.758 2.669,6.713 2.787 C 6.668 2.904,6.563 3.000,6.479 3.000 C 6.290 3.000,4.335 4.867,4.334 5.049 C 4.334 5.122,4.143 5.384,3.911 5.632 C 3.679 5.880,3.446 6.252,3.393 6.458 C 3.340 6.665,3.243 6.833,3.176 6.833 C 3.001 6.833,2.000 9.086,2.000 9.477 C 2.000 9.658,1.924 9.831,1.831 9.862 C 1.738 9.893,1.615 10.539,1.556 11.298 C 1.498 12.057,1.386 12.717,1.308 12.766 C 1.124 12.880,1.124 14.954,1.308 15.068 C 1.386 15.116,1.498 15.776,1.556 16.535 C 1.615 17.294,1.738 17.941,1.831 17.972 C 1.924 18.002,2.003 18.190,2.006 18.389 C 2.009 18.587,2.156 19.050,2.333 19.417 C 2.510 19.783,2.658 20.163,2.661 20.260 C 2.664 20.358,2.807 20.588,2.980 20.773 C 3.152 20.958,3.338 21.253,3.394 21.429 C 3.450 21.606,3.685 21.953,3.915 22.201 C 4.145 22.449,4.335 22.712,4.337 22.784 C 4.342 22.983,6.258 24.833,6.458 24.833 C 6.553 24.833,6.668 24.929,6.713 25.047 C 6.758 25.164,7.085 25.408,7.439 25.588 C 7.793 25.769,8.122 25.967,8.168 26.029 C 8.331 26.242,10.472 27.167,10.805 27.167 C 10.989 27.167,11.165 27.244,11.196 27.339 C 11.228 27.433,11.909 27.557,12.710 27.613 C 13.511 27.670,14.167 27.780,14.167 27.858 C 14.167 27.936,14.654 28.000,15.250 28.000 C 15.846 28.000,16.333 27.936,16.333 27.858 C 16.333 27.780,16.989 27.670,17.790 27.613 C 18.591 27.557,19.272 27.433,19.304 27.339 C 19.335 27.244,19.509 27.167,19.689 27.167 C 20.081 27.167,22.333 26.165,22.333 25.991 C 22.333 25.924,22.502 25.826,22.708 25.773 C 22.915 25.720,23.286 25.487,23.534 25.255 C 23.782 25.023,24.045 24.833,24.118 24.833 C 24.299 24.831,26.167 22.877,26.167 22.688 C 26.167 22.604,26.263 22.499,26.380 22.454 C 26.497 22.409,26.741 22.086,26.922 21.736 C 27.102 21.387,27.363 20.963,27.500 20.796 C 27.637 20.628,27.832 20.249,27.932 19.953 L 28.113 19.417 42.620 19.374 L 57.128 19.332 57.405 19.957 C 57.558 20.302,57.756 20.696,57.846 20.833 C 57.936 20.971,58.054 21.215,58.108 21.375 C 58.161 21.535,58.272 21.667,58.353 21.667 C 58.434 21.667,58.500 21.747,58.500 21.845 C 58.500 21.943,58.594 22.122,58.708 22.241 C 58.823 22.361,59.029 22.631,59.167 22.841 C 59.733 23.704,62.071 25.833,62.453 25.833 C 62.570 25.833,62.667 25.900,62.667 25.981 C 62.667 26.062,62.798 26.173,62.958 26.228 C 63.119 26.283,63.481 26.471,63.763 26.645 C 64.045 26.819,64.513 27.013,64.804 27.077 C 65.095 27.141,65.333 27.257,65.333 27.335 C 65.333 27.412,65.746 27.528,66.250 27.591 C 66.754 27.654,67.167 27.771,67.167 27.853 C 67.167 27.934,67.387 28.000,67.657 28.000 C 68.199 28.000,68.368 28.179,68.430 28.821 C 68.536 29.909,68.721 30.833,68.833 30.833 C 68.901 30.833,69.007 31.152,69.069 31.542 C 69.235 32.590,69.264 32.726,69.374 33.000 C 69.429 33.137,69.521 33.531,69.578 33.875 C 69.635 34.219,69.753 34.500,69.841 34.500 C 69.928 34.500,70.000 34.757,70.000 35.071 C 70.000 35.386,70.119 35.761,70.263 35.906 C 70.408 36.051,70.495 36.263,70.455 36.376 C 70.416 36.490,70.522 36.845,70.692 37.164 C 70.861 37.484,71.000 37.952,71.000 38.206 C 71.000 38.459,71.069 38.667,71.153 38.667 C 71.238 38.667,71.356 38.892,71.417 39.167 C 71.477 39.442,71.579 39.667,71.644 39.667 C 71.708 39.667,71.776 39.858,71.796 40.091 C 71.815 40.325,72.032 40.944,72.278 41.466 C 72.523 41.989,72.754 42.603,72.790 42.830 C 72.826 43.058,72.919 43.283,72.998 43.332 C 73.076 43.380,73.192 43.626,73.255 43.877 C 73.318 44.128,73.430 44.333,73.505 44.333 C 73.579 44.333,73.690 44.558,73.750 44.833 C 73.810 45.108,73.917 45.333,73.987 45.333 C 74.056 45.333,74.215 45.652,74.339 46.042 C 74.462 46.431,74.699 47.011,74.865 47.331 C 75.031 47.650,75.167 48.007,75.167 48.123 C 75.167 48.238,75.236 48.333,75.320 48.333 C 75.404 48.333,75.523 48.558,75.583 48.833 C 75.644 49.108,75.754 49.333,75.829 49.333 C 75.903 49.333,76.015 49.539,76.078 49.790 C 76.142 50.041,76.243 50.285,76.305 50.332 C 76.366 50.378,76.677 50.923,76.995 51.542 C 77.313 52.160,77.631 52.667,77.703 52.667 C 77.775 52.667,77.833 52.754,77.833 52.862 C 77.833 53.134,78.864 55.238,79.030 55.306 C 79.105 55.336,79.167 55.449,79.167 55.556 C 79.168 55.663,79.390 55.986,79.660 56.275 C 79.930 56.563,80.201 56.994,80.261 57.233 C 80.320 57.472,80.418 57.668,80.476 57.669 C 80.535 57.670,80.733 57.988,80.915 58.377 C 81.098 58.765,81.454 59.295,81.707 59.554 C 81.960 59.814,82.167 60.132,82.167 60.263 C 82.167 60.393,82.225 60.500,82.297 60.500 C 82.368 60.500,82.512 60.725,82.616 61.000 C 82.719 61.275,82.914 61.500,83.048 61.500 C 83.183 61.500,83.334 61.714,83.387 61.979 C 83.440 62.242,83.712 62.686,83.992 62.966 C 84.271 63.246,84.500 63.555,84.500 63.654 C 84.500 63.753,84.575 63.833,84.667 63.833 C 84.758 63.833,84.833 63.938,84.833 64.066 C 84.833 64.193,84.946 64.341,85.083 64.394 C 85.221 64.446,85.333 64.604,85.333 64.745 C 85.333 64.885,85.408 65.000,85.500 65.000 C 85.592 65.000,85.667 65.107,85.667 65.239 C 85.667 65.370,85.817 65.525,86.000 65.583 C 86.183 65.642,86.333 65.789,86.333 65.910 C 86.333 66.032,86.520 66.308,86.747 66.524 C 86.975 66.740,87.162 67.009,87.164 67.122 C 87.165 67.235,87.354 67.374,87.583 67.432 C 87.813 67.489,88.000 67.641,88.000 67.769 C 88.000 68.061,91.083 71.167,91.374 71.167 C 91.491 71.167,91.662 71.329,91.752 71.528 C 91.843 71.727,92.064 71.971,92.244 72.070 C 92.423 72.169,92.770 72.438,93.014 72.667 C 93.802 73.408,94.258 73.769,94.549 73.880 C 94.705 73.940,94.833 74.061,94.833 74.148 C 94.833 74.235,95.052 74.355,95.319 74.414 C 95.587 74.472,95.846 74.626,95.896 74.756 C 95.983 74.982,96.402 75.235,97.775 75.889 C 98.128 76.057,98.529 76.264,98.667 76.348 C 98.804 76.433,99.029 76.547,99.167 76.602 C 99.304 76.657,99.670 76.815,99.979 76.952 C 100.289 77.090,100.645 77.217,100.770 77.236 C 100.895 77.254,101.202 77.434,101.452 77.635 C 101.806 77.920,102.144 78.005,102.995 78.021 C 105.472 78.070,106.000 78.199,106.000 78.759 C 106.000 78.878,106.103 79.079,106.228 79.204 C 106.353 79.330,106.503 79.579,106.560 79.758 C 106.616 79.937,106.851 80.286,107.081 80.534 C 107.312 80.782,107.500 81.032,107.500 81.089 C 107.500 81.225,109.442 83.167,109.577 83.167 C 109.634 83.167,109.884 83.355,110.132 83.585 C 110.380 83.815,110.730 84.050,110.909 84.107 C 111.088 84.164,111.337 84.313,111.462 84.439 C 111.588 84.564,111.835 84.667,112.012 84.667 C 112.189 84.667,112.333 84.724,112.333 84.794 C 112.333 84.965,113.587 85.500,113.987 85.500 C 114.162 85.500,114.331 85.573,114.361 85.662 C 114.542 86.190,122.045 86.188,122.573 85.661 C 122.661 85.572,122.839 85.500,122.968 85.500 C 123.210 85.500,125.352 84.527,125.500 84.350 C 125.546 84.295,125.873 84.102,126.228 83.922 C 126.582 83.741,126.909 83.497,126.954 83.380 C 126.999 83.263,127.105 83.167,127.189 83.167 C 127.434 83.167,129.333 81.293,129.333 81.052 C 129.333 80.932,129.392 80.833,129.465 80.833 C 129.634 80.833,130.922 78.866,131.073 78.375 L 131.189 78.000 184.999 78.000 L 238.809 78.000 239.103 78.667 C 239.265 79.033,239.450 79.333,239.514 79.333 C 239.578 79.333,239.674 79.502,239.727 79.708 C 239.780 79.915,240.013 80.286,240.245 80.534 C 240.477 80.782,240.667 81.032,240.667 81.089 C 240.667 81.225,242.608 83.167,242.744 83.167 C 242.801 83.167,243.051 83.355,243.299 83.585 C 243.547 83.815,243.900 84.050,244.083 84.108 C 244.267 84.165,244.454 84.265,244.500 84.331 C 244.654 84.550,246.794 85.500,247.135 85.500 C 247.320 85.500,247.497 85.573,247.528 85.662 C 247.708 86.188,255.457 86.187,255.639 85.661 C 255.669 85.572,255.846 85.500,256.032 85.500 C 256.348 85.500,258.485 84.567,258.667 84.350 C 258.712 84.295,259.040 84.102,259.394 83.922 C 259.749 83.741,260.075 83.497,260.120 83.380 C 260.165 83.263,260.271 83.167,260.356 83.167 C 260.553 83.167,262.500 81.316,262.500 81.128 C 262.500 81.050,262.690 80.782,262.922 80.534 C 263.154 80.286,263.387 79.915,263.440 79.708 C 263.493 79.502,263.592 79.333,263.659 79.333 C 263.727 79.333,263.918 79.033,264.083 78.667 L 264.384 78.000 318.029 78.000 L 371.674 78.000 371.877 78.458 C 371.988 78.710,372.174 79.016,372.290 79.137 C 372.405 79.258,372.500 79.464,372.500 79.595 C 372.500 79.726,372.575 79.833,372.667 79.833 C 372.758 79.833,372.833 79.942,372.833 80.075 C 372.833 80.208,372.929 80.377,373.046 80.450 C 373.162 80.523,373.382 80.771,373.533 81.000 C 373.943 81.620,374.821 82.509,375.667 83.162 C 376.079 83.481,376.454 83.789,376.500 83.848 C 376.546 83.907,376.771 84.013,377.000 84.083 C 377.229 84.154,377.454 84.261,377.500 84.322 C 377.659 84.532,379.697 85.500,379.981 85.500 C 380.138 85.500,380.344 85.577,380.438 85.671 C 380.945 86.178,387.949 86.192,388.560 85.687 C 388.664 85.601,389.031 85.477,389.375 85.413 C 389.719 85.349,390.000 85.230,390.000 85.148 C 390.000 85.067,390.150 85.000,390.333 85.000 C 390.517 85.000,390.667 84.925,390.667 84.833 C 390.667 84.742,390.774 84.667,390.905 84.667 C 391.036 84.667,391.243 84.573,391.366 84.458 C 391.488 84.344,391.850 84.116,392.169 83.953 C 393.153 83.450,395.409 81.376,395.591 80.807 C 395.640 80.655,395.789 80.489,395.923 80.437 C 396.057 80.386,396.167 80.229,396.167 80.089 C 396.167 79.948,396.242 79.833,396.333 79.833 C 396.425 79.833,396.500 79.726,396.500 79.595 C 396.500 79.464,396.599 79.258,396.720 79.137 C 396.842 79.016,397.079 78.542,397.249 78.083 C 397.419 77.625,397.616 77.171,397.688 77.075 C 397.760 76.979,397.871 76.566,397.935 76.158 C 397.998 75.750,398.130 75.365,398.227 75.302 C 398.473 75.142,398.468 69.354,398.222 69.198 C 398.122 69.135,397.987 68.690,397.921 68.208 C 397.856 67.727,397.750 67.333,397.686 67.333 C 397.621 67.333,397.429 66.921,397.257 66.417 C 397.086 65.912,396.884 65.500,396.809 65.500 C 396.734 65.500,396.626 65.313,396.568 65.083 C 396.511 64.854,396.397 64.667,396.315 64.667 C 396.234 64.667,396.167 64.587,396.167 64.490 C 396.167 64.084,394.550 62.290,393.327 61.338 C 392.918 61.019,392.545 60.706,392.498 60.643 C 392.452 60.579,392.208 60.475,391.957 60.412 C 391.705 60.349,391.500 60.237,391.500 60.162 C 391.500 59.968,389.454 59.000,389.042 59.000 C 388.851 59.000,388.668 58.921,388.636 58.825 C 388.604 58.729,387.885 58.605,387.039 58.550 C 386.193 58.496,385.500 58.387,385.500 58.309 C 385.500 58.231,385.050 58.167,384.500 58.167 C 383.950 58.167,383.500 58.231,383.500 58.309 C 383.500 58.387,382.807 58.496,381.961 58.550 C 381.115 58.605,380.396 58.729,380.364 58.825 C 380.332 58.921,380.149 59.000,379.958 59.000 C 379.546 59.000,377.500 59.968,377.500 60.162 C 377.500 60.237,377.303 60.347,377.063 60.407 C 376.823 60.467,376.529 60.607,376.411 60.717 C 376.292 60.827,375.966 61.092,375.685 61.307 C 374.583 62.150,372.833 64.104,372.833 64.490 C 372.833 64.587,372.776 64.667,372.706 64.667 C 372.572 64.667,372.474 64.834,371.884 66.068 L 371.519 66.834 317.978 66.792 L 264.438 66.750 264.307 66.245 C 264.235 65.967,264.033 65.586,263.858 65.399 C 263.684 65.211,263.484 64.876,263.414 64.654 C 263.344 64.432,263.110 64.085,262.894 63.883 C 262.677 63.681,262.500 63.455,262.500 63.380 C 262.500 63.226,260.605 61.333,260.451 61.333 C 260.396 61.333,260.146 61.144,259.897 60.913 C 259.647 60.681,259.268 60.448,259.055 60.395 C 258.841 60.341,258.667 60.247,258.667 60.186 C 258.667 59.999,256.533 59.000,256.133 59.000 C 256.005 59.000,255.822 58.922,255.727 58.827 C 255.632 58.732,254.905 58.608,254.110 58.552 C 253.316 58.496,252.667 58.387,252.667 58.309 C 252.667 58.231,252.179 58.167,251.583 58.167 C 250.987 58.167,250.500 58.231,250.500 58.309 C 250.500 58.387,249.845 58.497,249.043 58.553 C 248.242 58.610,247.561 58.733,247.530 58.828 C 247.498 58.923,247.325 59.000,247.144 59.000 C 246.752 59.000,244.500 60.001,244.500 60.176 C 244.500 60.243,244.331 60.340,244.125 60.393 C 243.919 60.446,243.547 60.679,243.299 60.911 C 243.051 61.143,242.788 61.334,242.716 61.334 C 242.569 61.335,240.667 63.272,240.667 63.421 C 240.667 63.472,240.477 63.718,240.245 63.966 C 240.013 64.214,239.780 64.585,239.727 64.792 C 239.674 64.998,239.578 65.167,239.513 65.167 C 239.449 65.167,239.232 65.542,239.032 66.000 L 238.668 66.833 184.995 66.833 C 134.023 66.833,131.319 66.819,131.236 66.542 C 131.149 66.246,130.861 65.659,130.359 64.750 C 130.208 64.475,129.915 64.085,129.708 63.883 C 129.502 63.681,129.333 63.456,129.333 63.383 C 129.333 63.310,129.106 63.025,128.828 62.750 C 128.551 62.475,128.126 62.044,127.884 61.792 C 127.643 61.540,127.379 61.333,127.298 61.333 C 127.217 61.333,126.982 61.151,126.775 60.928 C 126.569 60.705,126.197 60.472,125.950 60.410 C 125.702 60.348,125.500 60.242,125.500 60.175 C 125.500 59.980,123.386 59.000,122.966 59.000 C 122.838 59.000,122.656 58.922,122.560 58.827 C 122.465 58.732,121.738 58.608,120.944 58.552 C 120.150 58.496,119.500 58.387,119.500 58.309 C 119.500 58.124,117.547 58.123,117.432 58.308 C 117.384 58.386,116.687 58.496,115.882 58.553 C 115.078 58.610,114.394 58.733,114.363 58.828 C 114.331 58.923,114.158 59.000,113.977 59.000 C 113.586 59.000,111.333 60.001,111.333 60.176 C 111.333 60.243,111.165 60.340,110.958 60.393 C 110.752 60.446,110.380 60.679,110.132 60.911 C 109.884 61.143,109.622 61.334,109.549 61.334 C 109.402 61.335,107.500 63.272,107.500 63.421 C 107.500 63.472,107.310 63.718,107.078 63.966 C 106.846 64.214,106.613 64.585,106.560 64.792 C 106.507 64.998,106.411 65.167,106.346 65.167 C 106.282 65.167,106.065 65.542,105.865 66.000 L 105.501 66.833 104.695 66.833 C 104.252 66.833,103.833 66.777,103.764 66.708 C 103.695 66.640,103.589 66.579,103.528 66.573 C 102.969 66.524,102.000 66.281,102.000 66.190 C 102.000 66.127,101.719 65.928,101.375 65.748 C 101.031 65.568,100.690 65.325,100.617 65.210 C 100.543 65.094,100.375 65.000,100.242 65.000 C 100.109 65.000,100.000 64.925,100.000 64.833 C 100.000 64.742,99.850 64.667,99.667 64.667 C 99.483 64.667,99.333 64.593,99.333 64.503 C 99.333 64.414,98.774 63.757,98.090 63.045 C 96.211 61.087,96.000 60.855,96.000 60.749 C 96.000 60.695,95.813 60.477,95.583 60.265 C 95.354 60.052,95.167 59.799,95.167 59.702 C 95.167 59.605,94.942 59.301,94.667 59.026 C 94.392 58.751,94.167 58.447,94.167 58.352 C 94.167 58.256,93.942 57.922,93.667 57.609 C 93.392 57.296,93.167 56.955,93.167 56.853 C 93.167 56.751,93.100 56.667,93.018 56.667 C 92.936 56.667,92.827 56.498,92.774 56.292 C 92.722 56.085,92.451 55.668,92.173 55.365 C 91.894 55.061,91.667 54.705,91.667 54.573 C 91.667 54.441,91.592 54.333,91.500 54.333 C 91.408 54.333,91.333 54.221,91.333 54.083 C 91.333 53.946,91.258 53.833,91.167 53.833 C 91.075 53.833,91.000 53.700,91.000 53.537 C 91.000 53.374,90.550 52.545,90.000 51.694 C 89.450 50.844,89.000 50.077,89.000 49.991 C 89.000 49.904,88.931 49.833,88.847 49.833 C 88.762 49.833,88.644 49.608,88.583 49.333 C 88.523 49.058,88.413 48.833,88.338 48.833 C 88.264 48.833,88.156 48.646,88.098 48.417 C 88.041 48.188,87.926 48.000,87.843 48.000 C 87.761 48.000,87.644 47.775,87.583 47.500 C 87.523 47.225,87.404 47.000,87.320 47.000 C 87.236 47.000,87.167 46.887,87.167 46.750 C 87.167 46.612,87.098 46.500,87.013 46.500 C 86.929 46.500,86.810 46.275,86.750 46.000 C 86.690 45.725,86.579 45.500,86.505 45.500 C 86.431 45.500,86.321 45.237,86.261 44.917 C 86.201 44.596,86.099 44.333,86.034 44.332 C 85.970 44.331,85.769 43.993,85.588 43.582 C 85.407 43.170,85.210 42.833,85.151 42.833 C 85.091 42.833,84.995 42.533,84.936 42.167 C 84.877 41.800,84.761 41.500,84.678 41.500 C 84.595 41.500,84.477 41.275,84.417 41.000 C 84.356 40.725,84.244 40.500,84.167 40.500 C 84.090 40.500,83.977 40.275,83.917 40.000 C 83.856 39.725,83.738 39.500,83.653 39.500 C 83.569 39.500,83.500 39.426,83.500 39.334 C 83.500 39.065,82.931 37.833,82.807 37.833 C 82.745 37.833,82.646 37.590,82.588 37.292 C 82.496 36.815,81.555 34.722,81.333 34.500 C 81.287 34.454,81.224 34.229,81.192 34.000 C 81.161 33.771,81.067 33.558,80.984 33.528 C 80.901 33.497,80.833 33.396,80.833 33.303 C 80.833 33.210,80.727 32.897,80.598 32.609 C 80.469 32.320,80.315 31.802,80.257 31.458 C 80.199 31.115,80.090 30.833,80.014 30.833 C 79.939 30.833,79.836 30.523,79.785 30.143 C 79.734 29.763,79.630 29.407,79.554 29.351 C 79.479 29.295,79.399 29.100,79.378 28.917 C 79.289 28.162,79.171 27.551,79.007 27.001 C 78.799 26.303,78.778 25.167,78.973 25.167 C 79.155 25.167,80.633 23.720,81.167 23.018 C 81.396 22.717,81.667 22.380,81.770 22.269 C 81.872 22.159,82.013 21.887,82.083 21.667 C 82.153 21.446,82.313 21.163,82.439 21.038 C 82.564 20.912,82.667 20.702,82.667 20.571 C 82.667 20.440,82.742 20.333,82.833 20.333 C 82.925 20.333,83.000 20.215,83.000 20.071 C 83.000 19.328,82.725 19.344,96.609 19.296 C 111.015 19.246,110.062 19.315,111.102 18.242 C 111.771 17.552,112.167 16.790,112.167 16.192 C 112.167 15.914,112.242 15.640,112.333 15.583 C 112.536 15.458,112.558 12.556,112.357 12.431 C 112.279 12.383,112.170 11.972,112.116 11.518 C 112.028 10.773,111.757 10.056,111.479 9.833 C 111.422 9.787,111.322 9.506,111.258 9.208 L 111.140 8.667 97.070 8.667 C 83.111 8.667,83.000 8.664,83.000 8.333 C 83.000 8.150,82.925 8.000,82.833 8.000 C 82.742 8.000,82.667 7.893,82.667 7.762 C 82.667 7.631,82.573 7.424,82.458 7.301 C 82.344 7.178,82.102 6.789,81.922 6.437 C 81.741 6.084,81.497 5.758,81.380 5.713 C 81.263 5.668,81.167 5.561,81.167 5.475 C 81.167 5.178,79.373 3.333,79.084 3.333 C 78.990 3.333,78.772 3.146,78.600 2.917 C 78.427 2.688,78.185 2.500,78.060 2.500 C 77.935 2.500,77.833 2.433,77.833 2.351 C 77.833 2.270,77.646 2.156,77.417 2.098 C 77.188 2.041,77.000 1.926,77.000 1.843 C 77.000 1.761,76.778 1.644,76.507 1.585 C 76.236 1.525,75.702 1.326,75.320 1.141 C 74.938 0.957,74.354 0.763,74.021 0.710 C 73.689 0.658,73.366 0.538,73.305 0.444 C 73.137 0.187,67.290 0.212,67.205 0.469 C 67.168 0.578,66.959 0.667,66.739 0.667 C 66.313 0.667,65.201 1.041,64.474 1.430 C 64.231 1.560,63.912 1.667,63.766 1.667 C 63.620 1.667,63.500 1.740,63.500 1.830 C 63.500 1.920,63.313 2.041,63.083 2.098 C 62.854 2.156,62.667 2.270,62.667 2.351 C 62.667 2.433,62.560 2.500,62.429 2.500 C 62.298 2.500,62.043 2.688,61.863 2.917 C 61.683 3.146,61.457 3.333,61.362 3.333 C 61.131 3.333,59.333 5.110,59.333 5.338 C 59.333 5.436,59.146 5.690,58.917 5.902 C 58.687 6.114,58.500 6.373,58.500 6.477 C 58.500 6.582,58.425 6.667,58.333 6.667 C 58.242 6.667,58.167 6.774,58.167 6.905 C 58.167 7.036,58.066 7.243,57.943 7.366 C 57.821 7.489,57.646 7.813,57.555 8.086 L 57.389 8.583 42.822 8.583 L 28.255 8.583 27.860 7.750 C 27.643 7.292,27.408 6.879,27.338 6.833 C 27.269 6.787,27.165 6.600,27.108 6.417 C 27.050 6.233,26.815 5.880,26.585 5.632 C 26.355 5.384,26.167 5.134,26.167 5.077 C 26.167 4.942,24.225 3.000,24.089 3.000 C 24.032 3.000,23.782 2.812,23.534 2.581 C 23.286 2.351,22.933 2.116,22.750 2.059 C 22.567 2.002,22.379 1.902,22.333 1.836 C 22.179 1.616,20.039 0.667,19.698 0.667 C 19.513 0.667,19.336 0.595,19.306 0.507 C 19.247 0.337,16.048 -0.015,14.917 0.023 C 14.550 0.035,13.575 0.110,12.750 0.189 M19.000 1.736 C 22.105 2.888,24.693 4.947,25.929 7.250 C 26.027 7.433,26.230 7.808,26.378 8.083 C 28.140 11.343,28.136 15.845,26.367 19.500 C 25.511 21.269,23.101 23.929,21.721 24.629 C 21.338 24.823,20.888 25.057,20.721 25.150 C 19.186 25.996,17.980 26.236,15.250 26.236 C 12.520 26.236,11.314 25.996,9.779 25.150 C 9.612 25.057,9.162 24.823,8.779 24.629 C 7.451 23.955,4.999 21.270,4.172 19.584 C 2.327 15.820,2.373 10.881,4.282 7.795 C 4.494 7.453,4.667 7.126,4.667 7.069 C 4.667 7.012,4.910 6.654,5.207 6.274 C 7.017 3.964,9.098 2.495,11.622 1.748 C 12.151 1.592,12.658 1.437,12.750 1.403 C 13.275 1.212,18.310 1.480,19.000 1.736 M73.333 1.807 C 73.746 1.917,74.233 2.075,74.417 2.159 C 74.600 2.243,75.114 2.466,75.558 2.654 C 78.151 3.751,80.511 6.302,81.894 9.500 C 83.108 12.307,82.878 17.002,81.394 19.715 C 81.255 19.970,81.052 20.345,80.945 20.548 C 79.605 23.076,77.324 24.857,73.750 26.167 C 68.420 28.119,61.603 25.018,58.931 19.426 C 55.672 12.604,59.981 3.159,66.924 1.909 C 67.286 1.844,67.696 1.725,67.833 1.646 C 68.184 1.442,72.427 1.567,73.333 1.807 M121.042 1.611 C 120.744 1.653,120.500 1.758,120.500 1.844 C 120.500 1.930,120.378 2.000,120.228 2.000 C 119.591 2.000,117.167 4.063,117.167 4.606 C 117.167 4.731,117.093 4.833,117.002 4.833 C 116.911 4.833,116.789 5.135,116.730 5.504 C 116.671 5.872,116.558 6.214,116.478 6.264 C 116.289 6.381,116.289 10.000,116.479 10.000 C 116.559 10.000,116.672 10.300,116.731 10.667 C 116.789 11.033,116.903 11.333,116.984 11.333 C 117.065 11.333,117.174 11.505,117.226 11.714 C 117.417 12.474,119.368 14.167,120.053 14.167 C 120.192 14.167,120.337 14.260,120.375 14.375 C 120.520 14.811,125.798 14.654,126.578 14.191 C 127.781 13.477,129.152 12.091,129.281 11.458 C 129.333 11.206,129.437 11.000,129.513 11.000 C 129.589 11.000,129.697 10.719,129.752 10.375 C 129.807 10.031,129.922 9.620,130.009 9.461 C 130.207 9.097,130.217 7.051,130.022 6.930 C 129.942 6.881,129.824 6.483,129.760 6.045 C 129.695 5.608,129.498 5.025,129.323 4.750 C 129.147 4.475,128.916 4.081,128.808 3.875 C 128.701 3.669,128.551 3.500,128.475 3.500 C 128.398 3.500,128.135 3.275,127.890 3.000 C 127.645 2.725,127.345 2.500,127.222 2.500 C 127.100 2.500,127.000 2.425,127.000 2.333 C 127.000 2.242,126.906 2.166,126.792 2.166 C 126.677 2.165,126.358 2.041,126.083 1.891 C 125.579 1.614,122.304 1.433,121.042 1.611 M338.375 1.611 C 338.077 1.653,337.833 1.758,337.833 1.844 C 337.833 1.930,337.711 2.000,337.561 2.000 C 337.037 2.000,335.192 3.380,335.291 3.698 C 335.311 3.761,335.178 3.860,334.997 3.918 C 334.816 3.975,334.622 4.205,334.566 4.428 C 334.510 4.651,334.398 4.833,334.317 4.833 C 334.237 4.833,334.122 5.135,334.063 5.504 C 334.004 5.872,333.891 6.214,333.811 6.264 C 333.622 6.381,333.622 10.000,333.812 10.000 C 333.892 10.000,334.005 10.300,334.064 10.667 C 334.123 11.033,334.237 11.333,334.317 11.333 C 334.398 11.333,334.509 11.514,334.564 11.734 C 334.668 12.148,336.037 13.667,336.307 13.667 C 336.391 13.667,336.553 13.779,336.667 13.917 C 336.781 14.054,337.046 14.167,337.257 14.167 C 337.467 14.167,337.670 14.260,337.708 14.375 C 337.760 14.531,338.487 14.583,340.583 14.583 C 342.680 14.583,343.406 14.531,343.458 14.375 C 343.497 14.260,343.655 14.167,343.810 14.167 C 344.389 14.167,346.472 12.155,346.615 11.458 C 346.666 11.206,346.771 11.000,346.847 11.000 C 346.923 11.000,347.030 10.719,347.085 10.375 C 347.140 10.031,347.256 9.620,347.342 9.461 C 347.539 9.099,347.551 7.051,347.357 6.931 C 347.278 6.882,347.169 6.522,347.115 6.130 C 346.950 4.933,345.234 2.500,344.554 2.500 C 344.433 2.500,344.333 2.425,344.333 2.333 C 344.333 2.242,344.240 2.166,344.125 2.166 C 344.010 2.165,343.692 2.041,343.417 1.891 C 342.912 1.614,339.637 1.433,338.375 1.611 M139.157 5.176 C 139.025 5.260,138.710 5.329,138.458 5.331 C 138.206 5.332,138.000 5.402,138.000 5.485 C 138.000 5.569,137.700 5.688,137.333 5.750 C 136.967 5.812,136.667 5.931,136.667 6.015 C 136.667 6.098,136.581 6.167,136.476 6.167 C 136.012 6.167,134.834 7.093,134.834 7.458 C 134.833 7.665,134.899 7.833,134.979 7.833 C 135.059 7.833,135.179 9.502,135.246 11.542 C 135.313 13.581,135.425 15.325,135.495 15.417 C 135.565 15.508,135.672 16.933,135.733 18.583 C 135.835 21.342,136.025 22.500,136.374 22.500 C 136.443 22.500,136.500 22.602,136.500 22.726 C 136.500 23.074,137.255 23.807,137.737 23.928 C 137.975 23.988,138.211 24.104,138.261 24.185 C 138.312 24.267,138.532 24.333,138.750 24.333 C 138.968 24.333,139.193 24.408,139.250 24.500 C 139.308 24.595,140.137 24.667,141.167 24.667 C 142.196 24.667,143.025 24.595,143.083 24.500 C 143.140 24.408,143.407 24.333,143.677 24.333 C 143.946 24.333,144.167 24.268,144.167 24.188 C 144.167 24.109,144.430 24.001,144.752 23.949 C 145.601 23.811,145.806 23.511,145.933 22.227 C 145.994 21.598,146.103 21.008,146.174 20.917 C 146.244 20.825,146.357 19.980,146.423 19.038 C 146.489 18.097,146.609 17.286,146.688 17.237 C 146.768 17.187,146.833 16.716,146.833 16.190 C 146.833 15.664,146.915 15.151,147.016 15.051 C 147.134 14.933,147.207 13.652,147.224 11.393 L 147.250 7.917 146.750 7.129 C 146.475 6.696,146.103 6.292,145.924 6.232 C 145.745 6.172,145.496 6.020,145.371 5.895 C 145.245 5.769,144.998 5.667,144.821 5.667 C 144.645 5.667,144.500 5.600,144.500 5.519 C 144.500 5.161,139.670 4.851,139.157 5.176 M163.833 16.669 C 163.696 16.751,163.002 16.866,162.292 16.923 C 161.581 16.981,161.000 17.088,161.000 17.162 C 161.000 17.235,160.587 17.346,160.083 17.409 C 159.579 17.472,159.167 17.594,159.167 17.679 C 159.167 17.764,158.979 17.833,158.750 17.833 C 158.521 17.833,158.333 17.899,158.333 17.979 C 158.333 18.059,158.033 18.172,157.667 18.231 C 157.300 18.289,157.000 18.411,157.000 18.502 C 157.000 18.593,156.877 18.667,156.727 18.667 C 156.371 18.667,155.000 19.352,155.000 19.530 C 155.000 19.605,154.850 19.667,154.667 19.667 C 154.483 19.667,154.333 19.742,154.333 19.833 C 154.333 19.925,154.218 20.000,154.078 20.000 C 153.938 20.000,153.781 20.110,153.729 20.244 C 153.678 20.378,153.474 20.538,153.276 20.600 C 152.819 20.744,151.333 22.264,151.333 22.589 C 151.333 22.723,151.276 22.833,151.206 22.833 C 150.415 22.833,150.061 47.946,150.820 50.145 C 151.148 51.094,152.195 52.429,152.750 52.606 C 152.933 52.664,153.128 52.781,153.183 52.867 C 153.238 52.952,153.857 53.065,154.558 53.118 C 155.260 53.171,155.833 53.279,155.833 53.357 C 155.833 53.436,156.546 53.500,157.417 53.500 C 158.287 53.500,159.000 53.436,159.000 53.358 C 159.000 53.281,159.805 53.171,160.789 53.116 C 161.792 53.059,162.604 52.938,162.637 52.840 C 162.668 52.745,162.801 52.667,162.931 52.667 C 163.132 52.667,163.167 50.843,163.167 40.186 L 163.167 27.705 163.542 27.460 C 163.748 27.325,164.104 27.156,164.333 27.085 C 164.563 27.013,164.801 26.876,164.863 26.779 C 165.018 26.536,168.310 26.528,168.465 26.770 C 168.530 26.872,168.765 27.012,168.988 27.081 C 169.493 27.239,170.500 28.201,170.500 28.525 C 170.500 28.658,170.571 28.838,170.657 28.925 C 170.751 29.019,170.846 33.145,170.892 39.083 C 170.982 50.668,170.960 49.789,171.169 49.918 C 171.259 49.974,171.333 50.159,171.333 50.329 C 171.333 50.500,171.390 50.664,171.458 50.694 C 171.527 50.725,171.740 51.043,171.932 51.401 C 172.140 51.790,172.543 52.193,172.931 52.401 C 173.289 52.593,173.627 52.811,173.682 52.886 C 173.738 52.961,174.357 53.065,175.058 53.118 C 175.760 53.171,176.333 53.279,176.333 53.357 C 176.333 53.543,179.453 53.544,179.568 53.358 C 179.616 53.280,180.462 53.164,181.448 53.101 C 182.546 53.030,183.289 52.907,183.367 52.784 C 183.437 52.674,183.496 46.985,183.497 40.143 L 183.500 27.703 183.917 27.598 C 184.146 27.541,184.333 27.423,184.333 27.338 C 184.333 27.252,184.615 27.130,184.958 27.067 C 185.302 27.004,185.635 26.872,185.699 26.774 C 185.852 26.536,188.727 26.540,189.023 26.777 C 189.148 26.877,189.430 27.015,189.651 27.082 C 190.109 27.223,190.833 27.945,190.833 28.260 C 190.833 28.377,190.927 28.503,191.042 28.542 C 191.205 28.596,191.260 30.831,191.295 38.806 C 191.324 45.303,191.400 49.000,191.504 49.000 C 191.593 49.000,191.667 49.258,191.667 49.573 C 191.667 49.889,191.733 50.188,191.815 50.239 C 191.896 50.289,192.012 50.525,192.072 50.763 C 192.131 51.001,192.253 51.283,192.343 51.389 C 193.017 52.195,193.334 52.477,193.682 52.584 C 193.903 52.652,194.178 52.783,194.294 52.876 C 194.410 52.969,195.029 53.082,195.669 53.128 C 196.309 53.174,196.833 53.276,196.833 53.356 C 196.833 53.542,199.952 53.545,200.068 53.359 C 200.116 53.281,200.909 53.168,201.831 53.108 C 204.466 52.935,204.167 54.579,204.167 40.293 C 204.167 33.532,204.103 28.000,204.025 28.000 C 203.947 28.000,203.835 27.386,203.778 26.637 C 203.720 25.887,203.607 25.231,203.527 25.178 C 203.447 25.126,203.330 24.802,203.266 24.458 C 203.203 24.115,203.086 23.833,203.006 23.833 C 202.925 23.833,202.810 23.608,202.750 23.333 C 202.690 23.058,202.579 22.833,202.505 22.833 C 202.430 22.833,202.322 22.646,202.265 22.417 C 202.207 22.188,202.087 22.000,201.997 22.000 C 201.907 22.000,201.833 21.916,201.833 21.813 C 201.833 21.438,198.794 18.667,198.383 18.667 C 198.264 18.667,198.167 18.598,198.167 18.513 C 198.167 18.429,197.942 18.310,197.667 18.250 C 197.392 18.190,197.167 18.071,197.167 17.987 C 197.167 17.902,197.063 17.833,196.936 17.833 C 196.809 17.833,196.490 17.721,196.227 17.584 C 195.965 17.447,195.586 17.335,195.385 17.334 C 195.184 17.334,194.978 17.266,194.927 17.184 C 194.876 17.101,194.309 16.981,193.667 16.917 C 193.024 16.852,192.457 16.732,192.406 16.650 C 192.288 16.459,186.000 16.452,186.000 16.642 C 186.000 16.721,185.463 16.830,184.808 16.885 C 184.152 16.940,183.537 17.063,183.441 17.159 C 183.345 17.255,183.113 17.334,182.925 17.334 C 182.737 17.335,182.369 17.447,182.106 17.584 C 181.843 17.721,181.525 17.833,181.398 17.833 C 181.271 17.833,181.167 17.908,181.167 18.000 C 181.167 18.092,181.081 18.167,180.977 18.167 C 180.788 18.167,179.327 18.839,179.167 19.000 C 178.610 19.557,178.070 19.599,177.431 19.136 C 177.075 18.878,176.682 18.667,176.559 18.667 C 176.435 18.667,176.333 18.598,176.333 18.513 C 176.333 18.429,176.090 18.307,175.792 18.242 C 175.494 18.178,175.213 18.078,175.167 18.021 C 174.958 17.760,174.262 17.484,173.580 17.390 C 173.169 17.334,172.833 17.228,172.833 17.154 C 172.833 17.080,172.307 16.968,171.663 16.905 C 171.019 16.841,170.452 16.724,170.403 16.645 C 170.285 16.454,164.156 16.476,163.833 16.669 M221.667 16.642 C 221.667 16.720,220.904 16.833,219.972 16.894 C 219.040 16.955,218.197 17.071,218.097 17.151 C 217.998 17.231,217.523 17.349,217.042 17.414 C 216.560 17.478,216.167 17.599,216.167 17.682 C 216.167 17.765,215.979 17.833,215.750 17.833 C 215.521 17.833,215.333 17.902,215.333 17.987 C 215.333 18.071,215.108 18.190,214.833 18.250 C 214.558 18.310,214.333 18.421,214.333 18.495 C 214.333 18.570,214.146 18.678,213.917 18.735 C 213.688 18.793,213.500 18.913,213.500 19.003 C 213.500 19.093,213.404 19.167,213.287 19.167 C 213.058 19.167,212.500 19.744,212.500 19.981 C 212.500 20.061,212.387 20.219,212.250 20.333 C 212.112 20.447,212.000 20.675,212.000 20.840 C 212.000 21.004,211.919 21.166,211.819 21.199 C 211.590 21.276,211.574 24.668,211.801 25.105 C 211.890 25.276,212.101 25.698,212.269 26.042 C 212.438 26.385,212.634 26.667,212.705 26.667 C 212.775 26.667,212.833 26.768,212.833 26.892 C 212.833 27.372,213.632 28.000,214.242 28.000 C 214.567 28.000,214.833 27.934,214.833 27.852 C 214.833 27.771,215.171 27.654,215.583 27.592 C 215.996 27.530,216.333 27.415,216.333 27.335 C 216.333 27.256,216.746 27.139,217.250 27.076 C 217.754 27.013,218.167 26.903,218.167 26.831 C 218.167 26.759,218.710 26.647,219.375 26.582 C 220.040 26.516,220.670 26.393,220.776 26.307 C 221.046 26.089,226.748 26.226,227.667 26.473 C 229.667 27.010,230.833 28.128,230.833 29.508 L 230.833 30.000 229.677 30.000 C 229.040 30.000,228.473 30.075,228.417 30.167 C 228.360 30.258,227.798 30.333,227.167 30.333 C 226.536 30.333,225.979 30.400,225.928 30.481 C 225.878 30.562,224.786 30.683,223.502 30.750 C 222.217 30.816,221.167 30.926,221.167 30.994 C 221.167 31.062,220.558 31.164,219.813 31.222 C 219.069 31.279,218.375 31.393,218.271 31.475 C 218.168 31.557,217.727 31.676,217.292 31.739 C 216.856 31.802,216.500 31.924,216.500 32.010 C 216.500 32.096,216.313 32.167,216.083 32.167 C 215.854 32.167,215.667 32.239,215.667 32.328 C 215.667 32.417,215.554 32.446,215.417 32.394 C 215.279 32.341,215.167 32.381,215.167 32.482 C 215.167 32.584,215.054 32.667,214.917 32.667 C 214.779 32.667,214.667 32.742,214.667 32.833 C 214.667 32.925,214.527 33.000,214.356 33.000 C 214.185 33.000,213.854 33.150,213.621 33.333 C 213.388 33.517,213.143 33.667,213.077 33.667 C 212.870 33.667,211.191 35.493,211.082 35.838 C 211.024 36.019,210.914 36.167,210.835 36.167 C 210.757 36.167,210.644 36.392,210.583 36.667 C 210.523 36.942,210.404 37.167,210.320 37.167 C 210.236 37.167,210.167 37.302,210.167 37.467 C 210.167 37.632,210.094 37.840,210.005 37.929 C 209.916 38.018,209.792 38.633,209.731 39.295 C 209.669 39.958,209.555 40.500,209.476 40.500 C 209.289 40.500,209.290 43.453,209.476 43.569 C 209.555 43.617,209.661 44.118,209.712 44.681 C 209.763 45.244,209.887 45.787,209.986 45.886 C 210.085 45.985,210.167 46.202,210.167 46.367 C 210.167 46.532,210.236 46.667,210.320 46.667 C 210.404 46.667,210.526 46.906,210.590 47.199 C 210.655 47.492,210.792 47.820,210.895 47.928 C 210.999 48.037,211.196 48.299,211.333 48.511 C 211.726 49.115,212.860 50.333,213.029 50.333 C 213.114 50.333,213.356 50.521,213.569 50.750 C 213.781 50.979,214.021 51.167,214.102 51.167 C 214.184 51.168,214.588 51.392,215.000 51.667 C 215.412 51.941,215.919 52.166,216.125 52.166 C 216.331 52.166,216.500 52.238,216.500 52.326 C 216.500 52.413,216.762 52.534,217.083 52.594 C 217.404 52.655,217.667 52.762,217.667 52.832 C 217.667 52.903,218.154 53.013,218.750 53.077 C 219.346 53.141,219.833 53.255,219.833 53.330 C 219.833 53.471,220.134 53.522,222.833 53.841 C 224.699 54.062,231.636 53.930,231.898 53.669 C 231.991 53.576,232.385 53.500,232.773 53.500 C 233.162 53.500,233.522 53.432,233.573 53.350 C 233.624 53.267,234.116 53.147,234.666 53.083 C 235.217 53.020,235.667 52.909,235.667 52.838 C 235.667 52.767,235.957 52.663,236.311 52.606 C 236.666 52.549,237.172 52.390,237.436 52.253 C 237.700 52.115,238.048 52.002,238.208 52.001 C 238.369 52.000,238.500 51.925,238.500 51.833 C 238.500 51.742,238.612 51.667,238.750 51.667 C 238.887 51.667,239.000 51.600,239.000 51.518 C 239.000 51.436,239.188 51.322,239.417 51.265 C 239.646 51.207,239.833 51.087,239.833 50.997 C 239.833 50.907,239.935 50.833,240.059 50.833 C 240.183 50.833,240.473 50.665,240.704 50.458 C 240.935 50.252,241.264 49.966,241.437 49.822 C 241.939 49.403,242.667 48.455,242.667 48.218 C 242.667 48.098,242.733 48.000,242.815 48.000 C 243.153 48.000,243.219 46.310,243.221 37.583 C 243.223 29.015,243.135 26.500,242.836 26.500 C 242.768 26.500,242.667 26.107,242.610 25.626 C 242.553 25.145,242.432 24.727,242.342 24.697 C 242.251 24.667,242.129 24.385,242.070 24.071 C 242.011 23.757,241.896 23.500,241.815 23.500 C 241.733 23.500,241.667 23.387,241.667 23.248 C 241.667 23.110,241.442 22.762,241.167 22.474 C 240.892 22.186,240.667 21.877,240.667 21.788 C 240.667 21.581,239.220 20.215,238.421 19.667 C 238.087 19.438,237.714 19.160,237.594 19.050 C 237.473 18.940,237.177 18.800,236.937 18.740 C 236.697 18.680,236.500 18.565,236.500 18.484 C 236.500 18.403,236.200 18.289,235.833 18.231 C 235.467 18.172,235.167 18.070,235.167 18.004 C 235.167 17.849,233.574 17.333,233.098 17.333 C 232.897 17.333,232.657 17.257,232.564 17.164 C 232.471 17.071,231.778 16.947,231.025 16.889 C 230.272 16.831,229.616 16.719,229.568 16.642 C 229.453 16.456,221.667 16.457,221.667 16.642 M264.765 16.642 C 264.717 16.721,263.983 16.837,263.135 16.901 C 262.286 16.965,261.553 17.077,261.504 17.150 C 261.456 17.224,261.117 17.329,260.750 17.385 C 259.723 17.542,259.519 17.592,259.394 17.717 C 259.330 17.781,259.107 17.833,258.899 17.833 C 258.690 17.833,258.477 17.902,258.426 17.985 C 258.374 18.069,258.032 18.188,257.666 18.250 C 257.300 18.312,257.000 18.423,257.000 18.496 C 257.000 18.570,256.737 18.679,256.417 18.739 C 256.096 18.799,255.833 18.920,255.833 19.008 C 255.833 19.095,255.665 19.167,255.458 19.167 C 255.252 19.168,254.746 19.392,254.333 19.667 C 253.921 19.941,253.514 20.166,253.430 20.166 C 253.174 20.167,251.036 22.456,250.908 22.867 C 250.842 23.077,250.705 23.304,250.603 23.369 C 250.318 23.551,250.340 50.197,250.625 50.292 C 250.740 50.330,250.833 50.500,250.833 50.669 C 250.833 51.627,252.824 53.006,254.379 53.125 C 255.000 53.173,255.548 53.277,255.597 53.356 C 255.713 53.542,258.833 53.545,258.833 53.359 C 258.833 53.281,259.640 53.168,260.625 53.108 C 261.610 53.048,262.442 52.924,262.472 52.832 C 262.503 52.741,262.634 52.667,262.764 52.667 C 262.965 52.667,263.000 50.875,263.000 40.424 L 263.000 28.182 263.585 28.072 C 263.907 28.012,264.208 27.901,264.254 27.826 C 264.301 27.751,264.751 27.638,265.255 27.576 C 265.759 27.513,266.208 27.401,266.253 27.328 C 266.299 27.255,266.916 27.141,267.626 27.076 C 268.336 27.010,268.955 26.897,269.001 26.825 C 269.048 26.753,270.242 26.631,271.655 26.555 L 274.223 26.417 274.387 25.917 C 274.476 25.642,274.615 25.374,274.695 25.321 C 274.775 25.269,274.887 24.725,274.944 24.113 C 275.001 23.501,275.112 23.000,275.191 23.000 C 275.379 23.000,275.375 22.046,275.187 21.929 C 275.106 21.879,275.007 21.373,274.966 20.804 C 274.924 20.223,274.805 19.741,274.695 19.704 C 274.588 19.668,274.500 19.547,274.500 19.435 C 274.500 19.145,273.659 18.167,273.410 18.167 C 273.296 18.167,273.159 18.054,273.106 17.917 C 273.054 17.779,272.896 17.667,272.755 17.667 C 272.615 17.667,272.500 17.592,272.500 17.500 C 272.500 17.408,272.365 17.333,272.200 17.333 C 272.035 17.333,271.825 17.259,271.734 17.168 C 271.643 17.077,271.103 16.953,270.534 16.894 C 269.965 16.834,269.500 16.722,269.500 16.643 C 269.500 16.457,264.880 16.456,264.765 16.642 M368.167 16.643 C 368.167 16.721,367.473 16.838,366.625 16.901 C 365.777 16.965,365.058 17.088,365.028 17.175 C 364.997 17.262,364.762 17.333,364.505 17.333 C 364.009 17.333,362.307 17.826,362.167 18.009 C 362.121 18.069,361.802 18.170,361.458 18.234 C 361.115 18.297,360.833 18.412,360.833 18.489 C 360.833 18.567,360.627 18.679,360.375 18.738 C 359.932 18.841,358.837 19.330,358.667 19.500 C 358.621 19.546,358.321 19.727,358.000 19.904 C 357.679 20.080,357.357 20.324,357.283 20.445 C 357.210 20.567,357.078 20.667,356.990 20.667 C 356.744 20.667,355.333 22.047,355.333 22.288 C 355.333 22.404,355.263 22.500,355.178 22.500 C 355.092 22.500,354.970 22.669,354.905 22.875 C 354.841 23.081,354.705 23.304,354.603 23.369 C 354.318 23.551,354.340 50.197,354.625 50.292 C 354.740 50.330,354.833 50.504,354.833 50.678 C 354.833 51.641,356.809 53.005,358.379 53.125 C 359.000 53.173,359.548 53.277,359.597 53.356 C 359.713 53.542,362.833 53.545,362.833 53.359 C 362.833 53.281,363.640 53.168,364.625 53.108 C 365.610 53.048,366.442 52.924,366.472 52.832 C 366.503 52.741,366.634 52.667,366.764 52.667 C 366.965 52.667,367.000 50.840,367.000 40.170 L 367.000 27.673 367.417 27.568 C 367.646 27.511,367.833 27.404,367.833 27.330 C 367.833 27.256,368.152 27.143,368.542 27.078 C 368.931 27.012,369.298 26.884,369.357 26.791 C 369.509 26.551,373.645 26.530,373.798 26.769 C 373.863 26.871,374.101 27.013,374.327 27.083 C 375.220 27.362,376.167 28.784,376.167 29.847 C 376.167 30.206,376.239 30.500,376.327 30.500 C 376.428 30.500,376.505 34.237,376.535 40.506 C 376.570 47.636,376.637 50.546,376.769 50.631 C 376.871 50.697,377.003 50.905,377.063 51.095 C 377.206 51.555,378.101 52.457,378.554 52.599 C 378.754 52.661,378.962 52.781,379.017 52.867 C 379.072 52.952,379.690 53.065,380.392 53.118 C 381.093 53.171,381.667 53.279,381.667 53.357 C 381.667 53.543,384.786 53.544,384.901 53.359 C 384.949 53.281,385.783 53.169,386.755 53.110 C 387.946 53.037,388.600 52.924,388.761 52.763 C 389.056 52.468,389.127 27.765,388.833 27.583 C 388.742 27.527,388.667 27.185,388.667 26.823 C 388.667 26.462,388.600 26.167,388.519 26.167 C 388.438 26.167,388.321 25.829,388.259 25.417 C 388.197 25.004,388.079 24.667,387.997 24.667 C 387.915 24.667,387.799 24.404,387.739 24.083 C 387.679 23.762,387.563 23.500,387.481 23.500 C 387.400 23.500,387.333 23.401,387.333 23.280 C 387.333 23.159,387.108 22.808,386.833 22.500 C 386.558 22.192,386.333 21.869,386.333 21.783 C 386.333 21.580,384.877 20.208,384.087 19.667 C 383.753 19.438,383.381 19.160,383.260 19.050 C 383.139 18.940,382.844 18.800,382.603 18.740 C 382.363 18.680,382.167 18.564,382.167 18.482 C 382.167 18.400,382.084 18.333,381.984 18.333 C 381.883 18.333,381.564 18.229,381.275 18.101 C 380.225 17.637,379.827 17.509,379.042 17.383 C 378.744 17.336,378.500 17.236,378.500 17.163 C 378.500 17.089,377.919 16.981,377.208 16.923 C 376.498 16.865,375.786 16.746,375.627 16.659 C 375.268 16.462,368.167 16.446,368.167 16.643 M283.042 16.944 C 282.652 16.985,282.333 17.090,282.333 17.176 C 282.333 17.263,282.158 17.333,281.944 17.333 C 281.731 17.333,281.499 17.390,281.431 17.458 C 281.362 17.527,281.256 17.593,281.194 17.606 C 280.765 17.692,280.333 17.894,280.333 18.008 C 280.333 18.083,280.170 18.196,279.971 18.259 C 279.771 18.323,279.415 18.553,279.181 18.771 C 278.946 18.988,278.687 19.167,278.605 19.167 C 278.426 19.167,278.631 21.173,278.835 21.419 C 278.914 21.514,279.031 21.984,279.094 22.462 C 279.158 22.941,279.267 23.333,279.337 23.333 C 279.406 23.333,279.503 23.577,279.550 23.875 C 279.683 24.704,279.758 24.980,279.884 25.106 C 279.948 25.170,280.000 25.435,280.000 25.694 C 280.000 25.954,280.068 26.167,280.151 26.167 C 280.234 26.167,280.354 26.542,280.417 27.000 C 280.480 27.458,280.595 27.872,280.673 27.920 C 280.750 27.968,280.864 28.344,280.926 28.754 C 280.987 29.164,281.096 29.500,281.167 29.500 C 281.238 29.500,281.346 29.836,281.407 30.246 C 281.469 30.656,281.590 31.036,281.676 31.089 C 281.763 31.143,281.833 31.332,281.833 31.510 C 281.833 31.688,281.901 31.833,281.984 31.833 C 282.067 31.833,282.187 32.208,282.250 32.667 C 282.313 33.125,282.428 33.500,282.505 33.500 C 282.583 33.500,282.697 33.837,282.759 34.250 C 282.821 34.662,282.929 35.000,283.000 35.000 C 283.071 35.000,283.179 35.337,283.241 35.750 C 283.303 36.162,283.424 36.500,283.510 36.500 C 283.596 36.500,283.667 36.675,283.667 36.889 C 283.667 37.103,283.723 37.334,283.792 37.403 C 283.860 37.472,283.925 37.578,283.935 37.639 C 284.036 38.252,284.233 38.833,284.340 38.833 C 284.412 38.833,284.521 39.133,284.583 39.500 C 284.645 39.867,284.764 40.167,284.848 40.167 C 284.932 40.167,285.000 40.335,285.001 40.542 C 285.002 40.748,285.111 41.126,285.245 41.382 C 285.378 41.638,285.536 42.107,285.596 42.424 C 285.655 42.741,285.770 43.000,285.852 43.000 C 285.933 43.000,286.000 43.188,286.000 43.417 C 286.000 43.646,286.074 43.833,286.165 43.833 C 286.255 43.833,286.377 44.133,286.436 44.500 C 286.495 44.867,286.607 45.167,286.686 45.167 C 286.765 45.167,286.877 45.467,286.936 45.833 C 286.995 46.200,287.105 46.500,287.180 46.500 C 287.256 46.500,287.367 46.762,287.428 47.083 C 287.488 47.404,287.604 47.667,287.685 47.667 C 287.767 47.667,287.833 47.802,287.833 47.968 C 287.833 48.134,287.943 48.415,288.078 48.593 C 288.213 48.771,288.325 49.048,288.328 49.208 C 288.331 49.369,288.408 49.500,288.500 49.500 C 288.592 49.500,288.667 49.640,288.667 49.811 C 288.667 49.982,288.817 50.312,289.000 50.545 C 289.183 50.779,289.333 51.028,289.333 51.100 C 289.333 51.343,290.693 52.500,291.098 52.602 C 291.319 52.657,291.500 52.764,291.500 52.839 C 291.500 52.915,291.912 53.028,292.417 53.091 C 292.921 53.154,293.333 53.265,293.333 53.338 C 293.333 53.411,293.802 53.520,294.375 53.580 C 296.490 53.803,300.833 53.640,300.833 53.338 C 300.833 53.265,301.246 53.154,301.750 53.091 C 302.254 53.028,302.667 52.915,302.667 52.840 C 302.667 52.765,302.916 52.657,303.220 52.600 C 303.856 52.481,304.791 51.642,304.937 51.061 C 304.992 50.844,305.100 50.667,305.177 50.667 C 305.255 50.667,305.367 50.404,305.428 50.083 C 305.488 49.762,305.600 49.500,305.678 49.500 C 305.755 49.500,305.867 49.237,305.928 48.917 C 305.988 48.596,306.098 48.333,306.172 48.333 C 306.246 48.333,306.360 48.090,306.424 47.792 C 306.489 47.494,306.593 47.212,306.655 47.167 C 306.838 47.031,307.333 45.888,307.333 45.600 C 307.333 45.453,307.400 45.333,307.481 45.333 C 307.563 45.333,307.679 45.071,307.739 44.750 C 307.799 44.429,307.910 44.167,307.986 44.167 C 308.062 44.167,308.172 43.867,308.231 43.500 C 308.289 43.133,308.411 42.833,308.502 42.833 C 308.593 42.833,308.667 42.646,308.667 42.417 C 308.667 42.188,308.741 42.000,308.831 42.000 C 308.922 42.000,309.044 41.700,309.103 41.333 C 309.161 40.967,309.275 40.667,309.355 40.667 C 309.435 40.667,309.500 40.535,309.501 40.375 C 309.502 40.215,309.607 39.882,309.735 39.636 C 309.864 39.390,310.020 38.954,310.083 38.667 C 310.146 38.379,310.303 37.943,310.431 37.697 C 310.560 37.451,310.665 37.081,310.666 36.875 C 310.666 36.669,310.742 36.500,310.833 36.500 C 310.925 36.500,311.000 36.350,311.000 36.167 C 311.000 35.983,311.065 35.833,311.145 35.833 C 311.225 35.833,311.337 35.543,311.394 35.189 C 311.451 34.834,311.610 34.328,311.747 34.064 C 311.885 33.800,311.998 33.415,311.999 33.208 C 312.000 33.002,312.068 32.833,312.151 32.833 C 312.234 32.833,312.354 32.458,312.417 32.000 C 312.480 31.542,312.599 31.167,312.682 31.167 C 312.765 31.167,312.833 30.984,312.833 30.760 C 312.833 30.536,312.906 30.308,312.995 30.253 C 313.084 30.198,313.206 29.781,313.267 29.326 C 313.327 28.872,313.436 28.500,313.509 28.500 C 313.583 28.500,313.694 28.087,313.757 27.583 C 313.820 27.079,313.932 26.667,314.006 26.667 C 314.080 26.667,314.192 26.179,314.256 25.583 C 314.320 24.988,314.431 24.500,314.503 24.500 C 314.663 24.500,314.852 23.086,314.860 21.833 C 314.867 20.760,314.686 19.667,314.500 19.667 C 314.428 19.667,314.322 19.478,314.264 19.247 C 314.136 18.737,313.669 18.167,313.380 18.167 C 313.262 18.167,313.167 18.093,313.167 18.003 C 313.167 17.913,312.979 17.793,312.750 17.735 C 312.521 17.678,312.333 17.564,312.333 17.482 C 312.333 17.400,312.152 17.333,311.931 17.333 C 311.709 17.333,311.497 17.240,311.458 17.125 C 311.406 16.969,310.663 16.917,308.500 16.917 C 306.337 16.917,305.594 16.969,305.542 17.125 C 305.503 17.240,305.310 17.333,305.111 17.333 C 304.637 17.331,303.167 17.861,303.167 18.033 C 303.167 18.106,303.064 18.167,302.938 18.167 C 302.658 18.167,302.435 18.964,302.227 20.708 C 302.176 21.144,302.075 21.500,302.005 21.500 C 301.934 21.500,301.825 22.023,301.762 22.663 C 301.699 23.302,301.584 23.865,301.507 23.912 C 301.430 23.960,301.315 24.524,301.250 25.167 C 301.185 25.809,301.071 26.373,300.996 26.419 C 300.921 26.466,300.807 26.991,300.743 27.587 C 300.680 28.184,300.561 28.712,300.480 28.762 C 300.399 28.812,300.333 29.074,300.333 29.343 C 300.333 29.613,300.264 29.833,300.180 29.833 C 300.096 29.833,299.974 30.322,299.910 30.919 C 299.846 31.516,299.735 32.041,299.663 32.085 C 299.592 32.130,299.481 32.616,299.417 33.167 C 299.353 33.717,299.240 34.204,299.167 34.250 C 299.093 34.296,298.981 34.783,298.917 35.333 C 298.853 35.883,298.741 36.333,298.669 36.333 C 298.596 36.333,298.495 36.577,298.444 36.875 C 298.266 37.913,297.916 39.418,297.813 39.583 C 297.756 39.675,297.655 40.122,297.589 40.577 C 297.444 41.575,297.000 42.369,297.000 41.630 C 297.000 41.386,296.935 41.146,296.855 41.097 C 296.776 41.048,296.661 40.634,296.600 40.177 C 296.540 39.721,296.418 39.302,296.329 39.247 C 296.239 39.192,296.167 38.926,296.167 38.657 C 296.167 38.387,296.100 38.167,296.019 38.167 C 295.938 38.167,295.820 37.755,295.758 37.253 C 295.695 36.750,295.579 36.299,295.500 36.250 C 295.421 36.201,295.305 35.749,295.242 35.245 C 295.179 34.741,295.069 34.293,294.997 34.248 C 294.925 34.204,294.814 33.717,294.750 33.167 C 294.686 32.617,294.566 32.167,294.484 32.167 C 294.401 32.167,294.333 31.942,294.333 31.667 C 294.333 31.392,294.267 31.167,294.186 31.167 C 294.105 31.167,293.987 30.679,293.923 30.083 C 293.859 29.488,293.745 29.000,293.670 29.000 C 293.594 29.000,293.481 28.550,293.417 28.000 C 293.353 27.450,293.240 27.000,293.167 27.000 C 293.093 27.000,292.980 26.550,292.917 26.000 C 292.853 25.450,292.733 24.958,292.650 24.907 C 292.568 24.855,292.500 24.593,292.500 24.323 C 292.500 24.054,292.432 23.833,292.350 23.833 C 292.267 23.833,292.147 23.383,292.083 22.833 C 292.019 22.283,291.909 21.833,291.838 21.833 C 291.767 21.833,291.661 21.533,291.603 21.167 C 291.544 20.800,291.430 20.500,291.350 20.500 C 291.270 20.500,291.155 20.237,291.094 19.917 C 291.034 19.596,290.913 19.333,290.826 19.333 C 290.738 19.333,290.667 19.248,290.667 19.145 C 290.667 18.682,288.827 17.333,288.197 17.333 C 288.012 17.333,287.834 17.252,287.801 17.153 C 287.737 16.960,284.308 16.810,283.042 16.944 M121.154 17.395 C 121.102 17.451,120.595 17.508,120.029 17.520 C 119.463 17.533,119.000 17.609,119.000 17.688 C 119.000 17.768,118.625 17.833,118.167 17.833 C 117.708 17.833,117.333 17.908,117.333 18.000 C 117.333 18.092,117.221 18.167,117.083 18.167 C 116.863 18.167,116.833 20.009,116.833 33.750 C 116.833 42.452,116.897 49.333,116.978 49.333 C 117.058 49.333,117.165 49.650,117.217 50.038 C 117.269 50.426,117.392 50.769,117.489 50.802 C 117.587 50.834,117.667 50.933,117.667 51.021 C 117.667 51.338,118.944 52.667,119.249 52.667 C 119.372 52.667,119.499 52.746,119.531 52.843 C 119.563 52.940,120.172 53.064,120.884 53.118 C 121.595 53.172,122.217 53.280,122.265 53.358 C 122.380 53.543,125.167 53.544,125.167 53.359 C 125.167 53.281,125.969 53.168,126.949 53.108 C 127.929 53.048,128.942 52.906,129.199 52.792 L 129.667 52.585 129.667 37.459 C 129.667 28.864,129.603 22.333,129.520 22.333 C 129.439 22.333,129.340 21.877,129.300 21.320 C 129.260 20.763,129.148 20.257,129.053 20.195 C 128.957 20.134,128.831 19.932,128.773 19.746 C 128.611 19.224,127.746 18.360,127.266 18.239 C 127.028 18.179,126.833 18.064,126.833 17.982 C 126.833 17.900,126.661 17.833,126.450 17.833 C 126.239 17.833,125.992 17.758,125.900 17.667 C 125.717 17.484,121.308 17.231,121.154 17.395 M338.488 17.395 C 338.435 17.451,337.929 17.508,337.363 17.520 C 336.796 17.533,336.333 17.609,336.333 17.688 C 336.333 17.768,335.958 17.833,335.500 17.833 C 335.042 17.833,334.667 17.908,334.667 18.000 C 334.667 18.092,334.554 18.167,334.417 18.167 C 334.196 18.167,334.167 20.009,334.167 33.750 C 334.167 42.452,334.231 49.333,334.311 49.333 C 334.391 49.333,334.499 49.650,334.551 50.038 C 334.603 50.426,334.725 50.769,334.823 50.802 C 334.920 50.834,335.000 50.964,335.000 51.091 C 335.000 51.384,336.288 52.667,336.583 52.667 C 336.705 52.667,336.832 52.746,336.864 52.843 C 336.897 52.940,337.505 53.064,338.217 53.118 C 338.928 53.172,339.550 53.280,339.598 53.358 C 339.713 53.543,342.500 53.544,342.500 53.359 C 342.500 53.281,343.302 53.168,344.282 53.108 C 345.263 53.048,346.275 52.906,346.532 52.792 L 347.000 52.585 347.000 37.459 C 347.000 28.864,346.937 22.333,346.853 22.333 C 346.773 22.333,346.674 21.877,346.633 21.320 C 346.593 20.763,346.482 20.257,346.386 20.195 C 346.290 20.134,346.164 19.932,346.107 19.746 C 345.944 19.224,345.079 18.360,344.599 18.239 C 344.361 18.179,344.167 18.064,344.167 17.982 C 344.167 17.900,343.994 17.833,343.783 17.833 C 343.572 17.833,343.325 17.758,343.234 17.667 C 343.050 17.484,338.641 17.231,338.488 17.395 M231.000 40.988 L 231.000 43.642 230.471 43.906 C 230.181 44.051,229.431 44.217,228.805 44.275 C 228.179 44.334,227.667 44.445,227.667 44.524 C 227.667 44.602,227.067 44.667,226.333 44.667 C 225.600 44.667,225.000 44.602,225.000 44.523 C 225.000 44.444,224.626 44.335,224.168 44.281 C 223.263 44.174,222.822 43.896,222.055 42.950 C 221.679 42.486,221.626 41.295,221.955 40.695 C 222.632 39.459,224.445 38.943,228.875 38.725 C 229.769 38.681,230.500 38.575,230.500 38.489 C 230.500 38.403,230.612 38.333,230.750 38.333 C 230.962 38.333,231.000 38.739,231.000 40.988 M320.419 39.613 C 320.053 39.656,319.678 39.752,319.585 39.827 C 319.493 39.901,319.173 40.014,318.875 40.077 C 318.577 40.141,318.333 40.262,318.333 40.347 C 318.333 40.431,318.221 40.500,318.083 40.500 C 317.946 40.500,317.833 40.579,317.833 40.677 C 317.833 40.774,317.758 40.807,317.667 40.750 C 317.575 40.693,317.500 40.726,317.500 40.823 C 317.500 40.921,317.425 41.000,317.333 41.000 C 317.157 41.000,316.500 41.600,316.500 41.762 C 316.500 41.814,316.406 41.962,316.292 42.089 C 315.814 42.622,315.701 42.795,315.583 43.179 C 315.515 43.402,315.375 43.689,315.271 43.817 C 315.005 44.149,315.012 49.635,315.278 49.799 C 315.386 49.866,315.525 50.126,315.588 50.377 C 315.651 50.628,315.770 50.833,315.851 50.833 C 315.933 50.833,316.000 50.945,316.000 51.081 C 316.000 51.440,317.577 52.971,318.076 53.096 C 318.309 53.155,318.500 53.270,318.500 53.351 C 318.500 53.433,318.635 53.500,318.800 53.500 C 318.965 53.500,319.194 53.594,319.308 53.708 C 319.612 54.013,324.112 53.996,324.765 53.688 C 326.160 53.030,326.451 52.839,327.200 52.083 C 328.003 51.273,328.167 51.066,328.167 50.861 C 328.167 50.754,328.241 50.667,328.331 50.667 C 328.422 50.667,328.544 50.367,328.603 50.000 C 328.661 49.633,328.766 49.333,328.836 49.333 C 329.041 49.333,329.205 48.185,329.205 46.750 C 329.205 45.262,329.040 44.167,328.815 44.167 C 328.733 44.167,328.667 43.996,328.667 43.788 C 328.667 43.423,327.610 41.636,327.333 41.533 C 327.259 41.505,326.972 41.280,326.695 41.033 C 325.809 40.240,325.683 40.162,325.128 40.054 C 324.829 39.995,324.542 39.886,324.492 39.810 C 324.383 39.647,321.366 39.500,320.419 39.613 M253.862 59.685 C 254.351 59.787,254.900 59.927,255.083 59.996 C 256.981 60.713,257.577 61.001,258.583 61.686 C 266.498 67.070,265.692 79.131,257.132 83.385 C 252.512 85.681,246.794 84.852,243.108 81.352 C 236.637 75.206,238.326 64.468,246.362 60.666 C 246.942 60.392,247.535 60.167,247.681 60.167 C 247.826 60.167,248.000 60.110,248.068 60.042 C 248.509 59.595,252.310 59.361,253.862 59.685 M121.583 60.244 C 133.815 63.530,133.816 81.053,121.584 84.504 C 111.258 87.418,102.434 75.887,107.616 66.250 C 110.201 61.443,116.293 58.823,121.583 60.244 M386.833 60.068 C 389.573 60.663,391.582 61.764,393.443 63.689 C 394.301 64.577,395.833 66.765,395.833 67.103 C 395.833 67.156,395.933 67.436,396.056 67.725 C 396.623 69.062,396.715 69.565,396.791 71.728 C 396.874 74.088,396.689 75.378,396.067 76.775 C 395.939 77.064,395.833 77.344,395.833 77.397 C 395.833 77.735,394.301 79.923,393.443 80.811 C 386.928 87.552,375.734 85.032,372.723 76.146 C 369.740 67.342,377.837 58.116,386.833 60.068 M104.917 64.000 C 104.795 64.197,104.953 64.500,105.177 64.500 C 105.263 64.500,105.333 64.350,105.333 64.167 C 105.333 63.815,105.091 63.718,104.917 64.000 " stroke="none" fill="#2a2a2a" fill-rule="evenodd"></path><path id="path1" d="M12.350 1.680 C 2.995 4.095,-0.257 15.679,6.500 22.517 C 13.237 29.334,24.726 26.289,27.171 17.038 C 29.565 7.977,21.267 -0.621,12.350 1.680 M67.162 1.980 C 56.331 4.905,54.537 19.518,64.333 25.021 C 67.805 26.971,72.914 26.984,76.038 25.051 C 76.380 24.840,76.707 24.667,76.764 24.667 C 76.900 24.667,78.072 23.749,78.892 23.002 C 82.643 19.581,83.637 12.675,81.049 8.011 C 78.344 3.134,72.419 0.561,67.162 1.980 M248.656 59.995 C 239.951 62.268,236.405 72.671,241.901 79.813 C 248.586 88.500,262.410 84.593,263.847 73.610 C 264.958 65.120,256.851 57.854,248.656 59.995 " stroke="none" fill="#fafafa" fill-rule="evenodd"></path><path id="path2" d="M116.083 60.073 C 107.148 62.060,103.203 72.064,108.357 79.667 C 113.808 87.708,126.473 86.096,129.961 76.917 C 133.450 67.734,125.427 57.997,116.083 60.073 " stroke="none" fill="#e3042b" fill-rule="evenodd"></path><path id="path3" d="M382.250 60.022 C 375.964 61.478,372.250 65.988,372.250 72.167 C 372.250 83.519,385.573 88.954,393.443 80.811 C 394.301 79.923,395.833 77.735,395.833 77.397 C 395.833 77.344,395.939 77.064,396.067 76.775 C 396.689 75.378,396.874 74.088,396.791 71.728 C 396.715 69.565,396.623 69.062,396.056 67.725 C 395.933 67.436,395.833 67.156,395.833 67.103 C 395.833 66.765,394.301 64.577,393.443 63.689 C 390.554 60.700,385.902 59.176,382.250 60.022 " stroke="none" fill="#0443bc" fill-rule="evenodd"></path><path id="path4" d="M12.367 1.498 C 12.064 1.569,11.769 1.675,11.712 1.732 C 11.602 1.843,12.466 1.697,13.167 1.487 C 13.745 1.313,13.108 1.322,12.367 1.498 M17.333 1.476 C 18.023 1.701,18.944 1.843,18.667 1.683 C 18.529 1.603,18.079 1.493,17.667 1.439 C 17.175 1.374,17.060 1.387,17.333 1.476 M67.891 1.628 C 67.785 1.695,68.847 1.750,70.250 1.750 C 71.653 1.750,72.715 1.695,72.609 1.628 C 72.358 1.468,68.142 1.468,67.891 1.628 M10.708 2.005 C 10.131 2.237,10.264 2.339,10.875 2.133 C 11.173 2.033,11.448 1.924,11.486 1.892 C 11.622 1.778,11.078 1.857,10.708 2.005 M19.000 1.868 C 19.046 1.914,19.344 2.039,19.663 2.146 C 19.982 2.254,20.169 2.271,20.080 2.183 C 19.990 2.095,19.692 1.970,19.417 1.905 C 19.142 1.840,18.954 1.823,19.000 1.868 M66.083 2.147 C 65.129 2.492,64.069 3.023,63.583 3.398 C 63.400 3.540,63.850 3.358,64.583 2.993 C 65.317 2.628,66.254 2.226,66.667 2.099 C 67.079 1.972,67.304 1.863,67.167 1.857 C 67.029 1.850,66.542 1.981,66.083 2.147 M73.167 1.880 C 73.212 1.927,73.544 2.045,73.902 2.143 C 74.261 2.241,74.486 2.257,74.402 2.178 C 74.242 2.027,73.023 1.733,73.167 1.880 M9.054 2.831 C 8.579 3.104,8.141 3.406,8.081 3.504 C 8.021 3.601,8.334 3.463,8.777 3.196 C 9.221 2.929,9.733 2.628,9.917 2.527 C 10.100 2.426,10.175 2.342,10.083 2.340 C 9.992 2.338,9.528 2.559,9.054 2.831 M20.583 2.527 C 20.767 2.628,21.279 2.929,21.723 3.196 C 22.166 3.463,22.479 3.601,22.419 3.504 C 22.285 3.287,20.648 2.335,20.417 2.340 C 20.325 2.342,20.400 2.426,20.583 2.527 M75.667 2.868 C 77.655 3.885,79.022 5.062,80.322 6.875 C 80.842 7.601,81.192 7.956,80.896 7.458 C 79.643 5.353,76.791 2.920,75.000 2.428 C 74.771 2.365,75.071 2.563,75.667 2.868 M6.709 4.625 C 5.757 5.549,4.667 6.853,4.667 7.069 C 4.667 7.126,4.490 7.453,4.274 7.795 C 4.059 8.137,3.829 8.604,3.764 8.833 C 3.698 9.063,3.957 8.688,4.338 8.000 C 5.136 6.562,5.896 5.580,7.081 4.460 C 7.541 4.025,7.867 3.669,7.807 3.668 C 7.746 3.667,7.252 4.098,6.709 4.625 M23.708 4.733 C 24.326 5.355,25.143 6.345,25.522 6.932 C 26.256 8.066,26.554 8.362,26.051 7.458 C 25.386 6.262,24.207 4.856,23.250 4.117 C 22.815 3.780,22.973 3.994,23.708 4.733 M61.534 5.100 C 60.198 6.448,59.014 8.070,59.218 8.274 C 59.263 8.318,59.476 7.995,59.691 7.556 C 60.081 6.763,62.522 4.108,63.000 3.958 C 63.137 3.914,63.195 3.820,63.128 3.748 C 63.060 3.675,62.343 4.284,61.534 5.100 M26.339 8.258 C 26.342 8.345,26.458 8.604,26.596 8.833 L 26.847 9.250 26.738 8.833 C 26.624 8.399,26.329 7.972,26.339 8.258 M81.528 9.009 C 81.625 9.288,81.736 9.486,81.774 9.448 C 81.856 9.366,81.542 8.500,81.429 8.500 C 81.386 8.500,81.430 8.729,81.528 9.009 M3.350 9.933 C 3.254 10.281,3.206 10.595,3.242 10.631 C 3.279 10.668,3.387 10.414,3.483 10.067 C 3.579 9.719,3.628 9.405,3.591 9.369 C 3.554 9.332,3.446 9.586,3.350 9.933 M26.845 9.448 C 26.883 9.881,27.143 10.248,27.155 9.885 C 27.161 9.684,27.092 9.473,27.000 9.417 C 26.908 9.360,26.839 9.374,26.845 9.448 M58.350 10.100 C 58.254 10.447,58.206 10.761,58.242 10.798 C 58.279 10.835,58.387 10.581,58.483 10.233 C 58.579 9.886,58.628 9.572,58.591 9.535 C 58.554 9.499,58.446 9.753,58.350 10.100 M81.846 9.758 C 81.853 9.845,81.965 10.179,82.095 10.500 L 82.330 11.083 82.231 10.500 C 82.142 9.980,81.813 9.345,81.846 9.758 M2.940 11.368 C 2.884 11.578,2.847 12.200,2.859 12.750 C 2.880 13.739,2.881 13.736,3.007 12.417 C 3.139 11.040,3.118 10.706,2.940 11.368 M27.456 12.250 C 27.505 12.983,27.573 13.615,27.606 13.653 C 27.731 13.796,27.637 11.569,27.505 11.250 C 27.425 11.057,27.405 11.479,27.456 12.250 M57.945 11.482 C 57.884 11.790,57.842 12.276,57.853 12.563 C 57.866 12.922,57.919 12.802,58.023 12.176 C 58.189 11.175,58.124 10.591,57.945 11.482 M82.417 13.989 C 82.417 15.444,82.472 16.548,82.539 16.442 C 82.692 16.202,82.684 12.020,82.530 11.631 C 82.468 11.473,82.417 12.535,82.417 13.989 M2.849 15.000 C 2.843 15.596,2.905 16.188,2.985 16.315 C 3.074 16.455,3.101 16.094,3.052 15.399 C 2.945 13.848,2.862 13.686,2.849 15.000 M27.530 14.833 C 27.511 15.338,27.454 15.938,27.403 16.167 C 27.324 16.522,27.338 16.540,27.497 16.292 C 27.602 16.128,27.657 15.548,27.623 14.959 L 27.564 13.917 27.530 14.833 M57.901 15.917 C 57.958 16.806,58.474 18.748,58.616 18.606 C 58.662 18.560,58.582 18.160,58.436 17.719 C 58.291 17.278,58.099 16.504,58.010 16.000 L 57.847 15.083 57.901 15.917 M3.268 17.333 C 3.325 17.654,3.439 18.029,3.521 18.167 C 3.699 18.463,3.528 17.599,3.308 17.083 C 3.211 16.858,3.199 16.940,3.268 17.333 M27.030 17.530 C 26.931 17.920,26.879 18.268,26.914 18.303 C 26.949 18.338,27.063 18.052,27.167 17.667 C 27.270 17.281,27.323 16.934,27.283 16.894 C 27.243 16.854,27.129 17.140,27.030 17.530 M82.102 17.568 C 82.047 17.789,81.953 18.107,81.893 18.276 C 81.818 18.487,81.839 18.531,81.958 18.417 C 82.139 18.242,82.418 17.167,82.281 17.167 C 82.238 17.167,82.157 17.347,82.102 17.568 M26.074 19.792 C 25.186 21.560,22.967 23.787,21.083 24.801 C 20.350 25.196,19.938 25.466,20.167 25.402 C 20.396 25.337,20.863 25.108,21.205 24.892 C 21.547 24.677,21.908 24.500,22.008 24.500 C 22.696 24.500,26.080 20.461,26.651 18.958 C 26.958 18.152,26.741 18.464,26.074 19.792 M81.528 19.158 C 81.430 19.438,81.386 19.667,81.429 19.667 C 81.542 19.667,81.856 18.801,81.774 18.718 C 81.736 18.681,81.625 18.878,81.528 19.158 M4.236 19.721 C 4.552 20.712,7.944 24.500,8.514 24.500 C 8.602 24.500,8.953 24.677,9.295 24.892 C 9.637 25.108,10.104 25.337,10.333 25.402 C 10.563 25.466,10.151 25.196,9.418 24.801 C 7.853 23.958,5.530 21.767,4.681 20.333 C 4.383 19.829,4.182 19.554,4.236 19.721 M59.280 20.116 C 59.831 21.622,64.118 25.771,64.613 25.276 C 64.659 25.229,64.447 25.062,64.140 24.903 C 62.455 24.032,59.500 21.035,59.500 20.196 C 59.500 20.099,59.426 19.974,59.335 19.918 C 59.237 19.857,59.215 19.937,59.280 20.116 M80.365 21.150 C 79.893 21.874,79.112 22.807,78.629 23.223 C 78.145 23.640,77.563 24.140,77.333 24.336 C 77.104 24.532,77.254 24.468,77.667 24.194 C 78.882 23.387,80.260 21.829,81.042 20.376 C 81.536 19.459,81.263 19.770,80.365 21.150 M76.124 24.986 C 75.500 25.385,75.409 25.493,75.775 25.396 C 76.134 25.302,76.997 24.670,76.750 24.683 C 76.658 24.687,76.377 24.824,76.124 24.986 M10.917 25.667 C 10.973 25.758,11.184 25.828,11.385 25.822 C 11.737 25.810,11.738 25.805,11.417 25.667 C 10.958 25.470,10.795 25.470,10.917 25.667 M19.083 25.667 C 18.762 25.805,18.763 25.810,19.115 25.822 C 19.316 25.828,19.527 25.758,19.583 25.667 C 19.705 25.470,19.542 25.470,19.083 25.667 M65.333 25.639 C 65.471 25.724,65.771 25.843,66.000 25.904 C 66.290 25.982,66.340 25.969,66.167 25.861 C 66.029 25.776,65.729 25.657,65.500 25.596 C 65.210 25.518,65.160 25.531,65.333 25.639 M74.583 25.756 C 74.167 25.957,74.153 25.980,74.500 25.895 C 74.972 25.779,75.503 25.509,75.250 25.513 C 75.158 25.514,74.858 25.623,74.583 25.756 M12.673 26.174 C 12.896 26.315,15.312 26.411,15.153 26.273 C 15.115 26.239,14.486 26.169,13.757 26.116 C 12.918 26.056,12.520 26.077,12.673 26.174 M16.333 26.167 L 15.250 26.276 16.417 26.302 C 17.058 26.316,17.696 26.256,17.833 26.167 C 18.115 25.984,18.142 25.984,16.333 26.167 M66.667 26.167 C 66.804 26.256,67.104 26.322,67.333 26.314 L 67.750 26.300 67.333 26.167 C 66.691 25.961,66.348 25.961,66.667 26.167 M73.167 26.167 L 72.750 26.300 73.198 26.317 C 73.445 26.326,73.693 26.258,73.750 26.167 C 73.867 25.977,73.758 25.977,73.167 26.167 M68.131 26.530 C 68.288 26.592,69.242 26.643,70.250 26.643 C 71.258 26.643,72.212 26.592,72.369 26.530 C 72.526 26.468,71.572 26.417,70.250 26.417 C 68.928 26.417,67.974 26.468,68.131 26.530 M250.792 59.623 C 251.273 59.657,252.060 59.657,252.542 59.623 C 253.023 59.589,252.629 59.562,251.667 59.562 C 250.704 59.562,250.310 59.589,250.792 59.623 M248.750 59.788 C 248.475 59.827,248.177 59.930,248.089 60.016 C 247.915 60.185,248.831 60.049,249.417 59.819 C 249.769 59.680,249.571 59.671,248.750 59.788 M254.181 59.893 C 254.377 60.063,255.184 60.164,255.087 60.007 C 255.029 59.911,254.785 59.833,254.546 59.833 C 254.307 59.833,254.142 59.860,254.181 59.893 M246.040 60.834 C 245.307 61.200,244.604 61.625,244.479 61.778 C 244.353 61.930,244.588 61.842,245.000 61.582 C 245.412 61.322,246.200 60.900,246.750 60.645 C 247.300 60.391,247.665 60.179,247.561 60.174 C 247.457 60.170,246.772 60.467,246.040 60.834 M255.833 60.364 C 256.063 60.474,256.689 60.779,257.225 61.042 C 257.761 61.306,258.156 61.451,258.103 61.365 C 257.987 61.178,256.421 60.424,255.833 60.272 L 255.417 60.165 255.833 60.364 M243.072 62.859 C 242.572 63.332,242.192 63.748,242.228 63.784 C 242.264 63.820,242.730 63.433,243.264 62.925 C 243.797 62.416,244.177 62.000,244.107 62.000 C 244.037 62.000,243.571 62.387,243.072 62.859 M259.709 62.681 C 261.720 64.405,263.235 67.114,263.754 69.917 C 263.876 70.575,263.976 70.860,263.985 70.572 C 264.055 68.202,260.481 61.990,259.054 62.001 C 258.978 62.002,259.273 62.308,259.709 62.681 M241.548 64.625 C 241.050 65.273,239.998 67.189,240.002 67.440 C 240.004 67.519,240.304 67.034,240.670 66.362 C 241.037 65.690,241.532 64.884,241.771 64.570 C 242.010 64.257,242.166 64.000,242.117 64.000 C 242.068 64.000,241.812 64.281,241.548 64.625 M239.667 68.333 C 239.563 68.719,239.511 69.066,239.551 69.106 C 239.590 69.146,239.704 68.860,239.803 68.470 C 239.902 68.080,239.954 67.732,239.919 67.697 C 239.884 67.662,239.770 67.948,239.667 68.333 M239.268 69.764 C 239.131 70.120,239.161 74.177,239.303 74.536 C 239.366 74.693,239.417 73.625,239.417 72.161 C 239.417 70.698,239.406 69.500,239.393 69.500 C 239.380 69.500,239.323 69.619,239.268 69.764 M263.779 74.065 C 263.713 74.605,263.692 75.081,263.733 75.122 C 263.844 75.233,264.043 73.758,263.966 73.395 C 263.930 73.223,263.846 73.525,263.779 74.065 M239.602 75.667 C 239.657 75.987,239.769 76.321,239.851 76.408 C 240.061 76.632,240.021 76.364,239.739 75.667 L 239.503 75.083 239.602 75.667 M240.096 76.989 C 240.211 77.402,240.832 78.509,240.833 78.303 C 240.833 78.240,240.642 77.828,240.408 77.386 C 240.174 76.945,240.034 76.766,240.096 76.989 M262.721 77.458 C 262.205 78.595,262.177 78.667,262.251 78.667 C 262.339 78.667,262.775 77.841,263.000 77.251 C 263.245 76.604,263.039 76.758,262.721 77.458 M240.923 78.667 C 241.596 79.880,244.240 82.660,244.477 82.403 C 244.536 82.339,244.476 82.250,244.346 82.203 C 243.933 82.057,242.651 80.788,241.867 79.750 C 241.041 78.655,240.699 78.263,240.923 78.667 M261.574 79.513 C 260.783 80.655,258.793 82.375,257.399 83.121 C 256.675 83.509,256.161 83.828,256.257 83.830 C 256.608 83.837,259.170 82.228,259.910 81.535 C 260.635 80.856,262.167 79.074,262.167 78.910 C 262.167 78.723,262.014 78.879,261.574 79.513 M244.917 82.775 C 245.439 83.190,247.522 84.119,248.167 84.225 C 248.652 84.304,248.624 84.280,248.000 84.079 C 247.588 83.946,246.650 83.539,245.917 83.174 C 245.183 82.809,244.733 82.629,244.917 82.775 M255.083 84.086 L 254.417 84.313 255.083 84.220 C 255.450 84.168,255.821 84.060,255.908 83.980 C 256.124 83.780,255.894 83.810,255.083 84.086 M249.224 84.539 C 249.330 84.606,250.392 84.662,251.583 84.662 C 252.775 84.662,253.837 84.606,253.942 84.539 C 254.048 84.472,252.987 84.417,251.583 84.417 C 250.180 84.417,249.118 84.472,249.224 84.539 " stroke="none" fill="#765c5c" fill-rule="evenodd"></path></g></svg>